<?xml version="1.0" encoding="UTF-8"?>
<svg width="764px" height="678px" viewBox="0 0 764 678" version="1.1" xmlns="http://www.w3.org/2000/svg" xmlns:xlink="http://www.w3.org/1999/xlink">
    <title>map</title>
    <g id="Misc" stroke="none" stroke-width="1" fill="none" fill-rule="evenodd">
        <g id="map">
            <rect id="Rectangle" fill="#000000" x="0" y="0.499263623" width="764" height="677.001473"></rect>
            <g id="Group-5" transform="translate(164.000000, 14.478645)">
                <rect id="Rectangle" fill="#6236FF" x="0" y="0" width="370" height="84.8748159" rx="16"></rect>
                <path d="M30.2285156,53.3581928 C35.2050781,53.3581928 38.1582031,50.1863178 38.1582031,44.9363178 L38.1582031,42.502724 C38.1582031,37.1843646 35.2050781,33.9441303 30.2285156,33.9441303 C25.2792969,33.9441303 22.2988281,37.1843646 22.2988281,42.502724 L22.2988281,44.9363178 C22.2988281,50.1863178 25.2246094,53.3581928 30.2285156,53.3581928 Z M30.2285156,50.268349 C27.5898438,50.268349 25.9902344,48.2859271 25.9902344,44.9226459 L25.9902344,42.4890521 C25.9902344,39.0847553 27.5898438,37.033974 30.2285156,37.033974 C32.8671875,37.033974 34.4667969,39.0847553 34.4667969,42.4890521 L34.4667969,44.9226459 C34.4667969,48.2859271 32.8671875,50.268349 30.2285156,50.268349 Z M49.21875,53.1531146 C52.609375,53.1531146 54.6738281,50.7331928 54.6738281,46.6999896 L54.6738281,44.6765521 C54.6738281,40.6570209 52.6230469,38.237099 49.2871094,38.237099 C47.2226562,38.237099 45.5410156,39.221474 45.0761719,40.7253803 L44.8984375,40.7253803 L44.8984375,35.2019428 C44.8984375,33.9304584 44.2421875,33.2195209 43.09375,33.2195209 C41.9453125,33.2195209 41.2890625,33.9304584 41.2890625,35.2019428 L41.2890625,51.1160053 C41.2890625,52.4011615 41.9316406,53.0984271 43.0664062,53.0984271 C44.1464844,53.0984271 44.8300781,52.4695209 44.8300781,51.3484271 L44.8300781,50.7468646 L45.0078125,50.7468646 C45.609375,52.2507709 47.1953125,53.1531146 49.21875,53.1531146 Z M48.015625,50.2820209 C46.15625,50.2820209 44.8984375,48.846474 44.8984375,46.6999896 L44.8984375,44.8816303 C44.8984375,42.5574115 46.0742188,41.1081928 47.9746094,41.1081928 C49.875,41.1081928 50.96875,42.5984271 50.96875,45.1003803 L50.96875,46.3718646 C50.96875,48.846474 49.8886719,50.2820209 48.015625,50.2820209 Z M62.8769531,53.2761615 C66.6640625,53.2761615 68.9472656,51.5124896 68.9472656,48.6550678 C68.9472656,46.4949115 67.7304688,45.1960834 65.1464844,44.6218646 L62.5351562,44.0613178 C61.2910156,43.7742084 60.7304688,43.2820209 60.7304688,42.4480365 C60.7304688,41.4363178 61.5644531,40.7800678 62.9453125,40.7800678 C63.9023438,40.7800678 64.640625,41.0535053 65.6796875,41.846474 C66.3496094,42.3249896 66.7324219,42.4617084 67.15625,42.4617084 C67.9765625,42.4617084 68.5234375,41.9831928 68.5234375,41.2038959 C68.5234375,40.3699115 67.9082031,39.5632709 66.8691406,39.002724 C65.8300781,38.4421771 64.5175781,38.1413959 63.1367188,38.1413959 C59.5546875,38.1413959 57.2578125,39.9324115 57.2578125,42.6667865 C57.2578125,44.8132709 58.515625,46.1257709 61.2089844,46.7136615 L63.5058594,47.2331928 C64.8320312,47.5203021 65.4746094,48.1355365 65.4746094,48.9695209 C65.4746094,49.9812396 64.5585938,50.6101459 63.0683594,50.6101459 C61.8789062,50.6101459 60.9355469,50.2273334 59.8828125,49.393349 C59.2539062,48.9011615 58.8984375,48.7097553 58.4335938,48.7097553 C57.6132812,48.7097553 57.0664062,49.2429584 57.0664062,50.049599 C57.0664062,50.9656146 57.6679688,51.7859271 58.7753906,52.3738178 C59.8554688,52.9480365 61.2910156,53.2761615 62.8769531,53.2761615 Z M78.1621094,53.2761615 C80.0351562,53.2761615 81.6894531,52.783974 82.6464844,51.9773334 C83.3300781,51.4851459 83.7265625,50.8699115 83.7265625,50.2273334 C83.7265625,49.4343646 83.2070312,48.9148334 82.4550781,48.9148334 C81.8945312,48.9148334 81.6484375,49.1199115 80.9511719,49.6531146 C80.3085938,50.1863178 79.515625,50.4597553 78.3945312,50.4597553 C76.2480469,50.4597553 74.9628906,49.1609271 74.9492188,47.1374896 L74.9492188,46.5085834 L82.2910156,46.5085834 C83.6445312,46.5085834 84.109375,45.9753803 84.109375,44.3484271 C84.109375,40.7663959 81.4980469,38.1413959 77.8066406,38.1413959 C73.9101562,38.1413959 71.2851562,40.8210834 71.2851562,44.7859271 L71.2851562,46.658974 C71.2851562,50.7742084 73.9101562,53.2761615 78.1621094,53.2761615 Z M80.6640625,44.2253803 L74.9492188,44.2253803 L74.9492188,44.1980365 C74.9492188,42.2429584 76.0839844,40.9304584 77.8613281,40.9304584 C79.5703125,40.9304584 80.6640625,42.2156146 80.6640625,44.1980365 L80.6640625,44.2253803 Z M88.8261719,53.0984271 C90.0019531,53.0984271 90.6582031,52.3738178 90.6582031,51.1160053 L90.6582031,44.690224 C90.6582031,42.4890521 91.6835938,41.3816303 93.7070312,41.3406146 C94.2949219,41.3269428 94.7324219,41.2175678 95.0195312,40.9988178 C95.375,40.7390521 95.5390625,40.3562396 95.5390625,39.8230365 C95.5390625,39.3035053 95.3613281,38.893349 95.0195312,38.6199115 C94.7050781,38.3601459 94.28125,38.2234271 93.7480469,38.2234271 C92.3808594,38.2234271 91.3144531,38.9890521 90.7265625,40.4109271 L90.5761719,40.4109271 L90.5761719,40.0691303 C90.5078125,38.9480365 89.90625,38.3191303 88.8398438,38.3191303 C87.7050781,38.3191303 87.0625,39.0437396 87.0625,40.315224 L87.0625,51.1160053 C87.0625,52.3738178 87.6640625,53.0984271 88.8261719,53.0984271 Z M103.564453,53.0984271 C105.095703,53.0984271 105.669922,52.5105365 106.599609,49.8855365 L109.785156,41.0398334 C109.935547,40.643349 109.990234,40.3425678 109.990234,40.0554584 C109.990234,39.0710834 109.265625,38.3601459 108.253906,38.3601459 C107.324219,38.3601459 106.736328,38.9070209 106.435547,40.0828021 L103.619141,49.7488178 L103.46875,49.7488178 L100.898438,40.0691303 C100.638672,38.9343646 100.023438,38.3601459 99.0390625,38.3601459 C97.9863281,38.3601459 97.234375,39.0847553 97.234375,40.0691303 C97.234375,40.3699115 97.3027344,40.6706928 97.4257812,41.0261615 L100.460938,49.8855365 C101.335938,52.4968646 101.923828,53.0984271 103.564453,53.0984271 Z M116.306641,53.1531146 C118.083984,53.1531146 119.519531,52.4148334 120.257812,51.1160053 L120.435547,51.1160053 L120.435547,51.6218646 C120.544922,52.565224 121.173828,53.0984271 122.130859,53.0984271 C123.251953,53.0984271 123.880859,52.4011615 123.880859,51.1706928 L123.880859,43.2410053 C123.880859,40.0281146 121.748047,38.2234271 117.947266,38.2234271 C116.361328,38.2234271 115.144531,38.4968646 114.228516,38.9753803 C112.957031,39.6179584 112.369141,40.4792865 112.369141,41.3269428 C112.369141,42.065224 112.861328,42.5984271 113.654297,42.5984271 C114.242188,42.5984271 114.625,42.4480365 115.035156,42.1199115 C115.841797,41.3953021 116.621094,40.9851459 117.714844,40.9851459 C119.369141,40.9851459 120.285156,41.7507709 120.285156,43.2136615 L120.285156,44.4031146 L116.839844,44.4031146 C113.544922,44.4031146 111.5625,46.0574115 111.5625,48.737099 C111.5625,51.3757709 113.476562,53.1531146 116.306641,53.1531146 Z M117.509766,50.5554584 C116.101562,50.5554584 115.144531,49.721474 115.144531,48.518349 C115.144531,47.3288959 116.019531,46.6179584 117.496094,46.6179584 L120.285156,46.6179584 L120.285156,48.1218646 C120.285156,49.4890521 119.068359,50.5554584 117.509766,50.5554584 Z M135.242188,53.1531146 C138.632812,53.1531146 140.697266,50.7331928 140.697266,46.6999896 L140.697266,44.6765521 C140.697266,40.6570209 138.646484,38.237099 135.310547,38.237099 C133.246094,38.237099 131.564453,39.221474 131.099609,40.7253803 L130.921875,40.7253803 L130.921875,35.2019428 C130.921875,33.9304584 130.265625,33.2195209 129.117188,33.2195209 C127.96875,33.2195209 127.3125,33.9304584 127.3125,35.2019428 L127.3125,51.1160053 C127.3125,52.4011615 127.955078,53.0984271 129.089844,53.0984271 C130.169922,53.0984271 130.853516,52.4695209 130.853516,51.3484271 L130.853516,50.7468646 L131.03125,50.7468646 C131.632812,52.2507709 133.21875,53.1531146 135.242188,53.1531146 Z M134.039062,50.2820209 C132.179688,50.2820209 130.921875,48.846474 130.921875,46.6999896 L130.921875,44.8816303 C130.921875,42.5574115 132.097656,41.1081928 133.998047,41.1081928 C135.898438,41.1081928 136.992188,42.5984271 136.992188,45.1003803 L136.992188,46.3718646 C136.992188,48.846474 135.912109,50.2820209 134.039062,50.2820209 Z M145.673828,53.0984271 C146.78125,53.0984271 147.478516,52.4285053 147.478516,51.1160053 L147.478516,35.2019428 C147.478516,33.8894428 146.78125,33.205849 145.673828,33.205849 C144.552734,33.205849 143.869141,33.8894428 143.869141,35.2019428 L143.869141,51.1160053 C143.869141,52.4285053 144.552734,53.0984271 145.673828,53.0984271 Z M157.445312,53.2761615 C159.318359,53.2761615 160.972656,52.783974 161.929688,51.9773334 C162.613281,51.4851459 163.009766,50.8699115 163.009766,50.2273334 C163.009766,49.4343646 162.490234,48.9148334 161.738281,48.9148334 C161.177734,48.9148334 160.931641,49.1199115 160.234375,49.6531146 C159.591797,50.1863178 158.798828,50.4597553 157.677734,50.4597553 C155.53125,50.4597553 154.246094,49.1609271 154.232422,47.1374896 L154.232422,46.5085834 L161.574219,46.5085834 C162.927734,46.5085834 163.392578,45.9753803 163.392578,44.3484271 C163.392578,40.7663959 160.78125,38.1413959 157.089844,38.1413959 C153.193359,38.1413959 150.568359,40.8210834 150.568359,44.7859271 L150.568359,46.658974 C150.568359,50.7742084 153.193359,53.2761615 157.445312,53.2761615 Z M159.947266,44.2253803 L154.232422,44.2253803 L154.232422,44.1980365 C154.232422,42.2429584 155.367188,40.9304584 157.144531,40.9304584 C158.853516,40.9304584 159.947266,42.2156146 159.947266,44.1980365 L159.947266,44.2253803 Z M177.912109,53.002724 C178.882812,53.002724 179.580078,52.2781146 179.580078,51.2663959 C179.580078,50.4597553 179.074219,49.8581928 178.130859,49.5437396 L169.763672,45.7019428 L169.763672,45.5515521 L178.144531,41.8328021 C179.087891,41.5456928 179.59375,40.9578021 179.59375,40.1374896 C179.59375,39.1257709 178.910156,38.4421771 177.898438,38.4421771 C177.556641,38.4421771 177.337891,38.5105365 177.037109,38.6335834 L168.054688,43.1316303 C166.701172,43.6648334 166.154297,44.4851459 166.154297,45.6882709 C166.154297,46.8230365 166.660156,47.6023334 168.054688,48.1765521 L177.023438,52.783974 C177.351562,52.9206928 177.570312,53.002724 177.912109,53.002724 Z M190.175781,53.3581928 C195.152344,53.3581928 198.105469,50.1863178 198.105469,44.9363178 L198.105469,42.502724 C198.105469,37.1843646 195.152344,33.9441303 190.175781,33.9441303 C185.226562,33.9441303 182.246094,37.1843646 182.246094,42.502724 L182.246094,44.9363178 C182.246094,50.1863178 185.171875,53.3581928 190.175781,53.3581928 Z M190.175781,50.268349 C187.537109,50.268349 185.9375,48.2859271 185.9375,44.9226459 L185.9375,42.4890521 C185.9375,39.0847553 187.537109,37.033974 190.175781,37.033974 C192.814453,37.033974 194.414062,39.0847553 194.414062,42.4890521 L194.414062,44.9226459 C194.414062,48.2859271 192.814453,50.268349 190.175781,50.268349 Z M202.958984,53.0984271 C204.134766,53.0984271 204.791016,52.3738178 204.791016,51.1160053 L204.791016,44.690224 C204.791016,42.4890521 205.816406,41.3816303 207.839844,41.3406146 C208.427734,41.3269428 208.865234,41.2175678 209.152344,40.9988178 C209.507812,40.7390521 209.671875,40.3562396 209.671875,39.8230365 C209.671875,39.3035053 209.494141,38.893349 209.152344,38.6199115 C208.837891,38.3601459 208.414062,38.2234271 207.880859,38.2234271 C206.513672,38.2234271 205.447266,38.9890521 204.859375,40.4109271 L204.708984,40.4109271 L204.708984,40.0691303 C204.640625,38.9480365 204.039062,38.3191303 202.972656,38.3191303 C201.837891,38.3191303 201.195312,39.0437396 201.195312,40.315224 L201.195312,51.1160053 C201.195312,52.3738178 201.796875,53.0984271 202.958984,53.0984271 Z M213.951172,36.6785053 C215.140625,36.6785053 216.001953,35.8718646 216.001953,34.7781146 C216.001953,33.6843646 215.140625,32.8913959 213.951172,32.8913959 C212.789062,32.8913959 211.914062,33.6843646 211.914062,34.7781146 C211.914062,35.8718646 212.789062,36.6785053 213.951172,36.6785053 Z M213.951172,53.0984271 C215.072266,53.0984271 215.755859,52.4285053 215.755859,51.1160053 L215.755859,40.315224 C215.755859,39.002724 215.072266,38.3191303 213.964844,38.3191303 C212.84375,38.3191303 212.160156,39.002724 212.160156,40.315224 L212.160156,51.1160053 C212.160156,52.4148334 212.84375,53.0984271 213.951172,53.0984271 Z M225.763672,53.2761615 C227.636719,53.2761615 229.291016,52.783974 230.248047,51.9773334 C230.931641,51.4851459 231.328125,50.8699115 231.328125,50.2273334 C231.328125,49.4343646 230.808594,48.9148334 230.056641,48.9148334 C229.496094,48.9148334 229.25,49.1199115 228.552734,49.6531146 C227.910156,50.1863178 227.117188,50.4597553 225.996094,50.4597553 C223.849609,50.4597553 222.564453,49.1609271 222.550781,47.1374896 L222.550781,46.5085834 L229.892578,46.5085834 C231.246094,46.5085834 231.710938,45.9753803 231.710938,44.3484271 C231.710938,40.7663959 229.099609,38.1413959 225.408203,38.1413959 C221.511719,38.1413959 218.886719,40.8210834 218.886719,44.7859271 L218.886719,46.658974 C218.886719,50.7742084 221.511719,53.2761615 225.763672,53.2761615 Z M228.265625,44.2253803 L222.550781,44.2253803 L222.550781,44.1980365 C222.550781,42.2429584 223.685547,40.9304584 225.462891,40.9304584 C227.171875,40.9304584 228.265625,42.2156146 228.265625,44.1980365 L228.265625,44.2253803 Z M245.710938,53.0984271 C246.859375,53.0984271 247.501953,52.4011615 247.501953,51.1296771 L247.501953,43.2410053 C247.501953,40.0554584 245.751953,38.2234271 242.662109,38.2234271 C240.529297,38.2234271 238.902344,39.2898334 238.341797,41.0124896 L238.164062,41.0124896 L238.164062,40.1238178 C238.123047,38.9617084 237.494141,38.3191303 236.414062,38.3191303 C235.320312,38.3191303 234.636719,39.0574115 234.636719,40.2468646 L234.636719,51.1160053 C234.636719,52.3874896 235.292969,53.0984271 236.441406,53.0984271 C237.589844,53.0984271 238.246094,52.3874896 238.246094,51.1160053 L238.246094,44.8953021 C238.246094,42.6394428 239.421875,41.2585834 241.294922,41.2585834 C242.962891,41.2585834 243.90625,42.3249896 243.90625,44.2253803 L243.90625,51.1160053 C243.90625,52.3874896 244.548828,53.0984271 245.710938,53.0984271 Z M256.060547,53.2488178 C257.044922,53.2488178 257.783203,53.0847553 258.289062,52.7566303 C258.794922,52.455849 259.027344,52.0046771 259.027344,51.471474 C259.027344,50.8015521 258.589844,50.377724 257.960938,50.377724 C257.632812,50.377724 257.386719,50.4324115 257.003906,50.4324115 C255.923828,50.4324115 255.568359,49.9949115 255.568359,48.6824115 L255.568359,41.3816303 L256.976562,41.3816303 C257.960938,41.3816303 258.521484,40.8484271 258.521484,39.9734271 C258.521484,39.0984271 257.960938,38.565224 256.976562,38.565224 L255.541016,38.565224 L255.541016,36.6785053 C255.541016,35.4343646 254.898438,34.737099 253.777344,34.737099 C252.669922,34.737099 252.027344,35.4343646 252.027344,36.6785053 L252.027344,38.565224 L251.220703,38.565224 C250.25,38.565224 249.689453,39.0984271 249.689453,39.9734271 C249.689453,40.8484271 250.25,41.3816303 251.220703,41.3816303 L251.958984,41.3816303 L251.958984,49.0788959 C251.958984,52.0456928 253.203125,53.2488178 256.060547,53.2488178 Z M265.234375,53.1531146 C267.011719,53.1531146 268.447266,52.4148334 269.185547,51.1160053 L269.363281,51.1160053 L269.363281,51.6218646 C269.472656,52.565224 270.101562,53.0984271 271.058594,53.0984271 C272.179688,53.0984271 272.808594,52.4011615 272.808594,51.1706928 L272.808594,43.2410053 C272.808594,40.0281146 270.675781,38.2234271 266.875,38.2234271 C265.289062,38.2234271 264.072266,38.4968646 263.15625,38.9753803 C261.884766,39.6179584 261.296875,40.4792865 261.296875,41.3269428 C261.296875,42.065224 261.789062,42.5984271 262.582031,42.5984271 C263.169922,42.5984271 263.552734,42.4480365 263.962891,42.1199115 C264.769531,41.3953021 265.548828,40.9851459 266.642578,40.9851459 C268.296875,40.9851459 269.212891,41.7507709 269.212891,43.2136615 L269.212891,44.4031146 L265.767578,44.4031146 C262.472656,44.4031146 260.490234,46.0574115 260.490234,48.737099 C260.490234,51.3757709 262.404297,53.1531146 265.234375,53.1531146 Z M266.4375,50.5554584 C265.029297,50.5554584 264.072266,49.721474 264.072266,48.518349 C264.072266,47.3288959 264.947266,46.6179584 266.423828,46.6179584 L269.212891,46.6179584 L269.212891,48.1218646 C269.212891,49.4890521 267.996094,50.5554584 266.4375,50.5554584 Z M281.3125,53.2488178 C282.296875,53.2488178 283.035156,53.0847553 283.541016,52.7566303 C284.046875,52.455849 284.279297,52.0046771 284.279297,51.471474 C284.279297,50.8015521 283.841797,50.377724 283.212891,50.377724 C282.884766,50.377724 282.638672,50.4324115 282.255859,50.4324115 C281.175781,50.4324115 280.820312,49.9949115 280.820312,48.6824115 L280.820312,41.3816303 L282.228516,41.3816303 C283.212891,41.3816303 283.773438,40.8484271 283.773438,39.9734271 C283.773438,39.0984271 283.212891,38.565224 282.228516,38.565224 L280.792969,38.565224 L280.792969,36.6785053 C280.792969,35.4343646 280.150391,34.737099 279.029297,34.737099 C277.921875,34.737099 277.279297,35.4343646 277.279297,36.6785053 L277.279297,38.565224 L276.472656,38.565224 C275.501953,38.565224 274.941406,39.0984271 274.941406,39.9734271 C274.941406,40.8484271 275.501953,41.3816303 276.472656,41.3816303 L277.210938,41.3816303 L277.210938,49.0788959 C277.210938,52.0456928 278.455078,53.2488178 281.3125,53.2488178 Z M288.626953,36.6785053 C289.816406,36.6785053 290.677734,35.8718646 290.677734,34.7781146 C290.677734,33.6843646 289.816406,32.8913959 288.626953,32.8913959 C287.464844,32.8913959 286.589844,33.6843646 286.589844,34.7781146 C286.589844,35.8718646 287.464844,36.6785053 288.626953,36.6785053 Z M288.626953,53.0984271 C289.748047,53.0984271 290.431641,52.4285053 290.431641,51.1160053 L290.431641,40.315224 C290.431641,39.002724 289.748047,38.3191303 288.640625,38.3191303 C287.519531,38.3191303 286.835938,39.002724 286.835938,40.315224 L286.835938,51.1160053 C286.835938,52.4148334 287.519531,53.0984271 288.626953,53.0984271 Z M300.207031,53.2761615 C304.158203,53.2761615 306.892578,50.8288959 306.892578,46.5222553 L306.892578,44.8132709 C306.892578,40.643349 304.158203,38.1413959 300.207031,38.1413959 C296.242188,38.1413959 293.507812,40.643349 293.507812,44.8269428 L293.507812,46.5359271 C293.507812,50.8288959 296.242188,53.2761615 300.207031,53.2761615 Z M300.207031,50.4734271 C298.361328,50.4734271 297.212891,48.9831928 297.212891,46.5085834 L297.212891,44.8953021 C297.212891,42.4480365 298.361328,40.9441303 300.207031,40.9441303 C302.080078,40.9441303 303.1875,42.4480365 303.1875,44.8953021 L303.1875,46.5085834 C303.1875,48.9831928 302.080078,50.4734271 300.207031,50.4734271 Z M320.878906,53.0984271 C322.027344,53.0984271 322.669922,52.4011615 322.669922,51.1296771 L322.669922,43.2410053 C322.669922,40.0554584 320.919922,38.2234271 317.830078,38.2234271 C315.697266,38.2234271 314.070312,39.2898334 313.509766,41.0124896 L313.332031,41.0124896 L313.332031,40.1238178 C313.291016,38.9617084 312.662109,38.3191303 311.582031,38.3191303 C310.488281,38.3191303 309.804688,39.0574115 309.804688,40.2468646 L309.804688,51.1160053 C309.804688,52.3874896 310.460938,53.0984271 311.609375,53.0984271 C312.757812,53.0984271 313.414062,52.3874896 313.414062,51.1160053 L313.414062,44.8953021 C313.414062,42.6394428 314.589844,41.2585834 316.462891,41.2585834 C318.130859,41.2585834 319.074219,42.3249896 319.074219,44.2253803 L319.074219,51.1160053 C319.074219,52.3874896 319.716797,53.0984271 320.878906,53.0984271 Z M327.373047,53.002724 C327.714844,53.002724 327.933594,52.9206928 328.261719,52.783974 L337.230469,48.1765521 C338.625,47.6023334 339.130859,46.8230365 339.130859,45.6882709 C339.130859,44.4851459 338.583984,43.6648334 337.230469,43.1316303 L328.248047,38.6335834 C327.947266,38.5105365 327.714844,38.4421771 327.386719,38.4421771 C326.375,38.4421771 325.691406,39.1257709 325.691406,40.1374896 C325.691406,40.9578021 326.197266,41.5456928 327.140625,41.8328021 L335.521484,45.5515521 L335.521484,45.7019428 L327.154297,49.5437396 C326.210938,49.8581928 325.705078,50.4597553 325.705078,51.2663959 C325.705078,52.2781146 326.402344,53.002724 327.373047,53.002724 Z" id="Observable&lt;Orientation&gt;" fill="#FFFFFF" fill-rule="nonzero"></path>
            </g>
            <g id="Group-5-Copy" transform="translate(164.000000, 203.200295)">
                <rect id="Rectangle" fill="#FA6400" x="0" y="0" width="370" height="84.8748159" rx="16"></rect>
                <path d="M158.689453,53.0733903 C159.837891,53.0733903 160.480469,52.3624528 160.480469,51.0909685 L160.480469,41.2608903 L161.998047,41.2608903 C162.982422,41.2608903 163.542969,40.7413591 163.542969,39.8663591 C163.542969,38.9776872 162.982422,38.458156 161.998047,38.458156 L160.412109,38.458156 L160.412109,37.1729997 C160.412109,36.0108903 160.904297,35.5323747 161.820312,35.5323747 C162.339844,35.5323747 162.544922,35.6007341 163.023438,35.6007341 C163.666016,35.6007341 164.089844,35.1632341 164.089844,34.4796403 C164.089844,34.0147966 163.857422,33.6319841 163.433594,33.3448747 C162.982422,33.0577653 162.285156,32.8937028 161.396484,32.8937028 C158.388672,32.8937028 156.884766,34.2335466 156.884766,37.3097185 L156.884766,38.458156 L156.064453,38.458156 C155.09375,38.458156 154.533203,38.9776872 154.533203,39.8663591 C154.533203,40.755031 155.09375,41.2608903 156.064453,41.2608903 L156.884766,41.2608903 L156.884766,51.0909685 C156.884766,52.3624528 157.541016,53.0733903 158.689453,53.0733903 Z M168.041016,36.6534685 C169.230469,36.6534685 170.091797,35.8468278 170.091797,34.7530778 C170.091797,33.6593278 169.230469,32.8663591 168.041016,32.8663591 C166.878906,32.8663591 166.003906,33.6593278 166.003906,34.7530778 C166.003906,35.8468278 166.878906,36.6534685 168.041016,36.6534685 Z M168.041016,53.0733903 C169.162109,53.0733903 169.845703,52.4034685 169.845703,51.0909685 L169.845703,40.2901872 C169.845703,38.9776872 169.162109,38.2940935 168.054688,38.2940935 C166.933594,38.2940935 166.25,38.9776872 166.25,40.2901872 L166.25,51.0909685 C166.25,52.3897966 166.933594,53.0733903 168.041016,53.0733903 Z M175.464844,53.0733903 C176.572266,53.0733903 177.269531,52.4034685 177.269531,51.0909685 L177.269531,35.176906 C177.269531,33.864406 176.572266,33.1808122 175.464844,33.1808122 C174.34375,33.1808122 173.660156,33.864406 173.660156,35.176906 L173.660156,51.0909685 C173.660156,52.4034685 174.34375,53.0733903 175.464844,53.0733903 Z M186.115234,53.223781 C187.099609,53.223781 187.837891,53.0597185 188.34375,52.7315935 C188.849609,52.4308122 189.082031,51.9796403 189.082031,51.4464372 C189.082031,50.7765153 188.644531,50.3526872 188.015625,50.3526872 C187.6875,50.3526872 187.441406,50.4073747 187.058594,50.4073747 C185.978516,50.4073747 185.623047,49.9698747 185.623047,48.6573747 L185.623047,41.3565935 L187.03125,41.3565935 C188.015625,41.3565935 188.576172,40.8233903 188.576172,39.9483903 C188.576172,39.0733903 188.015625,38.5401872 187.03125,38.5401872 L185.595703,38.5401872 L185.595703,36.6534685 C185.595703,35.4093278 184.953125,34.7120622 183.832031,34.7120622 C182.724609,34.7120622 182.082031,35.4093278 182.082031,36.6534685 L182.082031,38.5401872 L181.275391,38.5401872 C180.304688,38.5401872 179.744141,39.0733903 179.744141,39.9483903 C179.744141,40.8233903 180.304688,41.3565935 181.275391,41.3565935 L182.013672,41.3565935 L182.013672,49.0538591 C182.013672,52.020656 183.257812,53.223781 186.115234,53.223781 Z M197.585938,53.2511247 C199.458984,53.2511247 201.113281,52.7589372 202.070312,51.9522966 C202.753906,51.4601091 203.150391,50.8448747 203.150391,50.2022966 C203.150391,49.4093278 202.630859,48.8897966 201.878906,48.8897966 C201.318359,48.8897966 201.072266,49.0948747 200.375,49.6280778 C199.732422,50.161281 198.939453,50.4347185 197.818359,50.4347185 C195.671875,50.4347185 194.386719,49.1358903 194.373047,47.1124528 L194.373047,46.4835466 L201.714844,46.4835466 C203.068359,46.4835466 203.533203,45.9503435 203.533203,44.3233903 C203.533203,40.7413591 200.921875,38.1163591 197.230469,38.1163591 C193.333984,38.1163591 190.708984,40.7960466 190.708984,44.7608903 L190.708984,46.6339372 C190.708984,50.7491716 193.333984,53.2511247 197.585938,53.2511247 Z M200.087891,44.2003435 L194.373047,44.2003435 L194.373047,44.1729997 C194.373047,42.2179216 195.507812,40.9054216 197.285156,40.9054216 C198.994141,40.9054216 200.087891,42.1905778 200.087891,44.1729997 L200.087891,44.2003435 Z M208.25,53.0733903 C209.425781,53.0733903 210.082031,52.348781 210.082031,51.0909685 L210.082031,44.6651872 C210.082031,42.4640153 211.107422,41.3565935 213.130859,41.3155778 C213.71875,41.301906 214.15625,41.192531 214.443359,40.973781 C214.798828,40.7140153 214.962891,40.3312028 214.962891,39.7979997 C214.962891,39.2784685 214.785156,38.8683122 214.443359,38.5948747 C214.128906,38.3351091 213.705078,38.1983903 213.171875,38.1983903 C211.804688,38.1983903 210.738281,38.9640153 210.150391,40.3858903 L210,40.3858903 L210,40.0440935 C209.931641,38.9229997 209.330078,38.2940935 208.263672,38.2940935 C207.128906,38.2940935 206.486328,39.0187028 206.486328,40.2901872 L206.486328,51.0909685 C206.486328,52.348781 207.087891,53.0733903 208.25,53.0733903 Z" id="filter" fill="#FFFFFF" fill-rule="nonzero"></path>
            </g>
            <g id="Group-5-Copy-2" transform="translate(164.000000, 391.921944)">
                <rect id="Rectangle" fill="#F7B500" x="0" y="0" width="370" height="84.8748159" rx="16"></rect>
                <path d="M174.822266,53.0733903 C175.970703,53.0733903 176.626953,52.3761247 176.626953,51.0909685 L176.626953,42.8058122 C176.626953,39.9347185 174.876953,38.1983903 171.951172,38.1983903 C169.859375,38.1983903 168.21875,39.2511247 167.589844,40.9327653 L167.425781,40.9327653 C166.947266,39.2374528 165.470703,38.1983903 163.433594,38.1983903 C161.464844,38.1983903 159.947266,39.2101091 159.46875,40.8370622 L159.291016,40.8370622 L159.291016,40.1534685 C159.236328,38.9913591 158.59375,38.2940935 157.541016,38.2940935 C156.447266,38.2940935 155.763672,39.0323747 155.763672,40.2354997 L155.763672,51.0909685 C155.763672,52.3761247 156.419922,53.0733903 157.568359,53.0733903 C158.716797,53.0733903 159.373047,52.3761247 159.373047,51.0909685 L159.373047,44.0772966 C159.373047,42.3136247 160.398438,41.1788591 161.929688,41.1788591 C163.488281,41.1788591 164.458984,42.2315935 164.458984,43.9542497 L164.458984,51.0909685 C164.458984,52.3761247 165.074219,53.0733903 166.195312,53.0733903 C167.330078,53.0733903 167.945312,52.3761247 167.945312,51.0909685 L167.945312,44.0909685 C167.945312,42.3409685 168.998047,41.1788591 170.542969,41.1788591 C172.101562,41.1788591 173.03125,42.1632341 173.03125,43.8858903 L173.03125,51.0909685 C173.03125,52.3761247 173.673828,53.0733903 174.822266,53.0733903 Z M184.132812,53.1280778 C185.910156,53.1280778 187.345703,52.3897966 188.083984,51.0909685 L188.261719,51.0909685 L188.261719,51.5968278 C188.371094,52.5401872 189,53.0733903 189.957031,53.0733903 C191.078125,53.0733903 191.707031,52.3761247 191.707031,51.145656 L191.707031,43.2159685 C191.707031,40.0030778 189.574219,38.1983903 185.773438,38.1983903 C184.1875,38.1983903 182.970703,38.4718278 182.054688,38.9503435 C180.783203,39.5929216 180.195312,40.4542497 180.195312,41.301906 C180.195312,42.0401872 180.6875,42.5733903 181.480469,42.5733903 C182.068359,42.5733903 182.451172,42.4229997 182.861328,42.0948747 C183.667969,41.3702653 184.447266,40.9601091 185.541016,40.9601091 C187.195312,40.9601091 188.111328,41.7257341 188.111328,43.1886247 L188.111328,44.3780778 L184.666016,44.3780778 C181.371094,44.3780778 179.388672,46.0323747 179.388672,48.7120622 C179.388672,51.3507341 181.302734,53.1280778 184.132812,53.1280778 Z M185.335938,50.5304216 C183.927734,50.5304216 182.970703,49.6964372 182.970703,48.4933122 C182.970703,47.3038591 183.845703,46.5929216 185.322266,46.5929216 L188.111328,46.5929216 L188.111328,48.0968278 C188.111328,49.4640153 186.894531,50.5304216 185.335938,50.5304216 Z M196.902344,58.0909685 C198.064453,58.0909685 198.707031,57.380031 198.707031,56.1085466 L198.707031,50.7218278 L198.884766,50.7218278 C199.527344,52.2530778 201.017578,53.1280778 203,53.1280778 C206.404297,53.1280778 208.455078,50.6944841 208.455078,46.661281 L208.455078,44.6515153 C208.455078,40.6183122 206.431641,38.1983903 203.054688,38.1983903 C201.017578,38.1983903 199.417969,39.1690935 198.830078,40.7276872 L198.652344,40.7276872 L198.652344,40.0304216 C198.570312,38.9093278 197.941406,38.2940935 196.875,38.2940935 C195.740234,38.2940935 195.111328,39.005031 195.111328,40.2901872 L195.111328,56.1085466 C195.111328,57.380031 195.753906,58.0909685 196.902344,58.0909685 Z M201.783203,50.2433122 C199.9375,50.2433122 198.707031,48.848781 198.707031,46.7159685 L198.707031,44.7882341 C198.707031,42.4640153 199.869141,41.083156 201.755859,41.083156 C203.683594,41.083156 204.777344,42.505031 204.777344,45.0069841 L204.777344,46.3194841 C204.777344,48.8077653 203.683594,50.2433122 201.783203,50.2433122 Z" id="map" fill="#FFFFFF" fill-rule="nonzero"></path>
            </g>
            <g id="Group-5-Copy-3" transform="translate(164.000000, 580.643594)">
                <rect id="Rectangle" fill="#44D7B6" x="0" y="0" width="370" height="84.8748159" rx="16"></rect>
                <path d="M128.917969,53.2511247 C132.705078,53.2511247 134.988281,51.4874528 134.988281,48.630031 C134.988281,46.4698747 133.771484,45.1710466 131.1875,44.5968278 L128.576172,44.036281 C127.332031,43.7491716 126.771484,43.2569841 126.771484,42.4229997 C126.771484,41.411281 127.605469,40.755031 128.986328,40.755031 C129.943359,40.755031 130.681641,41.0284685 131.720703,41.8214372 C132.390625,42.2999528 132.773438,42.4366716 133.197266,42.4366716 C134.017578,42.4366716 134.564453,41.958156 134.564453,41.1788591 C134.564453,40.3448747 133.949219,39.5382341 132.910156,38.9776872 C131.871094,38.4171403 130.558594,38.1163591 129.177734,38.1163591 C125.595703,38.1163591 123.298828,39.9073747 123.298828,42.6417497 C123.298828,44.7882341 124.556641,46.1007341 127.25,46.6886247 L129.546875,47.208156 C130.873047,47.4952653 131.515625,48.1104997 131.515625,48.9444841 C131.515625,49.9562028 130.599609,50.5851091 129.109375,50.5851091 C127.919922,50.5851091 126.976562,50.2022966 125.923828,49.3683122 C125.294922,48.8761247 124.939453,48.6847185 124.474609,48.6847185 C123.654297,48.6847185 123.107422,49.2179216 123.107422,50.0245622 C123.107422,50.9405778 123.708984,51.7608903 124.816406,52.348781 C125.896484,52.9229997 127.332031,53.2511247 128.917969,53.2511247 Z M142.535156,53.1280778 C145.009766,53.1280778 146.417969,51.8565935 146.882812,50.5167497 L147.074219,50.5167497 L147.074219,51.2960466 C147.115234,52.4854997 147.785156,53.0733903 148.824219,53.0733903 C149.876953,53.0733903 150.601562,52.4034685 150.601562,51.1593278 L150.601562,40.2491716 C150.601562,38.9366716 149.904297,38.2940935 148.796875,38.2940935 C147.675781,38.2940935 146.992188,38.9366716 146.992188,40.2491716 L146.992188,47.1808122 C146.992188,48.8897966 145.802734,50.1339372 143.943359,50.1339372 C142.507812,50.1339372 141.359375,49.3683122 141.359375,47.3448747 L141.359375,40.2491716 C141.359375,38.9366716 140.675781,38.2940935 139.568359,38.2940935 C138.447266,38.2940935 137.763672,38.9366716 137.763672,40.2491716 L137.763672,48.2608903 C137.763672,51.6241716 139.71875,53.1280778 142.535156,53.1280778 Z M162.113281,53.1280778 C165.503906,53.1280778 167.568359,50.708156 167.568359,46.6749528 L167.568359,44.6515153 C167.568359,40.6319841 165.517578,38.2120622 162.181641,38.2120622 C160.117188,38.2120622 158.435547,39.1964372 157.970703,40.7003435 L157.792969,40.7003435 L157.792969,35.176906 C157.792969,33.9054216 157.136719,33.1944841 155.988281,33.1944841 C154.839844,33.1944841 154.183594,33.9054216 154.183594,35.176906 L154.183594,51.0909685 C154.183594,52.3761247 154.826172,53.0733903 155.960938,53.0733903 C157.041016,53.0733903 157.724609,52.4444841 157.724609,51.3233903 L157.724609,50.7218278 L157.902344,50.7218278 C158.503906,52.2257341 160.089844,53.1280778 162.113281,53.1280778 Z M160.910156,50.2569841 C159.050781,50.2569841 157.792969,48.8214372 157.792969,46.6749528 L157.792969,44.8565935 C157.792969,42.5323747 158.96875,41.083156 160.869141,41.083156 C162.769531,41.083156 163.863281,42.5733903 163.863281,45.0753435 L163.863281,46.3468278 C163.863281,48.8214372 162.783203,50.2569841 160.910156,50.2569841 Z M175.771484,53.2511247 C179.558594,53.2511247 181.841797,51.4874528 181.841797,48.630031 C181.841797,46.4698747 180.625,45.1710466 178.041016,44.5968278 L175.429688,44.036281 C174.185547,43.7491716 173.625,43.2569841 173.625,42.4229997 C173.625,41.411281 174.458984,40.755031 175.839844,40.755031 C176.796875,40.755031 177.535156,41.0284685 178.574219,41.8214372 C179.244141,42.2999528 179.626953,42.4366716 180.050781,42.4366716 C180.871094,42.4366716 181.417969,41.958156 181.417969,41.1788591 C181.417969,40.3448747 180.802734,39.5382341 179.763672,38.9776872 C178.724609,38.4171403 177.412109,38.1163591 176.03125,38.1163591 C172.449219,38.1163591 170.152344,39.9073747 170.152344,42.6417497 C170.152344,44.7882341 171.410156,46.1007341 174.103516,46.6886247 L176.400391,47.208156 C177.726562,47.4952653 178.369141,48.1104997 178.369141,48.9444841 C178.369141,49.9562028 177.453125,50.5851091 175.962891,50.5851091 C174.773438,50.5851091 173.830078,50.2022966 172.777344,49.3683122 C172.148438,48.8761247 171.792969,48.6847185 171.328125,48.6847185 C170.507812,48.6847185 169.960938,49.2179216 169.960938,50.0245622 C169.960938,50.9405778 170.5625,51.7608903 171.669922,52.348781 C172.75,52.9229997 174.185547,53.2511247 175.771484,53.2511247 Z M190.742188,53.2511247 C192.123047,53.2511247 193.462891,52.9503435 194.583984,52.2804216 C195.636719,51.6378435 196.333984,50.7218278 196.333984,49.7921403 C196.333984,48.8761247 195.746094,48.3429216 194.939453,48.3429216 C194.269531,48.3429216 193.873047,48.7667497 193.53125,49.0948747 C192.806641,49.9288591 191.945312,50.2979997 190.947266,50.2979997 C188.773438,50.2979997 187.898438,48.7257341 187.898438,46.4562028 L187.898438,44.7882341 C187.898438,42.5733903 188.896484,41.0694841 190.919922,41.0694841 C191.986328,41.0694841 192.779297,41.4933122 193.408203,42.2315935 C193.777344,42.5870622 194.160156,42.9972185 194.857422,42.9972185 C195.746094,42.9972185 196.292969,42.3546403 196.292969,41.520656 C196.292969,40.6046403 195.582031,39.7433122 194.693359,39.1690935 C193.599609,38.4444841 192.150391,38.1163591 190.728516,38.1163591 C186.558594,38.1163591 184.193359,40.7413591 184.193359,44.5968278 L184.193359,46.6339372 C184.193359,50.7901872 186.654297,53.2511247 190.742188,53.2511247 Z M201.214844,53.0733903 C202.390625,53.0733903 203.046875,52.348781 203.046875,51.0909685 L203.046875,44.6651872 C203.046875,42.4640153 204.072266,41.3565935 206.095703,41.3155778 C206.683594,41.301906 207.121094,41.192531 207.408203,40.973781 C207.763672,40.7140153 207.927734,40.3312028 207.927734,39.7979997 C207.927734,39.2784685 207.75,38.8683122 207.408203,38.5948747 C207.09375,38.3351091 206.669922,38.1983903 206.136719,38.1983903 C204.769531,38.1983903 203.703125,38.9640153 203.115234,40.3858903 L202.964844,40.3858903 L202.964844,40.0440935 C202.896484,38.9229997 202.294922,38.2940935 201.228516,38.2940935 C200.09375,38.2940935 199.451172,39.0187028 199.451172,40.2901872 L199.451172,51.0909685 C199.451172,52.348781 200.052734,53.0733903 201.214844,53.0733903 Z M212.207031,36.6534685 C213.396484,36.6534685 214.257812,35.8468278 214.257812,34.7530778 C214.257812,33.6593278 213.396484,32.8663591 212.207031,32.8663591 C211.044922,32.8663591 210.169922,33.6593278 210.169922,34.7530778 C210.169922,35.8468278 211.044922,36.6534685 212.207031,36.6534685 Z M212.207031,53.0733903 C213.328125,53.0733903 214.011719,52.4034685 214.011719,51.0909685 L214.011719,40.2901872 C214.011719,38.9776872 213.328125,38.2940935 212.220703,38.2940935 C211.099609,38.2940935 210.416016,38.9776872 210.416016,40.2901872 L210.416016,51.0909685 C210.416016,52.3897966 211.099609,53.0733903 212.207031,53.0733903 Z M225.701172,53.1280778 C229.091797,53.1280778 231.15625,50.708156 231.15625,46.6749528 L231.15625,44.6515153 C231.15625,40.6319841 229.105469,38.2120622 225.769531,38.2120622 C223.705078,38.2120622 222.023438,39.1964372 221.558594,40.7003435 L221.380859,40.7003435 L221.380859,35.176906 C221.380859,33.9054216 220.724609,33.1944841 219.576172,33.1944841 C218.427734,33.1944841 217.771484,33.9054216 217.771484,35.176906 L217.771484,51.0909685 C217.771484,52.3761247 218.414062,53.0733903 219.548828,53.0733903 C220.628906,53.0733903 221.3125,52.4444841 221.3125,51.3233903 L221.3125,50.7218278 L221.490234,50.7218278 C222.091797,52.2257341 223.677734,53.1280778 225.701172,53.1280778 Z M224.498047,50.2569841 C222.638672,50.2569841 221.380859,48.8214372 221.380859,46.6749528 L221.380859,44.8565935 C221.380859,42.5323747 222.556641,41.083156 224.457031,41.083156 C226.357422,41.083156 227.451172,42.5733903 227.451172,45.0753435 L227.451172,46.3468278 C227.451172,48.8214372 226.371094,50.2569841 224.498047,50.2569841 Z M240.521484,53.2511247 C242.394531,53.2511247 244.048828,52.7589372 245.005859,51.9522966 C245.689453,51.4601091 246.085938,50.8448747 246.085938,50.2022966 C246.085938,49.4093278 245.566406,48.8897966 244.814453,48.8897966 C244.253906,48.8897966 244.007812,49.0948747 243.310547,49.6280778 C242.667969,50.161281 241.875,50.4347185 240.753906,50.4347185 C238.607422,50.4347185 237.322266,49.1358903 237.308594,47.1124528 L237.308594,46.4835466 L244.650391,46.4835466 C246.003906,46.4835466 246.46875,45.9503435 246.46875,44.3233903 C246.46875,40.7413591 243.857422,38.1163591 240.166016,38.1163591 C236.269531,38.1163591 233.644531,40.7960466 233.644531,44.7608903 L233.644531,46.6339372 C233.644531,50.7491716 236.269531,53.2511247 240.521484,53.2511247 Z M243.023438,44.2003435 L237.308594,44.2003435 L237.308594,44.1729997 C237.308594,42.2179216 238.443359,40.9054216 240.220703,40.9054216 C241.929688,40.9054216 243.023438,42.1905778 243.023438,44.1729997 L243.023438,44.2003435 Z" id="subscribe" fill="#FFFFFF" fill-rule="nonzero"></path>
            </g>
            <path id="Line-2" d="M232.272798,110.251376 L233.954033,112.736019 L232.711711,113.576637 C213.834659,126.349803 204.5,138.53534 204.5,150.022868 C204.5,158.044397 209.04387,166.403682 218.244949,175.088438 L223.047455,168.879443 L232.266633,188.017279 L211.424857,183.909919 L216.401715,177.473183 C206.50597,168.197076 201.5,159.051169 201.5,150.022868 C201.5,137.434959 211.213491,124.627741 230.43897,111.494145 L231.030476,111.091994 L232.272798,110.251376 Z" fill="#FFFFFF" fill-rule="nonzero" opacity="0.991778286"></path>
            <path id="Line-2-Copy" d="M232.272798,298.97131 L233.954033,301.455952 L232.711711,302.29657 C213.834659,315.069736 204.5,327.255274 204.5,338.742801 C204.5,346.764331 209.04387,355.123615 218.244949,363.808371 L223.047455,357.599376 L232.266633,376.737212 L211.424857,372.629852 L216.401715,366.193117 C206.50597,356.917009 201.5,347.771102 201.5,338.742801 C201.5,326.154893 211.213491,313.347675 230.43897,300.214078 L231.030476,299.811927 L232.272798,298.97131 Z" fill="#FFFFFF" fill-rule="nonzero" opacity="0.991778286"></path>
            <path id="Line-2-Copy-2" d="M232.272798,487.691243 L233.954033,490.175886 L232.711711,491.016503 C213.834659,503.789669 204.5,515.975207 204.5,527.462734 C204.5,535.484264 209.04387,543.843549 218.244949,552.528305 L223.047455,546.319309 L232.266633,565.457145 L211.424857,561.349786 L216.401715,554.91305 C206.50597,545.636942 201.5,536.491035 201.5,527.462734 C201.5,514.874826 211.213491,502.067608 230.43897,488.934011 L231.030476,488.53186 L232.272798,487.691243 Z" fill="#FFFFFF" fill-rule="nonzero" opacity="0.991778286"></path>
            <path d="M239.223633,159.507603 C243.095703,159.507603 245.177734,156.866978 245.177734,153.083774 L245.177734,152.004673 C245.177734,148.348423 243.083008,145.631626 239.223633,145.631626 C235.364258,145.631626 233.244141,148.361118 233.244141,152.004673 L233.244141,153.083774 C233.244141,156.866978 235.351562,159.507603 239.223633,159.507603 Z M239.223633,157.235142 C237.116211,157.235142 236.087891,155.470493 236.087891,153.071079 L236.087891,152.042759 C236.087891,149.605259 237.128906,147.891392 239.223633,147.891392 C241.318359,147.891392 242.34668,149.592563 242.34668,152.042759 L242.34668,153.071079 C242.34668,155.483188 241.331055,157.235142 239.223633,157.235142 Z M252.706055,159.482212 C254.889648,159.482212 256.133789,158.466587 256.578125,157.412876 L256.705078,157.412876 L256.705078,159.279087 L259.472656,159.279087 L259.472656,145.860142 L256.654297,145.860142 L256.654297,153.972446 C256.654297,155.96561 255.410156,157.044712 253.72168,157.044712 C252.210938,157.044712 250.865234,156.359165 250.865234,154.010532 L250.865234,145.860142 L248.046875,145.860142 L248.046875,154.784946 C248.046875,157.895298 249.951172,159.482212 252.706055,159.482212 Z M268.130859,159.367954 C268.702148,159.367954 269.235352,159.317173 269.463867,159.279087 L269.463867,157.120884 C269.298828,157.146274 269.070312,157.146274 268.829102,157.146274 C267.318359,157.146274 266.772461,156.740024 266.772461,155.280063 L266.772461,148.119907 L269.387695,148.119907 L269.387695,145.860142 L266.772461,145.860142 L266.772461,142.597446 L264.004883,142.597446 L264.004883,145.860142 L262.113281,145.860142 L262.113281,148.119907 L263.966797,148.119907 L263.966797,155.508579 C263.966797,158.199985 264.868164,159.367954 268.130859,159.367954 Z M275.329102,163.735142 L275.329102,157.412876 L275.430664,157.412876 C276.141602,158.644321 277.461914,159.469517 279.201172,159.469517 C282.298828,159.469517 284.418945,157.146274 284.418945,153.159946 L284.418945,151.966587 C284.418945,147.954868 282.273438,145.682407 279.264648,145.682407 C277.461914,145.682407 276.09082,146.545688 275.354492,147.827915 L275.25293,147.827915 L275.25293,145.860142 L272.510742,145.860142 L272.510742,163.735142 L275.329102,163.735142 Z M278.553711,157.146274 C276.547852,157.146274 275.303711,155.546665 275.303711,153.007603 L275.303711,152.055454 C275.303711,149.579868 276.535156,147.980259 278.50293,147.980259 C280.419922,147.980259 281.5625,149.46561 281.5625,152.068149 L281.5625,153.007603 C281.5625,155.711704 280.34375,157.146274 278.553711,157.146274 Z M291.959961,159.482212 C294.143555,159.482212 295.387695,158.466587 295.832031,157.412876 L295.958984,157.412876 L295.958984,159.279087 L298.726562,159.279087 L298.726562,145.860142 L295.908203,145.860142 L295.908203,153.972446 C295.908203,155.96561 294.664062,157.044712 292.975586,157.044712 C291.464844,157.044712 290.119141,156.359165 290.119141,154.010532 L290.119141,145.860142 L287.300781,145.860142 L287.300781,154.784946 C287.300781,157.895298 289.205078,159.482212 291.959961,159.482212 Z M307.384766,159.367954 C307.956055,159.367954 308.489258,159.317173 308.717773,159.279087 L308.717773,157.120884 C308.552734,157.146274 308.324219,157.146274 308.083008,157.146274 C306.572266,157.146274 306.026367,156.740024 306.026367,155.280063 L306.026367,148.119907 L308.641602,148.119907 L308.641602,145.860142 L306.026367,145.860142 L306.026367,142.597446 L303.258789,142.597446 L303.258789,145.860142 L301.367188,145.860142 L301.367188,148.119907 L303.220703,148.119907 L303.220703,155.508579 C303.220703,158.199985 304.12207,159.367954 307.384766,159.367954 Z M313.186523,150.735142 C314.138672,150.735142 314.925781,149.948032 314.925781,148.995884 C314.925781,148.043735 314.138672,147.256626 313.186523,147.256626 C312.22168,147.256626 311.447266,148.043735 311.447266,148.995884 C311.447266,149.948032 312.22168,150.735142 313.186523,150.735142 Z M313.186523,159.545688 C314.138672,159.545688 314.925781,158.758579 314.925781,157.793735 C314.925781,156.841587 314.138672,156.054478 313.186523,156.054478 C312.22168,156.054478 311.447266,156.841587 311.447266,157.793735 C311.447266,158.758579 312.22168,159.545688 313.186523,159.545688 Z M335.390625,159.545688 C336.342773,159.545688 337.129883,158.758579 337.129883,157.793735 C337.129883,156.841587 336.342773,156.054478 335.390625,156.054478 C334.425781,156.054478 333.651367,156.841587 333.651367,157.793735 C333.651367,158.758579 334.425781,159.545688 335.390625,159.545688 Z M343.249023,163.735142 L343.249023,157.412876 L343.350586,157.412876 C344.061523,158.644321 345.381836,159.469517 347.121094,159.469517 C350.21875,159.469517 352.338867,157.146274 352.338867,153.159946 L352.338867,151.966587 C352.338867,147.954868 350.193359,145.682407 347.18457,145.682407 C345.381836,145.682407 344.010742,146.545688 343.274414,147.827915 L343.172852,147.827915 L343.172852,145.860142 L340.430664,145.860142 L340.430664,163.735142 L343.249023,163.735142 Z M346.473633,157.146274 C344.467773,157.146274 343.223633,155.546665 343.223633,153.007603 L343.223633,152.055454 C343.223633,149.579868 344.455078,147.980259 346.422852,147.980259 C348.339844,147.980259 349.482422,149.46561 349.482422,152.068149 L349.482422,153.007603 C349.482422,155.711704 348.263672,157.146274 346.473633,157.146274 Z M360.832031,159.507603 C364.704102,159.507603 366.786133,156.866978 366.786133,153.083774 L366.786133,152.004673 C366.786133,148.348423 364.691406,145.631626 360.832031,145.631626 C356.972656,145.631626 354.852539,148.361118 354.852539,152.004673 L354.852539,153.083774 C354.852539,156.866978 356.959961,159.507603 360.832031,159.507603 Z M360.832031,157.235142 C358.724609,157.235142 357.696289,155.470493 357.696289,153.071079 L357.696289,152.042759 C357.696289,149.605259 358.737305,147.891392 360.832031,147.891392 C362.926758,147.891392 363.955078,149.592563 363.955078,152.042759 L363.955078,153.071079 C363.955078,155.483188 362.939453,157.235142 360.832031,157.235142 Z M372.689453,159.279087 L372.689453,151.331821 C372.689453,149.529087 373.451172,148.132603 375.710938,148.132603 C376.180664,148.132603 376.675781,148.170688 376.916992,148.234165 L376.916992,145.745884 C376.650391,145.695103 376.333008,145.669712 375.964844,145.669712 C374.098633,145.669712 373.095703,146.786899 372.75293,147.62479 L372.651367,147.62479 L372.651367,145.860142 L369.833008,145.860142 L369.833008,159.279087 L372.689453,159.279087 Z M384.991211,159.367954 C385.5625,159.367954 386.095703,159.317173 386.324219,159.279087 L386.324219,157.120884 C386.15918,157.146274 385.930664,157.146274 385.689453,157.146274 C384.178711,157.146274 383.632812,156.740024 383.632812,155.280063 L383.632812,148.119907 L386.248047,148.119907 L386.248047,145.860142 L383.632812,145.860142 L383.632812,142.597446 L380.865234,142.597446 L380.865234,145.860142 L378.973633,145.860142 L378.973633,148.119907 L380.827148,148.119907 L380.827148,155.508579 C380.827148,158.199985 381.728516,159.367954 384.991211,159.367954 Z M392.202148,159.279087 L392.202148,151.331821 C392.202148,149.529087 392.963867,148.132603 395.223633,148.132603 C395.693359,148.132603 396.188477,148.170688 396.429688,148.234165 L396.429688,145.745884 C396.163086,145.695103 395.845703,145.669712 395.477539,145.669712 C393.611328,145.669712 392.608398,146.786899 392.265625,147.62479 L392.164062,147.62479 L392.164062,145.860142 L389.345703,145.860142 L389.345703,159.279087 L392.202148,159.279087 Z M402.294922,159.482212 C404.275391,159.482212 405.456055,158.657017 406.040039,157.628696 L406.141602,157.628696 L406.141602,159.279087 L408.820312,159.279087 L408.820312,150.138462 C408.820312,147.142368 406.598633,145.657017 403.615234,145.657017 C400.035156,145.657017 398.511719,147.561313 398.397461,149.84647 L401.038086,149.84647 C401.139648,148.65311 402.015625,147.853306 403.551758,147.853306 C405.125977,147.853306 406.040039,148.703892 406.040039,150.240024 L406.040039,151.522251 L402.637695,151.522251 C399.552734,151.522251 397.902344,153.032993 397.902344,155.419712 C397.902344,157.920688 399.692383,159.482212 402.294922,159.482212 Z M403.145508,157.336704 C401.901367,157.336704 400.733398,156.663853 400.733398,155.267368 C400.733398,154.150181 401.482422,153.375767 403.120117,153.375767 L406.040039,153.375767 L406.040039,154.861118 C406.040039,156.321079 404.783203,157.336704 403.145508,157.336704 Z M413.822266,144.171665 C414.736328,144.171665 415.485352,143.511509 415.485352,142.584751 C415.485352,141.657993 414.736328,140.985142 413.822266,140.985142 C412.908203,140.985142 412.146484,141.657993 412.146484,142.584751 C412.146484,143.511509 412.908203,144.171665 413.822266,144.171665 Z M415.231445,159.279087 L415.231445,145.860142 L412.413086,145.860142 L412.413086,159.279087 L415.231445,159.279087 Z M423.953125,159.367954 C424.524414,159.367954 425.057617,159.317173 425.286133,159.279087 L425.286133,157.120884 C425.121094,157.146274 424.892578,157.146274 424.651367,157.146274 C423.140625,157.146274 422.594727,156.740024 422.594727,155.280063 L422.594727,148.119907 L425.209961,148.119907 L425.209961,145.860142 L422.594727,145.860142 L422.594727,142.597446 L419.827148,142.597446 L419.827148,145.860142 L417.935547,145.860142 L417.935547,148.119907 L419.789062,148.119907 L419.789062,155.508579 C419.789062,158.199985 420.69043,159.367954 423.953125,159.367954 Z M429.335938,162.998813 L431.265625,156.613071 L428.536133,156.613071 L427.291992,162.998813 L429.335938,162.998813 Z M451.095703,159.545688 C452.047852,159.545688 452.834961,158.758579 452.834961,157.793735 C452.834961,156.841587 452.047852,156.054478 451.095703,156.054478 C450.130859,156.054478 449.356445,156.841587 449.356445,157.793735 C449.356445,158.758579 450.130859,159.545688 451.095703,159.545688 Z M459.017578,159.279087 L459.017578,141.035923 L456.199219,141.035923 L456.199219,159.279087 L459.017578,159.279087 Z M466.355469,159.482212 C468.335938,159.482212 469.516602,158.657017 470.100586,157.628696 L470.202148,157.628696 L470.202148,159.279087 L472.880859,159.279087 L472.880859,150.138462 C472.880859,147.142368 470.65918,145.657017 467.675781,145.657017 C464.095703,145.657017 462.572266,147.561313 462.458008,149.84647 L465.098633,149.84647 C465.200195,148.65311 466.076172,147.853306 467.612305,147.853306 C469.186523,147.853306 470.100586,148.703892 470.100586,150.240024 L470.100586,151.522251 L466.698242,151.522251 C463.613281,151.522251 461.962891,153.032993 461.962891,155.419712 C461.962891,157.920688 463.75293,159.482212 466.355469,159.482212 Z M467.206055,157.336704 C465.961914,157.336704 464.793945,156.663853 464.793945,155.267368 C464.793945,154.150181 465.542969,153.375767 467.180664,153.375767 L470.100586,153.375767 L470.100586,154.861118 C470.100586,156.321079 468.84375,157.336704 467.206055,157.336704 Z M479.152344,159.279087 L479.152344,151.28104 C479.152344,149.516392 480.117188,148.107212 482.097656,148.107212 C483.773438,148.107212 485.017578,149.072056 485.017578,151.230259 L485.017578,159.279087 L487.823242,159.279087 L487.823242,150.65897 C487.823242,147.383579 485.855469,145.657017 483.113281,145.657017 C480.904297,145.657017 479.672852,146.850376 479.21582,147.739048 L479.114258,147.739048 L479.114258,145.860142 L476.34668,145.860142 L476.34668,159.279087 L479.152344,159.279087 Z M495.935547,159.456821 C497.738281,159.456821 499.147461,158.606235 499.833008,157.235142 L499.93457,157.235142 L499.93457,159.279087 L502.676758,159.279087 L502.676758,141.035923 L499.858398,141.035923 L499.858398,147.777134 L499.756836,147.777134 C499.12207,146.558384 497.725586,145.682407 495.935547,145.682407 C492.647461,145.682407 490.692383,148.234165 490.692383,151.979282 L490.692383,153.147251 C490.692383,156.96854 492.558594,159.456821 495.935547,159.456821 Z M496.671875,157.146274 C494.869141,157.146274 493.561523,155.800571 493.561523,153.071079 L493.561523,152.080845 C493.561523,149.351353 494.869141,148.005649 496.646484,148.005649 C498.639648,148.005649 499.883789,149.567173 499.883789,152.080845 L499.883789,153.083774 C499.883789,155.699009 498.652344,157.146274 496.671875,157.146274 Z M510.814453,159.507603 C514.191406,159.507603 516.349609,157.933384 516.349609,155.216587 C516.349609,152.677524 514.394531,151.90311 511.90625,151.458774 C510.382812,151.179478 508.516602,150.912876 508.516602,149.503696 C508.516602,148.373813 509.494141,147.726353 510.928711,147.726353 C512.756836,147.726353 513.34082,148.767368 513.429688,149.706821 L515.96875,149.706821 C515.96875,147.332798 514.178711,145.631626 511.004883,145.631626 C508.288086,145.631626 505.8125,146.875767 505.8125,149.782993 C505.8125,152.233188 507.805664,153.071079 510.255859,153.591587 C512.045898,153.947056 513.607422,154.175571 513.607422,155.572056 C513.607422,156.56229 512.782227,157.412876 510.992188,157.412876 C509.405273,157.412876 508.453125,156.676548 508.300781,155.584751 L505.558594,155.584751 C505.558594,157.984165 507.589844,159.507603 510.814453,159.507603 Z M524.423828,159.507603 C527.546875,159.507603 529.489258,157.907993 529.844727,155.229282 L527.178711,155.229282 C526.988281,156.270298 526.150391,157.171665 524.588867,157.171665 C522.671875,157.171665 521.46582,155.597446 521.46582,153.109165 L521.46582,151.966587 C521.46582,149.491001 522.621094,147.967563 524.576172,147.967563 C525.90918,147.967563 526.874023,148.957798 527.102539,150.087681 L529.768555,150.087681 C529.666992,147.739048 527.686523,145.631626 524.423828,145.631626 C520.792969,145.631626 518.634766,148.234165 518.634766,151.90311 L518.634766,153.109165 C518.634766,156.866978 520.780273,159.507603 524.423828,159.507603 Z M536.255859,159.482212 C538.236328,159.482212 539.416992,158.657017 540.000977,157.628696 L540.102539,157.628696 L540.102539,159.279087 L542.78125,159.279087 L542.78125,150.138462 C542.78125,147.142368 540.55957,145.657017 537.576172,145.657017 C533.996094,145.657017 532.472656,147.561313 532.358398,149.84647 L534.999023,149.84647 C535.100586,148.65311 535.976562,147.853306 537.512695,147.853306 C539.086914,147.853306 540.000977,148.703892 540.000977,150.240024 L540.000977,151.522251 L536.598633,151.522251 C533.513672,151.522251 531.863281,153.032993 531.863281,155.419712 C531.863281,157.920688 533.65332,159.482212 536.255859,159.482212 Z M537.106445,157.336704 C535.862305,157.336704 534.694336,156.663853 534.694336,155.267368 C534.694336,154.150181 535.443359,153.375767 537.081055,153.375767 L540.000977,153.375767 L540.000977,154.861118 C540.000977,156.321079 538.744141,157.336704 537.106445,157.336704 Z M549.09082,163.735142 L549.09082,157.412876 L549.192383,157.412876 C549.90332,158.644321 551.223633,159.469517 552.962891,159.469517 C556.060547,159.469517 558.180664,157.146274 558.180664,153.159946 L558.180664,151.966587 C558.180664,147.954868 556.035156,145.682407 553.026367,145.682407 C551.223633,145.682407 549.852539,146.545688 549.116211,147.827915 L549.014648,147.827915 L549.014648,145.860142 L546.272461,145.860142 L546.272461,163.735142 L549.09082,163.735142 Z M552.31543,157.146274 C550.30957,157.146274 549.06543,155.546665 549.06543,153.007603 L549.06543,152.055454 C549.06543,149.579868 550.296875,147.980259 552.264648,147.980259 C554.181641,147.980259 555.324219,149.46561 555.324219,152.068149 L555.324219,153.007603 C555.324219,155.711704 554.105469,157.146274 552.31543,157.146274 Z M566.572266,159.507603 C569.885742,159.507603 571.637695,157.59061 572.043945,155.419712 L569.365234,155.419712 C569.022461,156.574985 568.044922,157.285923 566.610352,157.285923 C564.693359,157.285923 563.474609,155.787876 563.474609,153.52811 L563.474609,153.210728 L572.196289,153.210728 L572.196289,151.928501 C572.196289,148.145298 570.038086,145.631626 566.458008,145.631626 C562.928711,145.631626 560.694336,148.056431 560.694336,151.801548 L560.694336,153.159946 C560.694336,157.133579 562.979492,159.507603 566.572266,159.507603 Z M569.441406,151.242954 L563.474609,151.242954 L563.474609,151.217563 C563.474609,149.313267 564.655273,147.81522 566.470703,147.81522 C568.260742,147.81522 569.441406,149.313267 569.441406,151.217563 L569.441406,151.242954 Z M575.966797,162.998813 L577.896484,156.613071 L575.166992,156.613071 L573.922852,162.998813 L575.966797,162.998813 Z M597.726562,159.545688 C598.678711,159.545688 599.46582,158.758579 599.46582,157.793735 C599.46582,156.841587 598.678711,156.054478 597.726562,156.054478 C596.761719,156.054478 595.987305,156.841587 595.987305,157.793735 C595.987305,158.758579 596.761719,159.545688 597.726562,159.545688 Z M605.584961,163.735142 L605.584961,157.412876 L605.686523,157.412876 C606.397461,158.644321 607.717773,159.469517 609.457031,159.469517 C612.554688,159.469517 614.674805,157.146274 614.674805,153.159946 L614.674805,151.966587 C614.674805,147.954868 612.529297,145.682407 609.520508,145.682407 C607.717773,145.682407 606.34668,146.545688 605.610352,147.827915 L605.508789,147.827915 L605.508789,145.860142 L602.766602,145.860142 L602.766602,163.735142 L605.584961,163.735142 Z M608.80957,157.146274 C606.803711,157.146274 605.55957,155.546665 605.55957,153.007603 L605.55957,152.055454 C605.55957,149.579868 606.791016,147.980259 608.758789,147.980259 C610.675781,147.980259 611.818359,149.46561 611.818359,152.068149 L611.818359,153.007603 C611.818359,155.711704 610.599609,157.146274 608.80957,157.146274 Z M623.167969,159.507603 C627.040039,159.507603 629.12207,156.866978 629.12207,153.083774 L629.12207,152.004673 C629.12207,148.348423 627.027344,145.631626 623.167969,145.631626 C619.308594,145.631626 617.188477,148.361118 617.188477,152.004673 L617.188477,153.083774 C617.188477,156.866978 619.295898,159.507603 623.167969,159.507603 Z M623.167969,157.235142 C621.060547,157.235142 620.032227,155.470493 620.032227,153.071079 L620.032227,152.042759 C620.032227,149.605259 621.073242,147.891392 623.167969,147.891392 C625.262695,147.891392 626.291016,149.592563 626.291016,152.042759 L626.291016,153.071079 C626.291016,155.483188 625.275391,157.235142 623.167969,157.235142 Z M635.025391,159.279087 L635.025391,151.331821 C635.025391,149.529087 635.787109,148.132603 638.046875,148.132603 C638.516602,148.132603 639.011719,148.170688 639.25293,148.234165 L639.25293,145.745884 C638.986328,145.695103 638.668945,145.669712 638.300781,145.669712 C636.43457,145.669712 635.431641,146.786899 635.088867,147.62479 L634.987305,147.62479 L634.987305,145.860142 L632.168945,145.860142 L632.168945,159.279087 L635.025391,159.279087 Z M647.327148,159.367954 C647.898438,159.367954 648.431641,159.317173 648.660156,159.279087 L648.660156,157.120884 C648.495117,157.146274 648.266602,157.146274 648.025391,157.146274 C646.514648,157.146274 645.96875,156.740024 645.96875,155.280063 L645.96875,148.119907 L648.583984,148.119907 L648.583984,145.860142 L645.96875,145.860142 L645.96875,142.597446 L643.201172,142.597446 L643.201172,145.860142 L641.30957,145.860142 L641.30957,148.119907 L643.163086,148.119907 L643.163086,155.508579 C643.163086,158.199985 644.064453,159.367954 647.327148,159.367954 Z M654.538086,159.279087 L654.538086,151.331821 C654.538086,149.529087 655.299805,148.132603 657.55957,148.132603 C658.029297,148.132603 658.524414,148.170688 658.765625,148.234165 L658.765625,145.745884 C658.499023,145.695103 658.181641,145.669712 657.813477,145.669712 C655.947266,145.669712 654.944336,146.786899 654.601562,147.62479 L654.5,147.62479 L654.5,145.860142 L651.681641,145.860142 L651.681641,159.279087 L654.538086,159.279087 Z M664.630859,159.482212 C666.611328,159.482212 667.791992,158.657017 668.375977,157.628696 L668.477539,157.628696 L668.477539,159.279087 L671.15625,159.279087 L671.15625,150.138462 C671.15625,147.142368 668.93457,145.657017 665.951172,145.657017 C662.371094,145.657017 660.847656,147.561313 660.733398,149.84647 L663.374023,149.84647 C663.475586,148.65311 664.351562,147.853306 665.887695,147.853306 C667.461914,147.853306 668.375977,148.703892 668.375977,150.240024 L668.375977,151.522251 L664.973633,151.522251 C661.888672,151.522251 660.238281,153.032993 660.238281,155.419712 C660.238281,157.920688 662.02832,159.482212 664.630859,159.482212 Z M665.481445,157.336704 C664.237305,157.336704 663.069336,156.663853 663.069336,155.267368 C663.069336,154.150181 663.818359,153.375767 665.456055,153.375767 L668.375977,153.375767 L668.375977,154.861118 C668.375977,156.321079 667.119141,157.336704 665.481445,157.336704 Z M676.158203,144.171665 C677.072266,144.171665 677.821289,143.511509 677.821289,142.584751 C677.821289,141.657993 677.072266,140.985142 676.158203,140.985142 C675.244141,140.985142 674.482422,141.657993 674.482422,142.584751 C674.482422,143.511509 675.244141,144.171665 676.158203,144.171665 Z M677.567383,159.279087 L677.567383,145.860142 L674.749023,145.860142 L674.749023,159.279087 L677.567383,159.279087 Z M686.289062,159.367954 C686.860352,159.367954 687.393555,159.317173 687.62207,159.279087 L687.62207,157.120884 C687.457031,157.146274 687.228516,157.146274 686.987305,157.146274 C685.476562,157.146274 684.930664,156.740024 684.930664,155.280063 L684.930664,148.119907 L687.545898,148.119907 L687.545898,145.860142 L684.930664,145.860142 L684.930664,142.597446 L682.163086,142.597446 L682.163086,145.860142 L680.271484,145.860142 L680.271484,148.119907 L682.125,148.119907 L682.125,155.508579 C682.125,158.199985 683.026367,159.367954 686.289062,159.367954 Z" id="output:.portrait,.landscape,.portrait" fill="#FFFFFF" fill-rule="nonzero"></path>
            <path d="M239.223633,348.229252 C243.095703,348.229252 245.177734,345.588627 245.177734,341.805424 L245.177734,340.726322 C245.177734,337.070072 243.083008,334.353275 239.223633,334.353275 C235.364258,334.353275 233.244141,337.082768 233.244141,340.726322 L233.244141,341.805424 C233.244141,345.588627 235.351562,348.229252 239.223633,348.229252 Z M239.223633,345.956791 C237.116211,345.956791 236.087891,344.192143 236.087891,341.792729 L236.087891,340.764408 C236.087891,338.326908 237.128906,336.613041 239.223633,336.613041 C241.318359,336.613041 242.34668,338.314213 242.34668,340.764408 L242.34668,341.792729 C242.34668,344.204838 241.331055,345.956791 239.223633,345.956791 Z M252.706055,348.203861 C254.889648,348.203861 256.133789,347.188236 256.578125,346.134525 L256.705078,346.134525 L256.705078,348.000736 L259.472656,348.000736 L259.472656,334.581791 L256.654297,334.581791 L256.654297,342.694096 C256.654297,344.68726 255.410156,345.766361 253.72168,345.766361 C252.210938,345.766361 250.865234,345.080815 250.865234,342.732182 L250.865234,334.581791 L248.046875,334.581791 L248.046875,343.506596 C248.046875,346.616947 249.951172,348.203861 252.706055,348.203861 Z M268.130859,348.089604 C268.702148,348.089604 269.235352,348.038822 269.463867,348.000736 L269.463867,345.842533 C269.298828,345.867924 269.070312,345.867924 268.829102,345.867924 C267.318359,345.867924 266.772461,345.461674 266.772461,344.001713 L266.772461,336.841557 L269.387695,336.841557 L269.387695,334.581791 L266.772461,334.581791 L266.772461,331.319096 L264.004883,331.319096 L264.004883,334.581791 L262.113281,334.581791 L262.113281,336.841557 L263.966797,336.841557 L263.966797,344.230229 C263.966797,346.921635 264.868164,348.089604 268.130859,348.089604 Z M275.329102,352.456791 L275.329102,346.134525 L275.430664,346.134525 C276.141602,347.365971 277.461914,348.191166 279.201172,348.191166 C282.298828,348.191166 284.418945,345.867924 284.418945,341.881596 L284.418945,340.688236 C284.418945,336.676518 282.273438,334.404057 279.264648,334.404057 C277.461914,334.404057 276.09082,335.267338 275.354492,336.549565 L275.25293,336.549565 L275.25293,334.581791 L272.510742,334.581791 L272.510742,352.456791 L275.329102,352.456791 Z M278.553711,345.867924 C276.547852,345.867924 275.303711,344.268315 275.303711,341.729252 L275.303711,340.777104 C275.303711,338.301518 276.535156,336.701908 278.50293,336.701908 C280.419922,336.701908 281.5625,338.18726 281.5625,340.789799 L281.5625,341.729252 C281.5625,344.433354 280.34375,345.867924 278.553711,345.867924 Z M291.959961,348.203861 C294.143555,348.203861 295.387695,347.188236 295.832031,346.134525 L295.958984,346.134525 L295.958984,348.000736 L298.726562,348.000736 L298.726562,334.581791 L295.908203,334.581791 L295.908203,342.694096 C295.908203,344.68726 294.664062,345.766361 292.975586,345.766361 C291.464844,345.766361 290.119141,345.080815 290.119141,342.732182 L290.119141,334.581791 L287.300781,334.581791 L287.300781,343.506596 C287.300781,346.616947 289.205078,348.203861 291.959961,348.203861 Z M307.384766,348.089604 C307.956055,348.089604 308.489258,348.038822 308.717773,348.000736 L308.717773,345.842533 C308.552734,345.867924 308.324219,345.867924 308.083008,345.867924 C306.572266,345.867924 306.026367,345.461674 306.026367,344.001713 L306.026367,336.841557 L308.641602,336.841557 L308.641602,334.581791 L306.026367,334.581791 L306.026367,331.319096 L303.258789,331.319096 L303.258789,334.581791 L301.367188,334.581791 L301.367188,336.841557 L303.220703,336.841557 L303.220703,344.230229 C303.220703,346.921635 304.12207,348.089604 307.384766,348.089604 Z M313.186523,339.456791 C314.138672,339.456791 314.925781,338.669682 314.925781,337.717533 C314.925781,336.765385 314.138672,335.978275 313.186523,335.978275 C312.22168,335.978275 311.447266,336.765385 311.447266,337.717533 C311.447266,338.669682 312.22168,339.456791 313.186523,339.456791 Z M313.186523,348.267338 C314.138672,348.267338 314.925781,347.480229 314.925781,346.515385 C314.925781,345.563236 314.138672,344.776127 313.186523,344.776127 C312.22168,344.776127 311.447266,345.563236 311.447266,346.515385 C311.447266,347.480229 312.22168,348.267338 313.186523,348.267338 Z M335.390625,348.267338 C336.342773,348.267338 337.129883,347.480229 337.129883,346.515385 C337.129883,345.563236 336.342773,344.776127 335.390625,344.776127 C334.425781,344.776127 333.651367,345.563236 333.651367,346.515385 C333.651367,347.480229 334.425781,348.267338 335.390625,348.267338 Z M343.249023,352.456791 L343.249023,346.134525 L343.350586,346.134525 C344.061523,347.365971 345.381836,348.191166 347.121094,348.191166 C350.21875,348.191166 352.338867,345.867924 352.338867,341.881596 L352.338867,340.688236 C352.338867,336.676518 350.193359,334.404057 347.18457,334.404057 C345.381836,334.404057 344.010742,335.267338 343.274414,336.549565 L343.172852,336.549565 L343.172852,334.581791 L340.430664,334.581791 L340.430664,352.456791 L343.249023,352.456791 Z M346.473633,345.867924 C344.467773,345.867924 343.223633,344.268315 343.223633,341.729252 L343.223633,340.777104 C343.223633,338.301518 344.455078,336.701908 346.422852,336.701908 C348.339844,336.701908 349.482422,338.18726 349.482422,340.789799 L349.482422,341.729252 C349.482422,344.433354 348.263672,345.867924 346.473633,345.867924 Z M360.832031,348.229252 C364.704102,348.229252 366.786133,345.588627 366.786133,341.805424 L366.786133,340.726322 C366.786133,337.070072 364.691406,334.353275 360.832031,334.353275 C356.972656,334.353275 354.852539,337.082768 354.852539,340.726322 L354.852539,341.805424 C354.852539,345.588627 356.959961,348.229252 360.832031,348.229252 Z M360.832031,345.956791 C358.724609,345.956791 357.696289,344.192143 357.696289,341.792729 L357.696289,340.764408 C357.696289,338.326908 358.737305,336.613041 360.832031,336.613041 C362.926758,336.613041 363.955078,338.314213 363.955078,340.764408 L363.955078,341.792729 C363.955078,344.204838 362.939453,345.956791 360.832031,345.956791 Z M372.689453,348.000736 L372.689453,340.053471 C372.689453,338.250736 373.451172,336.854252 375.710938,336.854252 C376.180664,336.854252 376.675781,336.892338 376.916992,336.955815 L376.916992,334.467533 C376.650391,334.416752 376.333008,334.391361 375.964844,334.391361 C374.098633,334.391361 373.095703,335.508549 372.75293,336.34644 L372.651367,336.34644 L372.651367,334.581791 L369.833008,334.581791 L369.833008,348.000736 L372.689453,348.000736 Z M384.991211,348.089604 C385.5625,348.089604 386.095703,348.038822 386.324219,348.000736 L386.324219,345.842533 C386.15918,345.867924 385.930664,345.867924 385.689453,345.867924 C384.178711,345.867924 383.632812,345.461674 383.632812,344.001713 L383.632812,336.841557 L386.248047,336.841557 L386.248047,334.581791 L383.632812,334.581791 L383.632812,331.319096 L380.865234,331.319096 L380.865234,334.581791 L378.973633,334.581791 L378.973633,336.841557 L380.827148,336.841557 L380.827148,344.230229 C380.827148,346.921635 381.728516,348.089604 384.991211,348.089604 Z M392.202148,348.000736 L392.202148,340.053471 C392.202148,338.250736 392.963867,336.854252 395.223633,336.854252 C395.693359,336.854252 396.188477,336.892338 396.429688,336.955815 L396.429688,334.467533 C396.163086,334.416752 395.845703,334.391361 395.477539,334.391361 C393.611328,334.391361 392.608398,335.508549 392.265625,336.34644 L392.164062,336.34644 L392.164062,334.581791 L389.345703,334.581791 L389.345703,348.000736 L392.202148,348.000736 Z M402.294922,348.203861 C404.275391,348.203861 405.456055,347.378666 406.040039,346.350346 L406.141602,346.350346 L406.141602,348.000736 L408.820312,348.000736 L408.820312,338.860111 C408.820312,335.864018 406.598633,334.378666 403.615234,334.378666 C400.035156,334.378666 398.511719,336.282963 398.397461,338.568119 L401.038086,338.568119 C401.139648,337.37476 402.015625,336.574955 403.551758,336.574955 C405.125977,336.574955 406.040039,337.425541 406.040039,338.961674 L406.040039,340.2439 L402.637695,340.2439 C399.552734,340.2439 397.902344,341.754643 397.902344,344.141361 C397.902344,346.642338 399.692383,348.203861 402.294922,348.203861 Z M403.145508,346.058354 C401.901367,346.058354 400.733398,345.385502 400.733398,343.989018 C400.733398,342.87183 401.482422,342.097416 403.120117,342.097416 L406.040039,342.097416 L406.040039,343.582768 C406.040039,345.042729 404.783203,346.058354 403.145508,346.058354 Z M413.822266,332.893315 C414.736328,332.893315 415.485352,332.233158 415.485352,331.3064 C415.485352,330.379643 414.736328,329.706791 413.822266,329.706791 C412.908203,329.706791 412.146484,330.379643 412.146484,331.3064 C412.146484,332.233158 412.908203,332.893315 413.822266,332.893315 Z M415.231445,348.000736 L415.231445,334.581791 L412.413086,334.581791 L412.413086,348.000736 L415.231445,348.000736 Z M423.953125,348.089604 C424.524414,348.089604 425.057617,348.038822 425.286133,348.000736 L425.286133,345.842533 C425.121094,345.867924 424.892578,345.867924 424.651367,345.867924 C423.140625,345.867924 422.594727,345.461674 422.594727,344.001713 L422.594727,336.841557 L425.209961,336.841557 L425.209961,334.581791 L422.594727,334.581791 L422.594727,331.319096 L419.827148,331.319096 L419.827148,334.581791 L417.935547,334.581791 L417.935547,336.841557 L419.789062,336.841557 L419.789062,344.230229 C419.789062,346.921635 420.69043,348.089604 423.953125,348.089604 Z M429.335938,351.720463 L431.265625,345.334721 L428.536133,345.334721 L427.291992,351.720463 L429.335938,351.720463 Z M451.095703,348.267338 C452.047852,348.267338 452.834961,347.480229 452.834961,346.515385 C452.834961,345.563236 452.047852,344.776127 451.095703,344.776127 C450.130859,344.776127 449.356445,345.563236 449.356445,346.515385 C449.356445,347.480229 450.130859,348.267338 451.095703,348.267338 Z M458.954102,352.456791 L458.954102,346.134525 L459.055664,346.134525 C459.766602,347.365971 461.086914,348.191166 462.826172,348.191166 C465.923828,348.191166 468.043945,345.867924 468.043945,341.881596 L468.043945,340.688236 C468.043945,336.676518 465.898438,334.404057 462.889648,334.404057 C461.086914,334.404057 459.71582,335.267338 458.979492,336.549565 L458.87793,336.549565 L458.87793,334.581791 L456.135742,334.581791 L456.135742,352.456791 L458.954102,352.456791 Z M462.178711,345.867924 C460.172852,345.867924 458.928711,344.268315 458.928711,341.729252 L458.928711,340.777104 C458.928711,338.301518 460.160156,336.701908 462.12793,336.701908 C464.044922,336.701908 465.1875,338.18726 465.1875,340.789799 L465.1875,341.729252 C465.1875,344.433354 463.96875,345.867924 462.178711,345.867924 Z M476.537109,348.229252 C480.40918,348.229252 482.491211,345.588627 482.491211,341.805424 L482.491211,340.726322 C482.491211,337.070072 480.396484,334.353275 476.537109,334.353275 C472.677734,334.353275 470.557617,337.082768 470.557617,340.726322 L470.557617,341.805424 C470.557617,345.588627 472.665039,348.229252 476.537109,348.229252 Z M476.537109,345.956791 C474.429688,345.956791 473.401367,344.192143 473.401367,341.792729 L473.401367,340.764408 C473.401367,338.326908 474.442383,336.613041 476.537109,336.613041 C478.631836,336.613041 479.660156,338.314213 479.660156,340.764408 L479.660156,341.792729 C479.660156,344.204838 478.644531,345.956791 476.537109,345.956791 Z M488.394531,348.000736 L488.394531,340.053471 C488.394531,338.250736 489.15625,336.854252 491.416016,336.854252 C491.885742,336.854252 492.380859,336.892338 492.62207,336.955815 L492.62207,334.467533 C492.355469,334.416752 492.038086,334.391361 491.669922,334.391361 C489.803711,334.391361 488.800781,335.508549 488.458008,336.34644 L488.356445,336.34644 L488.356445,334.581791 L485.538086,334.581791 L485.538086,348.000736 L488.394531,348.000736 Z M500.696289,348.089604 C501.267578,348.089604 501.800781,348.038822 502.029297,348.000736 L502.029297,345.842533 C501.864258,345.867924 501.635742,345.867924 501.394531,345.867924 C499.883789,345.867924 499.337891,345.461674 499.337891,344.001713 L499.337891,336.841557 L501.953125,336.841557 L501.953125,334.581791 L499.337891,334.581791 L499.337891,331.319096 L496.570312,331.319096 L496.570312,334.581791 L494.678711,334.581791 L494.678711,336.841557 L496.532227,336.841557 L496.532227,344.230229 C496.532227,346.921635 497.433594,348.089604 500.696289,348.089604 Z M507.907227,348.000736 L507.907227,340.053471 C507.907227,338.250736 508.668945,336.854252 510.928711,336.854252 C511.398438,336.854252 511.893555,336.892338 512.134766,336.955815 L512.134766,334.467533 C511.868164,334.416752 511.550781,334.391361 511.182617,334.391361 C509.316406,334.391361 508.313477,335.508549 507.970703,336.34644 L507.869141,336.34644 L507.869141,334.581791 L505.050781,334.581791 L505.050781,348.000736 L507.907227,348.000736 Z M518,348.203861 C519.980469,348.203861 521.161133,347.378666 521.745117,346.350346 L521.84668,346.350346 L521.84668,348.000736 L524.525391,348.000736 L524.525391,338.860111 C524.525391,335.864018 522.303711,334.378666 519.320312,334.378666 C515.740234,334.378666 514.216797,336.282963 514.102539,338.568119 L516.743164,338.568119 C516.844727,337.37476 517.720703,336.574955 519.256836,336.574955 C520.831055,336.574955 521.745117,337.425541 521.745117,338.961674 L521.745117,340.2439 L518.342773,340.2439 C515.257812,340.2439 513.607422,341.754643 513.607422,344.141361 C513.607422,346.642338 515.397461,348.203861 518,348.203861 Z M518.850586,346.058354 C517.606445,346.058354 516.438477,345.385502 516.438477,343.989018 C516.438477,342.87183 517.1875,342.097416 518.825195,342.097416 L521.745117,342.097416 L521.745117,343.582768 C521.745117,345.042729 520.488281,346.058354 518.850586,346.058354 Z M529.527344,332.893315 C530.441406,332.893315 531.19043,332.233158 531.19043,331.3064 C531.19043,330.379643 530.441406,329.706791 529.527344,329.706791 C528.613281,329.706791 527.851562,330.379643 527.851562,331.3064 C527.851562,332.233158 528.613281,332.893315 529.527344,332.893315 Z M530.936523,348.000736 L530.936523,334.581791 L528.118164,334.581791 L528.118164,348.000736 L530.936523,348.000736 Z M539.658203,348.089604 C540.229492,348.089604 540.762695,348.038822 540.991211,348.000736 L540.991211,345.842533 C540.826172,345.867924 540.597656,345.867924 540.356445,345.867924 C538.845703,345.867924 538.299805,345.461674 538.299805,344.001713 L538.299805,336.841557 L540.915039,336.841557 L540.915039,334.581791 L538.299805,334.581791 L538.299805,331.319096 L535.532227,331.319096 L535.532227,334.581791 L533.640625,334.581791 L533.640625,336.841557 L535.494141,336.841557 L535.494141,344.230229 C535.494141,346.921635 536.395508,348.089604 539.658203,348.089604 Z" id="output:.portrait,.portrait" fill="#FFFFFF" fill-rule="nonzero"></path>
            <path d="M239.223633,536.950901 C243.095703,536.950901 245.177734,534.310276 245.177734,530.527073 L245.177734,529.447972 C245.177734,525.791722 243.083008,523.074925 239.223633,523.074925 C235.364258,523.074925 233.244141,525.804417 233.244141,529.447972 L233.244141,530.527073 C233.244141,534.310276 235.351562,536.950901 239.223633,536.950901 Z M239.223633,534.678441 C237.116211,534.678441 236.087891,532.913792 236.087891,530.514378 L236.087891,529.486058 C236.087891,527.048558 237.128906,525.334691 239.223633,525.334691 C241.318359,525.334691 242.34668,527.035862 242.34668,529.486058 L242.34668,530.514378 C242.34668,532.926487 241.331055,534.678441 239.223633,534.678441 Z M252.706055,536.925511 C254.889648,536.925511 256.133789,535.909886 256.578125,534.856175 L256.705078,534.856175 L256.705078,536.722386 L259.472656,536.722386 L259.472656,523.303441 L256.654297,523.303441 L256.654297,531.415745 C256.654297,533.408909 255.410156,534.488011 253.72168,534.488011 C252.210938,534.488011 250.865234,533.802464 250.865234,531.453831 L250.865234,523.303441 L248.046875,523.303441 L248.046875,532.228245 C248.046875,535.338597 249.951172,536.925511 252.706055,536.925511 Z M268.130859,536.811253 C268.702148,536.811253 269.235352,536.760472 269.463867,536.722386 L269.463867,534.564183 C269.298828,534.589573 269.070312,534.589573 268.829102,534.589573 C267.318359,534.589573 266.772461,534.183323 266.772461,532.723362 L266.772461,525.563206 L269.387695,525.563206 L269.387695,523.303441 L266.772461,523.303441 L266.772461,520.040745 L264.004883,520.040745 L264.004883,523.303441 L262.113281,523.303441 L262.113281,525.563206 L263.966797,525.563206 L263.966797,532.951878 C263.966797,535.643284 264.868164,536.811253 268.130859,536.811253 Z M275.329102,541.178441 L275.329102,534.856175 L275.430664,534.856175 C276.141602,536.08762 277.461914,536.912816 279.201172,536.912816 C282.298828,536.912816 284.418945,534.589573 284.418945,530.603245 L284.418945,529.409886 C284.418945,525.398167 282.273438,523.125706 279.264648,523.125706 C277.461914,523.125706 276.09082,523.988987 275.354492,525.271214 L275.25293,525.271214 L275.25293,523.303441 L272.510742,523.303441 L272.510742,541.178441 L275.329102,541.178441 Z M278.553711,534.589573 C276.547852,534.589573 275.303711,532.989964 275.303711,530.450901 L275.303711,529.498753 C275.303711,527.023167 276.535156,525.423558 278.50293,525.423558 C280.419922,525.423558 281.5625,526.908909 281.5625,529.511448 L281.5625,530.450901 C281.5625,533.155003 280.34375,534.589573 278.553711,534.589573 Z M291.959961,536.925511 C294.143555,536.925511 295.387695,535.909886 295.832031,534.856175 L295.958984,534.856175 L295.958984,536.722386 L298.726562,536.722386 L298.726562,523.303441 L295.908203,523.303441 L295.908203,531.415745 C295.908203,533.408909 294.664062,534.488011 292.975586,534.488011 C291.464844,534.488011 290.119141,533.802464 290.119141,531.453831 L290.119141,523.303441 L287.300781,523.303441 L287.300781,532.228245 C287.300781,535.338597 289.205078,536.925511 291.959961,536.925511 Z M307.384766,536.811253 C307.956055,536.811253 308.489258,536.760472 308.717773,536.722386 L308.717773,534.564183 C308.552734,534.589573 308.324219,534.589573 308.083008,534.589573 C306.572266,534.589573 306.026367,534.183323 306.026367,532.723362 L306.026367,525.563206 L308.641602,525.563206 L308.641602,523.303441 L306.026367,523.303441 L306.026367,520.040745 L303.258789,520.040745 L303.258789,523.303441 L301.367188,523.303441 L301.367188,525.563206 L303.220703,525.563206 L303.220703,532.951878 C303.220703,535.643284 304.12207,536.811253 307.384766,536.811253 Z M313.186523,528.178441 C314.138672,528.178441 314.925781,527.391331 314.925781,526.439183 C314.925781,525.487034 314.138672,524.699925 313.186523,524.699925 C312.22168,524.699925 311.447266,525.487034 311.447266,526.439183 C311.447266,527.391331 312.22168,528.178441 313.186523,528.178441 Z M313.186523,536.988987 C314.138672,536.988987 314.925781,536.201878 314.925781,535.237034 C314.925781,534.284886 314.138672,533.497776 313.186523,533.497776 C312.22168,533.497776 311.447266,534.284886 311.447266,535.237034 C311.447266,536.201878 312.22168,536.988987 313.186523,536.988987 Z M336.139648,525.766331 L337.129883,519.393284 L335.022461,519.393284 L333.410156,525.766331 L336.139648,525.766331 Z M340.824219,525.766331 L341.801758,519.393284 L339.707031,519.393284 L338.082031,525.766331 L340.824219,525.766331 Z M347.514648,536.722386 L347.514648,530.577855 L351.272461,530.577855 C354.801758,530.577855 356.985352,528.267308 356.985352,524.991917 C356.985352,521.754612 354.827148,519.393284 351.285156,519.393284 L344.632812,519.393284 L344.632812,536.722386 L347.514648,536.722386 Z M349.825195,528.216526 L347.514648,528.216526 L347.514648,521.780003 L350.853516,521.780003 C352.859375,521.780003 354.052734,522.947972 354.052734,524.991917 C354.052734,527.569066 352.478516,528.216526 349.825195,528.216526 Z M364.792969,536.950901 C368.665039,536.950901 370.74707,534.310276 370.74707,530.527073 L370.74707,529.447972 C370.74707,525.791722 368.652344,523.074925 364.792969,523.074925 C360.933594,523.074925 358.813477,525.804417 358.813477,529.447972 L358.813477,530.527073 C358.813477,534.310276 360.920898,536.950901 364.792969,536.950901 Z M364.792969,534.678441 C362.685547,534.678441 361.657227,532.913792 361.657227,530.514378 L361.657227,529.486058 C361.657227,527.048558 362.698242,525.334691 364.792969,525.334691 C366.887695,525.334691 367.916016,527.035862 367.916016,529.486058 L367.916016,530.514378 C367.916016,532.926487 366.900391,534.678441 364.792969,534.678441 Z M376.650391,536.722386 L376.650391,528.77512 C376.650391,526.972386 377.412109,525.575901 379.671875,525.575901 C380.141602,525.575901 380.636719,525.613987 380.87793,525.677464 L380.87793,523.189183 C380.611328,523.138401 380.293945,523.113011 379.925781,523.113011 C378.05957,523.113011 377.056641,524.230198 376.713867,525.068089 L376.612305,525.068089 L376.612305,523.303441 L373.793945,523.303441 L373.793945,536.722386 L376.650391,536.722386 Z M388.952148,536.811253 C389.523438,536.811253 390.056641,536.760472 390.285156,536.722386 L390.285156,534.564183 C390.120117,534.589573 389.891602,534.589573 389.650391,534.589573 C388.139648,534.589573 387.59375,534.183323 387.59375,532.723362 L387.59375,525.563206 L390.208984,525.563206 L390.208984,523.303441 L387.59375,523.303441 L387.59375,520.040745 L384.826172,520.040745 L384.826172,523.303441 L382.93457,523.303441 L382.93457,525.563206 L384.788086,525.563206 L384.788086,532.951878 C384.788086,535.643284 385.689453,536.811253 388.952148,536.811253 Z M396.163086,536.722386 L396.163086,528.77512 C396.163086,526.972386 396.924805,525.575901 399.18457,525.575901 C399.654297,525.575901 400.149414,525.613987 400.390625,525.677464 L400.390625,523.189183 C400.124023,523.138401 399.806641,523.113011 399.438477,523.113011 C397.572266,523.113011 396.569336,524.230198 396.226562,525.068089 L396.125,525.068089 L396.125,523.303441 L393.306641,523.303441 L393.306641,536.722386 L396.163086,536.722386 Z M406.255859,536.925511 C408.236328,536.925511 409.416992,536.100316 410.000977,535.071995 L410.102539,535.071995 L410.102539,536.722386 L412.78125,536.722386 L412.78125,527.581761 C412.78125,524.585667 410.55957,523.100316 407.576172,523.100316 C403.996094,523.100316 402.472656,525.004612 402.358398,527.289769 L404.999023,527.289769 C405.100586,526.096409 405.976562,525.296605 407.512695,525.296605 C409.086914,525.296605 410.000977,526.147191 410.000977,527.683323 L410.000977,528.96555 L406.598633,528.96555 C403.513672,528.96555 401.863281,530.476292 401.863281,532.863011 C401.863281,535.363987 403.65332,536.925511 406.255859,536.925511 Z M407.106445,534.780003 C405.862305,534.780003 404.694336,534.107151 404.694336,532.710667 C404.694336,531.59348 405.443359,530.819066 407.081055,530.819066 L410.000977,530.819066 L410.000977,532.304417 C410.000977,533.764378 408.744141,534.780003 407.106445,534.780003 Z M417.783203,521.614964 C418.697266,521.614964 419.446289,520.954808 419.446289,520.02805 C419.446289,519.101292 418.697266,518.428441 417.783203,518.428441 C416.869141,518.428441 416.107422,519.101292 416.107422,520.02805 C416.107422,520.954808 416.869141,521.614964 417.783203,521.614964 Z M419.192383,536.722386 L419.192383,523.303441 L416.374023,523.303441 L416.374023,536.722386 L419.192383,536.722386 Z M427.914062,536.811253 C428.485352,536.811253 429.018555,536.760472 429.24707,536.722386 L429.24707,534.564183 C429.082031,534.589573 428.853516,534.589573 428.612305,534.589573 C427.101562,534.589573 426.555664,534.183323 426.555664,532.723362 L426.555664,525.563206 L429.170898,525.563206 L429.170898,523.303441 L426.555664,523.303441 L426.555664,520.040745 L423.788086,520.040745 L423.788086,523.303441 L421.896484,523.303441 L421.896484,525.563206 L423.75,525.563206 L423.75,532.951878 C423.75,535.643284 424.651367,536.811253 427.914062,536.811253 Z M433.665039,525.766331 L435.277344,519.393284 L432.535156,519.393284 L431.557617,525.766331 L433.665039,525.766331 Z M438.336914,525.766331 L439.949219,519.393284 L437.219727,519.393284 L436.229492,525.766331 L438.336914,525.766331 Z M440.495117,540.442112 L442.424805,534.05637 L439.695312,534.05637 L438.451172,540.442112 L440.495117,540.442112 Z M463.003906,525.766331 L463.994141,519.393284 L461.886719,519.393284 L460.274414,525.766331 L463.003906,525.766331 Z M467.688477,525.766331 L468.666016,519.393284 L466.571289,519.393284 L464.946289,525.766331 L467.688477,525.766331 Z M474.378906,536.722386 L474.378906,530.577855 L478.136719,530.577855 C481.666016,530.577855 483.849609,528.267308 483.849609,524.991917 C483.849609,521.754612 481.691406,519.393284 478.149414,519.393284 L471.49707,519.393284 L471.49707,536.722386 L474.378906,536.722386 Z M476.689453,528.216526 L474.378906,528.216526 L474.378906,521.780003 L477.717773,521.780003 C479.723633,521.780003 480.916992,522.947972 480.916992,524.991917 C480.916992,527.569066 479.342773,528.216526 476.689453,528.216526 Z M491.657227,536.950901 C495.529297,536.950901 497.611328,534.310276 497.611328,530.527073 L497.611328,529.447972 C497.611328,525.791722 495.516602,523.074925 491.657227,523.074925 C487.797852,523.074925 485.677734,525.804417 485.677734,529.447972 L485.677734,530.527073 C485.677734,534.310276 487.785156,536.950901 491.657227,536.950901 Z M491.657227,534.678441 C489.549805,534.678441 488.521484,532.913792 488.521484,530.514378 L488.521484,529.486058 C488.521484,527.048558 489.5625,525.334691 491.657227,525.334691 C493.751953,525.334691 494.780273,527.035862 494.780273,529.486058 L494.780273,530.514378 C494.780273,532.926487 493.764648,534.678441 491.657227,534.678441 Z M503.514648,536.722386 L503.514648,528.77512 C503.514648,526.972386 504.276367,525.575901 506.536133,525.575901 C507.005859,525.575901 507.500977,525.613987 507.742188,525.677464 L507.742188,523.189183 C507.475586,523.138401 507.158203,523.113011 506.790039,523.113011 C504.923828,523.113011 503.920898,524.230198 503.578125,525.068089 L503.476562,525.068089 L503.476562,523.303441 L500.658203,523.303441 L500.658203,536.722386 L503.514648,536.722386 Z M515.816406,536.811253 C516.387695,536.811253 516.920898,536.760472 517.149414,536.722386 L517.149414,534.564183 C516.984375,534.589573 516.755859,534.589573 516.514648,534.589573 C515.003906,534.589573 514.458008,534.183323 514.458008,532.723362 L514.458008,525.563206 L517.073242,525.563206 L517.073242,523.303441 L514.458008,523.303441 L514.458008,520.040745 L511.69043,520.040745 L511.69043,523.303441 L509.798828,523.303441 L509.798828,525.563206 L511.652344,525.563206 L511.652344,532.951878 C511.652344,535.643284 512.553711,536.811253 515.816406,536.811253 Z M523.027344,536.722386 L523.027344,528.77512 C523.027344,526.972386 523.789062,525.575901 526.048828,525.575901 C526.518555,525.575901 527.013672,525.613987 527.254883,525.677464 L527.254883,523.189183 C526.988281,523.138401 526.670898,523.113011 526.302734,523.113011 C524.436523,523.113011 523.433594,524.230198 523.09082,525.068089 L522.989258,525.068089 L522.989258,523.303441 L520.170898,523.303441 L520.170898,536.722386 L523.027344,536.722386 Z M533.120117,536.925511 C535.100586,536.925511 536.28125,536.100316 536.865234,535.071995 L536.966797,535.071995 L536.966797,536.722386 L539.645508,536.722386 L539.645508,527.581761 C539.645508,524.585667 537.423828,523.100316 534.44043,523.100316 C530.860352,523.100316 529.336914,525.004612 529.222656,527.289769 L531.863281,527.289769 C531.964844,526.096409 532.84082,525.296605 534.376953,525.296605 C535.951172,525.296605 536.865234,526.147191 536.865234,527.683323 L536.865234,528.96555 L533.462891,528.96555 C530.37793,528.96555 528.727539,530.476292 528.727539,532.863011 C528.727539,535.363987 530.517578,536.925511 533.120117,536.925511 Z M533.970703,534.780003 C532.726562,534.780003 531.558594,534.107151 531.558594,532.710667 C531.558594,531.59348 532.307617,530.819066 533.945312,530.819066 L536.865234,530.819066 L536.865234,532.304417 C536.865234,533.764378 535.608398,534.780003 533.970703,534.780003 Z M544.647461,521.614964 C545.561523,521.614964 546.310547,520.954808 546.310547,520.02805 C546.310547,519.101292 545.561523,518.428441 544.647461,518.428441 C543.733398,518.428441 542.97168,519.101292 542.97168,520.02805 C542.97168,520.954808 543.733398,521.614964 544.647461,521.614964 Z M546.056641,536.722386 L546.056641,523.303441 L543.238281,523.303441 L543.238281,536.722386 L546.056641,536.722386 Z M554.77832,536.811253 C555.349609,536.811253 555.882812,536.760472 556.111328,536.722386 L556.111328,534.564183 C555.946289,534.589573 555.717773,534.589573 555.476562,534.589573 C553.96582,534.589573 553.419922,534.183323 553.419922,532.723362 L553.419922,525.563206 L556.035156,525.563206 L556.035156,523.303441 L553.419922,523.303441 L553.419922,520.040745 L550.652344,520.040745 L550.652344,523.303441 L548.760742,523.303441 L548.760742,525.563206 L550.614258,525.563206 L550.614258,532.951878 C550.614258,535.643284 551.515625,536.811253 554.77832,536.811253 Z M560.529297,525.766331 L562.141602,519.393284 L559.399414,519.393284 L558.421875,525.766331 L560.529297,525.766331 Z M565.201172,525.766331 L566.813477,519.393284 L564.083984,519.393284 L563.09375,525.766331 L565.201172,525.766331 Z M567.359375,540.442112 L569.289062,534.05637 L566.55957,534.05637 L565.31543,540.442112 L567.359375,540.442112 Z M589.169922,536.988987 C590.12207,536.988987 590.90918,536.201878 590.90918,535.237034 C590.90918,534.284886 590.12207,533.497776 589.169922,533.497776 C588.205078,533.497776 587.430664,534.284886 587.430664,535.237034 C587.430664,536.201878 588.205078,536.988987 589.169922,536.988987 Z M594.958984,536.988987 C595.911133,536.988987 596.698242,536.201878 596.698242,535.237034 C596.698242,534.284886 595.911133,533.497776 594.958984,533.497776 C594.006836,533.497776 593.219727,534.284886 593.219727,535.237034 C593.219727,536.201878 594.006836,536.988987 594.958984,536.988987 Z M600.748047,536.988987 C601.700195,536.988987 602.487305,536.201878 602.487305,535.237034 C602.487305,534.284886 601.700195,533.497776 600.748047,533.497776 C599.795898,533.497776 599.008789,534.284886 599.008789,535.237034 C599.008789,536.201878 599.795898,536.988987 600.748047,536.988987 Z" id="output:Portrait,Portrait," fill="#FFFFFF" fill-rule="nonzero"></path>
        </g>
    </g>
</svg>