<?xml version="1.0" encoding="UTF-8"?>
<svg width="1125px" height="376px" viewBox="0 0 1125 376" version="1.1" xmlns="http://www.w3.org/2000/svg" xmlns:xlink="http://www.w3.org/1999/xlink">
    <title>observers</title>
    <g id="Page-1" stroke="none" stroke-width="1" fill="none" fill-rule="evenodd">
        <g id="observers" transform="translate(0.000000, 0.500000)">
            <g id="Rectangle" fill="#000000">
                <rect x="0" y="0" width="1125" height="375"></rect>
            </g>
            <g id="Group" transform="translate(96.000000, 136.500000)">
                <rect id="Rectangle" fill="#32C5FF" x="0" y="0" width="301" height="125" rx="16"></rect>
                <path d="M38.046875,73.375 C44.71875,73.375 48.921875,68.90625 48.921875,61.734375 C48.921875,54.546875 44.71875,50.0625 38.046875,50.0625 C31.359375,50.0625 27.171875,54.546875 27.171875,61.734375 C27.171875,68.90625 31.359375,73.375 38.046875,73.375 Z M38.046875,69.4375 C34.34375,69.4375 31.984375,66.453125 31.984375,61.734375 C31.984375,57 34.359375,54 38.046875,54 C41.734375,54 44.09375,57 44.09375,61.734375 C44.09375,66.453125 41.734375,69.4375 38.046875,69.4375 Z M53.90625,73.328125 C55.234375,73.328125 56.171875,72.53125 56.171875,71.015625 L56.171875,70.125 L56.265625,70.125 C57.203125,72.078125 59.0625,73.265625 61.515625,73.265625 C65.75,73.265625 68.3125,70.015625 68.3125,64.625 C68.3125,59.21875 65.734375,55.984375 61.5,55.984375 C59.125,55.984375 57.25,57.171875 56.328125,59.15625 L56.234375,59.15625 L56.234375,52.5 C56.234375,50.9375 55.296875,50.109375 53.953125,50.109375 C52.625,50.109375 51.671875,50.9375 51.671875,52.5 L51.671875,71.015625 C51.671875,72.546875 52.59375,73.328125 53.90625,73.328125 Z M59.953125,69.59375 C57.734375,69.59375 56.21875,67.65625 56.21875,64.625 C56.21875,61.625 57.734375,59.640625 59.953125,59.640625 C62.21875,59.640625 63.640625,61.578125 63.640625,64.625 C63.640625,67.6875 62.21875,69.59375 59.953125,69.59375 Z M77.5,73.359375 C81.921875,73.359375 84.90625,71.203125 84.90625,67.875 C84.90625,65.375 83.4375,64.0625 79.875,63.3125 L77.109375,62.71875 C75.4375,62.359375 74.78125,61.78125 74.78125,60.90625 C74.78125,59.828125 75.859375,59.09375 77.40625,59.09375 C79.046875,59.09375 79.953125,59.875 80.75,60.890625 C81.15625,61.375 81.8125,61.59375 82.40625,61.59375 C83.578125,61.59375 84.15625,60.953125 84.15625,60.03125 C84.15625,59.8125 84.109375,59.59375 84.046875,59.359375 C83.5,57.46875 80.953125,55.890625 77.484375,55.890625 C73.140625,55.890625 70.375,57.953125 70.375,61.15625 C70.375,63.640625 72.03125,65.3125 75.3125,66.015625 L78.125,66.609375 C79.765625,66.96875 80.34375,67.453125 80.34375,68.359375 C80.34375,69.46875 79.265625,70.15625 77.609375,70.15625 C75.875,70.15625 74.84375,69.625 73.953125,68.453125 C73.328125,67.75 72.703125,67.421875 71.96875,67.421875 C70.90625,67.421875 70.125,68.125 70.125,69.171875 C70.125,69.421875 70.1875,69.71875 70.296875,70.015625 C71.09375,71.984375 73.65625,73.359375 77.5,73.359375 Z M94.859375,73.359375 C98.09375,73.359375 100.6875,72.140625 101.796875,70.078125 C102,69.703125 102.109375,69.328125 102.109375,68.96875 C102.109375,67.921875 101.3125,67.296875 100.328125,67.296875 C99.734375,67.296875 99.328125,67.46875 98.84375,67.96875 C97.609375,69.421875 96.515625,69.984375 94.84375,69.984375 C92.53125,69.984375 91.03125,68.359375 91.03125,65.875 L91.03125,65.671875 L100.59375,65.671875 C101.859375,65.671875 102.578125,64.953125 102.578125,63.6875 C102.578125,59.140625 99.390625,55.890625 94.640625,55.890625 C89.6875,55.890625 86.546875,59.3125 86.546875,64.703125 C86.546875,70.125 89.625,73.359375 94.859375,73.359375 Z M98.1875,62.875 L91.078125,62.875 C91.234375,60.734375 92.6875,59.265625 94.6875,59.265625 C96.6875,59.265625 98.09375,60.6875 98.1875,62.875 Z M107.203125,73.328125 C108.59375,73.328125 109.484375,72.46875 109.484375,70.953125 L109.484375,63.515625 C109.484375,61.53125 110.21875,60.359375 112.296875,60.328125 C113.1875,60.3125 113.84375,60.109375 114.28125,59.734375 C114.71875,59.359375 114.9375,58.8125 114.9375,58.09375 C114.9375,57.3125 114.71875,56.75 114.28125,56.40625 C113.953125,56.125 113.46875,55.984375 112.859375,55.984375 C111.1875,55.984375 109.8125,57.21875 109.375,59.296875 L109.28125,59.296875 L109.28125,58.203125 C109.28125,56.75 108.40625,55.90625 107.125,55.90625 C105.8125,55.90625 104.921875,56.75 104.921875,58.203125 L104.921875,70.953125 C104.921875,72.46875 105.828125,73.328125 107.203125,73.328125 Z M123.59375,73.328125 C125.25,73.328125 126.203125,72.609375 126.78125,71 L131.140625,59.21875 C131.28125,58.828125 131.390625,58.359375 131.390625,57.9375 C131.390625,56.78125 130.4375,55.90625 129.171875,55.90625 C128.109375,55.90625 127.34375,56.484375 127.03125,57.6875 L123.640625,68.96875 L123.546875,68.96875 L120.15625,57.734375 C119.8125,56.5 119.078125,55.90625 117.96875,55.90625 C116.671875,55.90625 115.6875,56.71875 115.6875,57.953125 C115.6875,58.421875 115.796875,58.90625 115.9375,59.3125 L120.296875,71 C120.90625,72.625 121.84375,73.328125 123.59375,73.328125 Z M145.421875,73.328125 C146.71875,73.328125 147.640625,72.546875 147.640625,71.03125 L147.640625,61.484375 C147.640625,58.109375 144.84375,55.890625 140.546875,55.890625 C137.078125,55.890625 134.390625,57.125 133.609375,59.125 C133.453125,59.46875 133.375,59.796875 133.375,60.15625 C133.375,61.1875 134.171875,61.90625 135.28125,61.90625 C136.015625,61.90625 136.59375,61.625 137.09375,61.0625 C138.109375,59.75 138.953125,59.296875 140.34375,59.296875 C142.0625,59.296875 143.15625,60.203125 143.15625,61.765625 L143.15625,62.875 L138.9375,63.125 C134.75,63.375 132.40625,65.140625 132.40625,68.1875 C132.40625,71.203125 134.828125,73.265625 138.015625,73.265625 C140.109375,73.265625 142.203125,72.21875 143.140625,70.4375 L143.234375,70.4375 L143.234375,71.296875 C143.328125,72.640625 144.1875,73.328125 145.421875,73.328125 Z M139.515625,69.96875 C137.984375,69.96875 136.953125,69.1875 136.953125,67.9375 C136.953125,66.75 137.921875,65.984375 139.625,65.859375 L143.15625,65.640625 L143.15625,66.859375 C143.15625,68.671875 141.515625,69.96875 139.515625,69.96875 Z M152.921875,73.328125 C154.25,73.328125 155.1875,72.53125 155.1875,71.015625 L155.1875,70.125 L155.28125,70.125 C156.21875,72.078125 158.078125,73.265625 160.53125,73.265625 C164.765625,73.265625 167.328125,70.015625 167.328125,64.625 C167.328125,59.21875 164.75,55.984375 160.515625,55.984375 C158.140625,55.984375 156.265625,57.171875 155.34375,59.15625 L155.25,59.15625 L155.25,52.5 C155.25,50.9375 154.3125,50.109375 152.96875,50.109375 C151.640625,50.109375 150.6875,50.9375 150.6875,52.5 L150.6875,71.015625 C150.6875,72.546875 151.609375,73.328125 152.921875,73.328125 Z M158.96875,69.59375 C156.75,69.59375 155.234375,67.65625 155.234375,64.625 C155.234375,61.625 156.75,59.640625 158.96875,59.640625 C161.234375,59.640625 162.65625,61.578125 162.65625,64.625 C162.65625,67.6875 161.234375,69.59375 158.96875,69.59375 Z M172.078125,73.328125 C173.421875,73.328125 174.359375,72.515625 174.359375,70.953125 L174.359375,52.5 C174.359375,50.9375 173.421875,50.109375 172.078125,50.109375 C170.75,50.109375 169.796875,50.9375 169.796875,52.5 L169.796875,70.953125 C169.796875,72.515625 170.75,73.328125 172.078125,73.328125 Z M185.140625,73.359375 C188.375,73.359375 190.96875,72.140625 192.078125,70.078125 C192.28125,69.703125 192.390625,69.328125 192.390625,68.96875 C192.390625,67.921875 191.59375,67.296875 190.609375,67.296875 C190.015625,67.296875 189.609375,67.46875 189.125,67.96875 C187.890625,69.421875 186.796875,69.984375 185.125,69.984375 C182.8125,69.984375 181.3125,68.359375 181.3125,65.875 L181.3125,65.671875 L190.875,65.671875 C192.140625,65.671875 192.859375,64.953125 192.859375,63.6875 C192.859375,59.140625 189.671875,55.890625 184.921875,55.890625 C179.96875,55.890625 176.828125,59.3125 176.828125,64.703125 C176.828125,70.125 179.90625,73.359375 185.140625,73.359375 Z M188.46875,62.875 L181.359375,62.875 C181.515625,60.734375 182.96875,59.265625 184.96875,59.265625 C186.96875,59.265625 188.375,60.6875 188.46875,62.875 Z M210.765625,71.75 C211.953125,71.75 212.703125,70.8125 212.703125,69.765625 C212.703125,68.78125 212.171875,68.03125 211.078125,67.671875 L201.0625,63.953125 L201.0625,63.796875 L211.078125,60.15625 C212.1875,59.8125 212.703125,59.125 212.703125,58.109375 C212.703125,57.0625 211.953125,56.15625 210.765625,56.15625 C210.171875,56.15625 209.78125,56.28125 209.203125,56.5 L197.96875,61.171875 C196.46875,61.765625 195.796875,62.65625 195.796875,63.96875 C195.796875,65.28125 196.484375,66.1875 197.96875,66.765625 L209.203125,71.390625 C209.78125,71.609375 210.171875,71.75 210.765625,71.75 Z M218.65625,73.296875 C220.140625,73.296875 221.015625,72.390625 221.015625,70.84375 L221.015625,52.609375 C221.015625,51.046875 220.140625,50.140625 218.65625,50.140625 C217.171875,50.140625 216.296875,51.046875 216.296875,52.609375 L216.296875,70.84375 C216.296875,72.390625 217.171875,73.296875 218.65625,73.296875 Z M237.640625,73.328125 C238.96875,73.328125 239.921875,72.515625 239.921875,70.953125 L239.921875,62.203125 C239.921875,58.28125 237.828125,55.9375 234.109375,55.9375 C231.53125,55.9375 229.84375,57.078125 228.953125,59.15625 L228.859375,59.15625 L228.859375,58.21875 C228.859375,56.78125 227.953125,55.90625 226.578125,55.90625 C225.203125,55.90625 224.375,56.78125 224.375,58.203125 L224.375,70.953125 C224.375,72.515625 225.328125,73.328125 226.65625,73.328125 C228,73.328125 228.9375,72.515625 228.9375,70.953125 L228.9375,63.390625 C228.9375,61.21875 230.234375,59.71875 232.28125,59.71875 C234.328125,59.71875 235.359375,60.96875 235.359375,63.15625 L235.359375,70.953125 C235.359375,72.515625 236.296875,73.328125 237.640625,73.328125 Z M248.78125,73.1875 C250.703125,73.1875 252.015625,72.5 252.015625,71.15625 C252.015625,70.09375 251.40625,69.625 250.28125,69.5 L249.984375,69.46875 C249,69.390625 248.59375,68.890625 248.59375,67.703125 L248.59375,59.6875 L250.203125,59.6875 C251.28125,59.6875 251.953125,59.015625 251.953125,57.96875 C251.953125,56.921875 251.28125,56.25 250.203125,56.25 L248.59375,56.25 L248.59375,54.390625 C248.59375,52.921875 247.734375,52.015625 246.3125,52.015625 C244.890625,52.015625 244.03125,52.921875 244.03125,54.390625 L244.03125,56.25 L243.15625,56.25 C242.078125,56.25 241.390625,56.90625 241.390625,57.96875 C241.390625,59.03125 242.078125,59.6875 243.15625,59.6875 L244.03125,59.6875 L244.03125,68.71875 C244.03125,71.671875 245.578125,73.1875 248.625,73.1875 L248.78125,73.1875 Z M256.375,71.75 C256.953125,71.75 257.34375,71.609375 257.921875,71.390625 L269.171875,66.75 C270.671875,66.15625 271.328125,65.25 271.328125,63.9375 C271.328125,62.625 270.640625,61.734375 269.15625,61.15625 L257.921875,56.5 C257.34375,56.28125 256.953125,56.15625 256.375,56.15625 C255.1875,56.15625 254.421875,57.0625 254.421875,58.109375 C254.421875,59.125 254.953125,59.796875 256.046875,60.15625 L266.0625,63.890625 L266.0625,64.046875 L256.046875,67.671875 C254.953125,68.03125 254.421875,68.78125 254.421875,69.765625 C254.421875,70.8125 255.1875,71.75 256.375,71.75 Z" id="Observable&lt;Int&gt;" fill="#FFFFFF" fill-rule="nonzero"></path>
            </g>
            <g id="Group-4" transform="translate(659.000000, 37.500000)">
                <rect id="Rectangle-Copy" fill="#44D7B6" x="0" y="0" width="307" height="85" rx="16"></rect>
                <path d="M85.5410156,53.328125 C91.3789062,53.328125 95.0566406,49.4179688 95.0566406,43.1425781 C95.0566406,36.8535156 91.3789062,32.9296875 85.5410156,32.9296875 C79.6894531,32.9296875 76.0253906,36.8535156 76.0253906,43.1425781 C76.0253906,49.4179688 79.6894531,53.328125 85.5410156,53.328125 Z M85.5410156,49.8828125 C82.3007812,49.8828125 80.2363281,47.2714844 80.2363281,43.1425781 C80.2363281,39 82.3144531,36.375 85.5410156,36.375 C88.7675781,36.375 90.8320312,39 90.8320312,43.1425781 C90.8320312,47.2714844 88.7675781,49.8828125 85.5410156,49.8828125 Z M99.4179688,53.2871094 C100.580078,53.2871094 101.400391,52.5898438 101.400391,51.2636719 L101.400391,50.484375 L101.482422,50.484375 C102.302734,52.1933594 103.929688,53.2324219 106.076172,53.2324219 C109.78125,53.2324219 112.023438,50.3886719 112.023438,45.671875 C112.023438,40.9414062 109.767578,38.1113281 106.0625,38.1113281 C103.984375,38.1113281 102.34375,39.1503906 101.537109,40.8867188 L101.455078,40.8867188 L101.455078,35.0625 C101.455078,33.6953125 100.634766,32.9707031 99.4589844,32.9707031 C98.296875,32.9707031 97.4628906,33.6953125 97.4628906,35.0625 L97.4628906,51.2636719 C97.4628906,52.6035156 98.2695312,53.2871094 99.4179688,53.2871094 Z M104.708984,50.0195312 C102.767578,50.0195312 101.441406,48.3242188 101.441406,45.671875 C101.441406,43.046875 102.767578,41.3105469 104.708984,41.3105469 C106.691406,41.3105469 107.935547,43.0058594 107.935547,45.671875 C107.935547,48.3515625 106.691406,50.0195312 104.708984,50.0195312 Z M120.0625,53.3144531 C123.931641,53.3144531 126.542969,51.4277344 126.542969,48.515625 C126.542969,46.328125 125.257812,45.1796875 122.140625,44.5234375 L119.720703,44.0039062 C118.257812,43.6894531 117.683594,43.1835938 117.683594,42.4179688 C117.683594,41.4746094 118.626953,40.8320312 119.980469,40.8320312 C121.416016,40.8320312 122.208984,41.515625 122.90625,42.4042969 C123.261719,42.828125 123.835938,43.0195312 124.355469,43.0195312 C125.380859,43.0195312 125.886719,42.4589844 125.886719,41.6523438 C125.886719,41.4609375 125.845703,41.2695312 125.791016,41.0644531 C125.3125,39.4101562 123.083984,38.0292969 120.048828,38.0292969 C116.248047,38.0292969 113.828125,39.8339844 113.828125,42.6367188 C113.828125,44.8105469 115.277344,46.2734375 118.148438,46.8886719 L120.609375,47.4082031 C122.044922,47.7226562 122.550781,48.1464844 122.550781,48.9394531 C122.550781,49.9101562 121.607422,50.5117188 120.158203,50.5117188 C118.640625,50.5117188 117.738281,50.046875 116.958984,49.0214844 C116.412109,48.40625 115.865234,48.1191406 115.222656,48.1191406 C114.292969,48.1191406 113.609375,48.734375 113.609375,49.6503906 C113.609375,49.8691406 113.664062,50.1289062 113.759766,50.3886719 C114.457031,52.1113281 116.699219,53.3144531 120.0625,53.3144531 Z M135.251953,53.3144531 C138.082031,53.3144531 140.351562,52.2480469 141.322266,50.4433594 C141.5,50.1152344 141.595703,49.7871094 141.595703,49.4726562 C141.595703,48.5566406 140.898438,48.0097656 140.037109,48.0097656 C139.517578,48.0097656 139.162109,48.1601562 138.738281,48.5976562 C137.658203,49.8691406 136.701172,50.3613281 135.238281,50.3613281 C133.214844,50.3613281 131.902344,48.9394531 131.902344,46.765625 L131.902344,46.5878906 L140.269531,46.5878906 C141.376953,46.5878906 142.005859,45.9589844 142.005859,44.8515625 C142.005859,40.8730469 139.216797,38.0292969 135.060547,38.0292969 C130.726562,38.0292969 127.978516,41.0234375 127.978516,45.7402344 C127.978516,50.484375 130.671875,53.3144531 135.251953,53.3144531 Z M138.164062,44.140625 L131.943359,44.140625 C132.080078,42.2675781 133.351562,40.9824219 135.101562,40.9824219 C136.851562,40.9824219 138.082031,42.2265625 138.164062,44.140625 Z M146.052734,53.2871094 C147.269531,53.2871094 148.048828,52.5351562 148.048828,51.2089844 L148.048828,44.7011719 C148.048828,42.9648438 148.691406,41.9394531 150.509766,41.9121094 C151.289062,41.8984375 151.863281,41.7207031 152.246094,41.3925781 C152.628906,41.0644531 152.820312,40.5859375 152.820312,39.9570312 C152.820312,39.2734375 152.628906,38.78125 152.246094,38.4804688 C151.958984,38.234375 151.535156,38.1113281 151.001953,38.1113281 C149.539062,38.1113281 148.335938,39.1914062 147.953125,41.0097656 L147.871094,41.0097656 L147.871094,40.0527344 C147.871094,38.78125 147.105469,38.0429688 145.984375,38.0429688 C144.835938,38.0429688 144.056641,38.78125 144.056641,40.0527344 L144.056641,51.2089844 C144.056641,52.5351562 144.849609,53.2871094 146.052734,53.2871094 Z M160.394531,53.2871094 C161.84375,53.2871094 162.677734,52.6582031 163.183594,51.25 L166.998047,40.9414062 C167.121094,40.5996094 167.216797,40.1894531 167.216797,39.8203125 C167.216797,38.8085938 166.382812,38.0429688 165.275391,38.0429688 C164.345703,38.0429688 163.675781,38.5488281 163.402344,39.6015625 L160.435547,49.4726562 L160.353516,49.4726562 L157.386719,39.6425781 C157.085938,38.5625 156.443359,38.0429688 155.472656,38.0429688 C154.337891,38.0429688 153.476562,38.7539062 153.476562,39.8339844 C153.476562,40.2441406 153.572266,40.6679688 153.695312,41.0234375 L157.509766,51.25 C158.042969,52.671875 158.863281,53.2871094 160.394531,53.2871094 Z M175.351562,53.3144531 C178.181641,53.3144531 180.451172,52.2480469 181.421875,50.4433594 C181.599609,50.1152344 181.695312,49.7871094 181.695312,49.4726562 C181.695312,48.5566406 180.998047,48.0097656 180.136719,48.0097656 C179.617188,48.0097656 179.261719,48.1601562 178.837891,48.5976562 C177.757812,49.8691406 176.800781,50.3613281 175.337891,50.3613281 C173.314453,50.3613281 172.001953,48.9394531 172.001953,46.765625 L172.001953,46.5878906 L180.369141,46.5878906 C181.476562,46.5878906 182.105469,45.9589844 182.105469,44.8515625 C182.105469,40.8730469 179.316406,38.0292969 175.160156,38.0292969 C170.826172,38.0292969 168.078125,41.0234375 168.078125,45.7402344 C168.078125,50.484375 170.771484,53.3144531 175.351562,53.3144531 Z M178.263672,44.140625 L172.042969,44.140625 C172.179688,42.2675781 173.451172,40.9824219 175.201172,40.9824219 C176.951172,40.9824219 178.181641,42.2265625 178.263672,44.140625 Z M186.152344,53.2871094 C187.369141,53.2871094 188.148438,52.5351562 188.148438,51.2089844 L188.148438,44.7011719 C188.148438,42.9648438 188.791016,41.9394531 190.609375,41.9121094 C191.388672,41.8984375 191.962891,41.7207031 192.345703,41.3925781 C192.728516,41.0644531 192.919922,40.5859375 192.919922,39.9570312 C192.919922,39.2734375 192.728516,38.78125 192.345703,38.4804688 C192.058594,38.234375 191.634766,38.1113281 191.101562,38.1113281 C189.638672,38.1113281 188.435547,39.1914062 188.052734,41.0097656 L187.970703,41.0097656 L187.970703,40.0527344 C187.970703,38.78125 187.205078,38.0429688 186.083984,38.0429688 C184.935547,38.0429688 184.15625,38.78125 184.15625,40.0527344 L184.15625,51.2089844 C184.15625,52.5351562 184.949219,53.2871094 186.152344,53.2871094 Z M206.947266,53.2871094 C208.164062,53.2871094 208.984375,52.4667969 208.984375,51.2226562 L208.984375,35.28125 C208.984375,33.859375 208.109375,32.9707031 206.646484,32.9707031 C205.798828,32.9707031 205.142578,33.09375 204.185547,33.75 L200.275391,36.4570312 C199.632812,36.9082031 199.386719,37.3730469 199.386719,38.0019531 C199.386719,38.8769531 200.001953,39.4785156 200.835938,39.4785156 C201.259766,39.4785156 201.546875,39.3828125 201.929688,39.109375 L204.814453,37.0996094 L204.896484,37.0996094 L204.896484,51.2226562 C204.896484,52.4667969 205.730469,53.2871094 206.947266,53.2871094 Z" id="Observer1" fill="#FFFFFF" fill-rule="nonzero"></path>
            </g>
            <g id="Group-3" transform="translate(714.000000, 145.500000)">
                <rect id="Rectangle-Copy-2" fill="#44D7B6" x="0" y="0" width="307" height="85" rx="16"></rect>
                <path d="M83.5410156,53.328125 C89.3789062,53.328125 93.0566406,49.4179688 93.0566406,43.1425781 C93.0566406,36.8535156 89.3789062,32.9296875 83.5410156,32.9296875 C77.6894531,32.9296875 74.0253906,36.8535156 74.0253906,43.1425781 C74.0253906,49.4179688 77.6894531,53.328125 83.5410156,53.328125 Z M83.5410156,49.8828125 C80.3007812,49.8828125 78.2363281,47.2714844 78.2363281,43.1425781 C78.2363281,39 80.3144531,36.375 83.5410156,36.375 C86.7675781,36.375 88.8320312,39 88.8320312,43.1425781 C88.8320312,47.2714844 86.7675781,49.8828125 83.5410156,49.8828125 Z M97.4179688,53.2871094 C98.5800781,53.2871094 99.4003906,52.5898438 99.4003906,51.2636719 L99.4003906,50.484375 L99.4824219,50.484375 C100.302734,52.1933594 101.929688,53.2324219 104.076172,53.2324219 C107.78125,53.2324219 110.023438,50.3886719 110.023438,45.671875 C110.023438,40.9414062 107.767578,38.1113281 104.0625,38.1113281 C101.984375,38.1113281 100.34375,39.1503906 99.5371094,40.8867188 L99.4550781,40.8867188 L99.4550781,35.0625 C99.4550781,33.6953125 98.6347656,32.9707031 97.4589844,32.9707031 C96.296875,32.9707031 95.4628906,33.6953125 95.4628906,35.0625 L95.4628906,51.2636719 C95.4628906,52.6035156 96.2695312,53.2871094 97.4179688,53.2871094 Z M102.708984,50.0195312 C100.767578,50.0195312 99.4414062,48.3242188 99.4414062,45.671875 C99.4414062,43.046875 100.767578,41.3105469 102.708984,41.3105469 C104.691406,41.3105469 105.935547,43.0058594 105.935547,45.671875 C105.935547,48.3515625 104.691406,50.0195312 102.708984,50.0195312 Z M118.0625,53.3144531 C121.931641,53.3144531 124.542969,51.4277344 124.542969,48.515625 C124.542969,46.328125 123.257812,45.1796875 120.140625,44.5234375 L117.720703,44.0039062 C116.257812,43.6894531 115.683594,43.1835938 115.683594,42.4179688 C115.683594,41.4746094 116.626953,40.8320312 117.980469,40.8320312 C119.416016,40.8320312 120.208984,41.515625 120.90625,42.4042969 C121.261719,42.828125 121.835938,43.0195312 122.355469,43.0195312 C123.380859,43.0195312 123.886719,42.4589844 123.886719,41.6523438 C123.886719,41.4609375 123.845703,41.2695312 123.791016,41.0644531 C123.3125,39.4101562 121.083984,38.0292969 118.048828,38.0292969 C114.248047,38.0292969 111.828125,39.8339844 111.828125,42.6367188 C111.828125,44.8105469 113.277344,46.2734375 116.148438,46.8886719 L118.609375,47.4082031 C120.044922,47.7226562 120.550781,48.1464844 120.550781,48.9394531 C120.550781,49.9101562 119.607422,50.5117188 118.158203,50.5117188 C116.640625,50.5117188 115.738281,50.046875 114.958984,49.0214844 C114.412109,48.40625 113.865234,48.1191406 113.222656,48.1191406 C112.292969,48.1191406 111.609375,48.734375 111.609375,49.6503906 C111.609375,49.8691406 111.664062,50.1289062 111.759766,50.3886719 C112.457031,52.1113281 114.699219,53.3144531 118.0625,53.3144531 Z M133.251953,53.3144531 C136.082031,53.3144531 138.351562,52.2480469 139.322266,50.4433594 C139.5,50.1152344 139.595703,49.7871094 139.595703,49.4726562 C139.595703,48.5566406 138.898438,48.0097656 138.037109,48.0097656 C137.517578,48.0097656 137.162109,48.1601562 136.738281,48.5976562 C135.658203,49.8691406 134.701172,50.3613281 133.238281,50.3613281 C131.214844,50.3613281 129.902344,48.9394531 129.902344,46.765625 L129.902344,46.5878906 L138.269531,46.5878906 C139.376953,46.5878906 140.005859,45.9589844 140.005859,44.8515625 C140.005859,40.8730469 137.216797,38.0292969 133.060547,38.0292969 C128.726562,38.0292969 125.978516,41.0234375 125.978516,45.7402344 C125.978516,50.484375 128.671875,53.3144531 133.251953,53.3144531 Z M136.164062,44.140625 L129.943359,44.140625 C130.080078,42.2675781 131.351562,40.9824219 133.101562,40.9824219 C134.851562,40.9824219 136.082031,42.2265625 136.164062,44.140625 Z M144.052734,53.2871094 C145.269531,53.2871094 146.048828,52.5351562 146.048828,51.2089844 L146.048828,44.7011719 C146.048828,42.9648438 146.691406,41.9394531 148.509766,41.9121094 C149.289062,41.8984375 149.863281,41.7207031 150.246094,41.3925781 C150.628906,41.0644531 150.820312,40.5859375 150.820312,39.9570312 C150.820312,39.2734375 150.628906,38.78125 150.246094,38.4804688 C149.958984,38.234375 149.535156,38.1113281 149.001953,38.1113281 C147.539062,38.1113281 146.335938,39.1914062 145.953125,41.0097656 L145.871094,41.0097656 L145.871094,40.0527344 C145.871094,38.78125 145.105469,38.0429688 143.984375,38.0429688 C142.835938,38.0429688 142.056641,38.78125 142.056641,40.0527344 L142.056641,51.2089844 C142.056641,52.5351562 142.849609,53.2871094 144.052734,53.2871094 Z M158.394531,53.2871094 C159.84375,53.2871094 160.677734,52.6582031 161.183594,51.25 L164.998047,40.9414062 C165.121094,40.5996094 165.216797,40.1894531 165.216797,39.8203125 C165.216797,38.8085938 164.382812,38.0429688 163.275391,38.0429688 C162.345703,38.0429688 161.675781,38.5488281 161.402344,39.6015625 L158.435547,49.4726562 L158.353516,49.4726562 L155.386719,39.6425781 C155.085938,38.5625 154.443359,38.0429688 153.472656,38.0429688 C152.337891,38.0429688 151.476562,38.7539062 151.476562,39.8339844 C151.476562,40.2441406 151.572266,40.6679688 151.695312,41.0234375 L155.509766,51.25 C156.042969,52.671875 156.863281,53.2871094 158.394531,53.2871094 Z M173.351562,53.3144531 C176.181641,53.3144531 178.451172,52.2480469 179.421875,50.4433594 C179.599609,50.1152344 179.695312,49.7871094 179.695312,49.4726562 C179.695312,48.5566406 178.998047,48.0097656 178.136719,48.0097656 C177.617188,48.0097656 177.261719,48.1601562 176.837891,48.5976562 C175.757812,49.8691406 174.800781,50.3613281 173.337891,50.3613281 C171.314453,50.3613281 170.001953,48.9394531 170.001953,46.765625 L170.001953,46.5878906 L178.369141,46.5878906 C179.476562,46.5878906 180.105469,45.9589844 180.105469,44.8515625 C180.105469,40.8730469 177.316406,38.0292969 173.160156,38.0292969 C168.826172,38.0292969 166.078125,41.0234375 166.078125,45.7402344 C166.078125,50.484375 168.771484,53.3144531 173.351562,53.3144531 Z M176.263672,44.140625 L170.042969,44.140625 C170.179688,42.2675781 171.451172,40.9824219 173.201172,40.9824219 C174.951172,40.9824219 176.181641,42.2265625 176.263672,44.140625 Z M184.152344,53.2871094 C185.369141,53.2871094 186.148438,52.5351562 186.148438,51.2089844 L186.148438,44.7011719 C186.148438,42.9648438 186.791016,41.9394531 188.609375,41.9121094 C189.388672,41.8984375 189.962891,41.7207031 190.345703,41.3925781 C190.728516,41.0644531 190.919922,40.5859375 190.919922,39.9570312 C190.919922,39.2734375 190.728516,38.78125 190.345703,38.4804688 C190.058594,38.234375 189.634766,38.1113281 189.101562,38.1113281 C187.638672,38.1113281 186.435547,39.1914062 186.052734,41.0097656 L185.970703,41.0097656 L185.970703,40.0527344 C185.970703,38.78125 185.205078,38.0429688 184.083984,38.0429688 C182.935547,38.0429688 182.15625,38.78125 182.15625,40.0527344 L182.15625,51.2089844 C182.15625,52.5351562 182.949219,53.2871094 184.152344,53.2871094 Z M210.8125,53 C211.878906,53 212.521484,52.3300781 212.521484,51.359375 C212.521484,50.3613281 211.878906,49.71875 210.8125,49.71875 L203.375,49.71875 L203.375,49.6367188 L207.640625,45.5351562 C210.867188,42.4863281 212.042969,40.9824219 212.042969,38.5761719 C212.042969,35.1855469 209.226562,32.8339844 205.042969,32.8339844 C201.310547,32.8339844 198.835938,34.8710938 198.166016,37.0585938 C198.070312,37.3457031 198.015625,37.6328125 198.015625,37.9472656 C198.015625,38.9726562 198.671875,39.6289062 199.779297,39.6289062 C200.667969,39.6289062 201.146484,39.2460938 201.611328,38.4257812 C202.322266,36.8398438 203.416016,36.046875 205.001953,36.046875 C206.765625,36.046875 208.023438,37.2089844 208.023438,38.8359375 C208.023438,40.2578125 207.394531,41.2148438 204.960938,43.5527344 L199.082031,49.171875 C198.248047,49.9375 197.947266,50.4570312 197.947266,51.2363281 C197.947266,52.2753906 198.589844,53 199.888672,53 L210.8125,53 Z" id="Observer2" fill="#FFFFFF" fill-rule="nonzero"></path>
            </g>
            <g id="Group-2" transform="translate(659.000000, 252.500000)">
                <rect id="Rectangle-Copy-3" fill="#44D7B6" x="0" y="0" width="307" height="85" rx="16"></rect>
                <path d="M83.5410156,53.328125 C89.3789062,53.328125 93.0566406,49.4179688 93.0566406,43.1425781 C93.0566406,36.8535156 89.3789062,32.9296875 83.5410156,32.9296875 C77.6894531,32.9296875 74.0253906,36.8535156 74.0253906,43.1425781 C74.0253906,49.4179688 77.6894531,53.328125 83.5410156,53.328125 Z M83.5410156,49.8828125 C80.3007812,49.8828125 78.2363281,47.2714844 78.2363281,43.1425781 C78.2363281,39 80.3144531,36.375 83.5410156,36.375 C86.7675781,36.375 88.8320312,39 88.8320312,43.1425781 C88.8320312,47.2714844 86.7675781,49.8828125 83.5410156,49.8828125 Z M97.4179688,53.2871094 C98.5800781,53.2871094 99.4003906,52.5898438 99.4003906,51.2636719 L99.4003906,50.484375 L99.4824219,50.484375 C100.302734,52.1933594 101.929688,53.2324219 104.076172,53.2324219 C107.78125,53.2324219 110.023438,50.3886719 110.023438,45.671875 C110.023438,40.9414062 107.767578,38.1113281 104.0625,38.1113281 C101.984375,38.1113281 100.34375,39.1503906 99.5371094,40.8867188 L99.4550781,40.8867188 L99.4550781,35.0625 C99.4550781,33.6953125 98.6347656,32.9707031 97.4589844,32.9707031 C96.296875,32.9707031 95.4628906,33.6953125 95.4628906,35.0625 L95.4628906,51.2636719 C95.4628906,52.6035156 96.2695312,53.2871094 97.4179688,53.2871094 Z M102.708984,50.0195312 C100.767578,50.0195312 99.4414062,48.3242188 99.4414062,45.671875 C99.4414062,43.046875 100.767578,41.3105469 102.708984,41.3105469 C104.691406,41.3105469 105.935547,43.0058594 105.935547,45.671875 C105.935547,48.3515625 104.691406,50.0195312 102.708984,50.0195312 Z M118.0625,53.3144531 C121.931641,53.3144531 124.542969,51.4277344 124.542969,48.515625 C124.542969,46.328125 123.257812,45.1796875 120.140625,44.5234375 L117.720703,44.0039062 C116.257812,43.6894531 115.683594,43.1835938 115.683594,42.4179688 C115.683594,41.4746094 116.626953,40.8320312 117.980469,40.8320312 C119.416016,40.8320312 120.208984,41.515625 120.90625,42.4042969 C121.261719,42.828125 121.835938,43.0195312 122.355469,43.0195312 C123.380859,43.0195312 123.886719,42.4589844 123.886719,41.6523438 C123.886719,41.4609375 123.845703,41.2695312 123.791016,41.0644531 C123.3125,39.4101562 121.083984,38.0292969 118.048828,38.0292969 C114.248047,38.0292969 111.828125,39.8339844 111.828125,42.6367188 C111.828125,44.8105469 113.277344,46.2734375 116.148438,46.8886719 L118.609375,47.4082031 C120.044922,47.7226562 120.550781,48.1464844 120.550781,48.9394531 C120.550781,49.9101562 119.607422,50.5117188 118.158203,50.5117188 C116.640625,50.5117188 115.738281,50.046875 114.958984,49.0214844 C114.412109,48.40625 113.865234,48.1191406 113.222656,48.1191406 C112.292969,48.1191406 111.609375,48.734375 111.609375,49.6503906 C111.609375,49.8691406 111.664062,50.1289062 111.759766,50.3886719 C112.457031,52.1113281 114.699219,53.3144531 118.0625,53.3144531 Z M133.251953,53.3144531 C136.082031,53.3144531 138.351562,52.2480469 139.322266,50.4433594 C139.5,50.1152344 139.595703,49.7871094 139.595703,49.4726562 C139.595703,48.5566406 138.898438,48.0097656 138.037109,48.0097656 C137.517578,48.0097656 137.162109,48.1601562 136.738281,48.5976562 C135.658203,49.8691406 134.701172,50.3613281 133.238281,50.3613281 C131.214844,50.3613281 129.902344,48.9394531 129.902344,46.765625 L129.902344,46.5878906 L138.269531,46.5878906 C139.376953,46.5878906 140.005859,45.9589844 140.005859,44.8515625 C140.005859,40.8730469 137.216797,38.0292969 133.060547,38.0292969 C128.726562,38.0292969 125.978516,41.0234375 125.978516,45.7402344 C125.978516,50.484375 128.671875,53.3144531 133.251953,53.3144531 Z M136.164062,44.140625 L129.943359,44.140625 C130.080078,42.2675781 131.351562,40.9824219 133.101562,40.9824219 C134.851562,40.9824219 136.082031,42.2265625 136.164062,44.140625 Z M144.052734,53.2871094 C145.269531,53.2871094 146.048828,52.5351562 146.048828,51.2089844 L146.048828,44.7011719 C146.048828,42.9648438 146.691406,41.9394531 148.509766,41.9121094 C149.289062,41.8984375 149.863281,41.7207031 150.246094,41.3925781 C150.628906,41.0644531 150.820312,40.5859375 150.820312,39.9570312 C150.820312,39.2734375 150.628906,38.78125 150.246094,38.4804688 C149.958984,38.234375 149.535156,38.1113281 149.001953,38.1113281 C147.539062,38.1113281 146.335938,39.1914062 145.953125,41.0097656 L145.871094,41.0097656 L145.871094,40.0527344 C145.871094,38.78125 145.105469,38.0429688 143.984375,38.0429688 C142.835938,38.0429688 142.056641,38.78125 142.056641,40.0527344 L142.056641,51.2089844 C142.056641,52.5351562 142.849609,53.2871094 144.052734,53.2871094 Z M158.394531,53.2871094 C159.84375,53.2871094 160.677734,52.6582031 161.183594,51.25 L164.998047,40.9414062 C165.121094,40.5996094 165.216797,40.1894531 165.216797,39.8203125 C165.216797,38.8085938 164.382812,38.0429688 163.275391,38.0429688 C162.345703,38.0429688 161.675781,38.5488281 161.402344,39.6015625 L158.435547,49.4726562 L158.353516,49.4726562 L155.386719,39.6425781 C155.085938,38.5625 154.443359,38.0429688 153.472656,38.0429688 C152.337891,38.0429688 151.476562,38.7539062 151.476562,39.8339844 C151.476562,40.2441406 151.572266,40.6679688 151.695312,41.0234375 L155.509766,51.25 C156.042969,52.671875 156.863281,53.2871094 158.394531,53.2871094 Z M173.351562,53.3144531 C176.181641,53.3144531 178.451172,52.2480469 179.421875,50.4433594 C179.599609,50.1152344 179.695312,49.7871094 179.695312,49.4726562 C179.695312,48.5566406 178.998047,48.0097656 178.136719,48.0097656 C177.617188,48.0097656 177.261719,48.1601562 176.837891,48.5976562 C175.757812,49.8691406 174.800781,50.3613281 173.337891,50.3613281 C171.314453,50.3613281 170.001953,48.9394531 170.001953,46.765625 L170.001953,46.5878906 L178.369141,46.5878906 C179.476562,46.5878906 180.105469,45.9589844 180.105469,44.8515625 C180.105469,40.8730469 177.316406,38.0292969 173.160156,38.0292969 C168.826172,38.0292969 166.078125,41.0234375 166.078125,45.7402344 C166.078125,50.484375 168.771484,53.3144531 173.351562,53.3144531 Z M176.263672,44.140625 L170.042969,44.140625 C170.179688,42.2675781 171.451172,40.9824219 173.201172,40.9824219 C174.951172,40.9824219 176.181641,42.2265625 176.263672,44.140625 Z M184.152344,53.2871094 C185.369141,53.2871094 186.148438,52.5351562 186.148438,51.2089844 L186.148438,44.7011719 C186.148438,42.9648438 186.791016,41.9394531 188.609375,41.9121094 C189.388672,41.8984375 189.962891,41.7207031 190.345703,41.3925781 C190.728516,41.0644531 190.919922,40.5859375 190.919922,39.9570312 C190.919922,39.2734375 190.728516,38.78125 190.345703,38.4804688 C190.058594,38.234375 189.634766,38.1113281 189.101562,38.1113281 C187.638672,38.1113281 186.435547,39.1914062 186.052734,41.0097656 L185.970703,41.0097656 L185.970703,40.0527344 C185.970703,38.78125 185.205078,38.0429688 184.083984,38.0429688 C182.935547,38.0429688 182.15625,38.78125 182.15625,40.0527344 L182.15625,51.2089844 C182.15625,52.5351562 182.949219,53.2871094 184.152344,53.2871094 Z M205.302734,53.4375 C209.882812,53.4375 212.986328,51.0585938 212.986328,47.4765625 C212.986328,44.7558594 211.085938,43.0332031 208.146484,42.7597656 L208.146484,42.6777344 C210.470703,42.1992188 212.261719,40.5585938 212.261719,38.0566406 C212.261719,34.8984375 209.445312,32.8339844 205.275391,32.8339844 C201.789062,32.8339844 199.546875,34.4472656 198.671875,36.375 C198.466797,36.8398438 198.371094,37.2363281 198.371094,37.7011719 C198.371094,38.6992188 198.958984,39.3691406 200.107422,39.3691406 C201.037109,39.3691406 201.515625,39.0273438 201.966797,38.0976562 C202.609375,36.703125 203.621094,36.0058594 205.289062,36.0058594 C207.285156,36.0058594 208.351562,37.0585938 208.351562,38.6445312 C208.351562,40.2578125 207.011719,41.3789062 204.947266,41.3789062 L204.140625,41.3789062 C203.142578,41.3789062 202.568359,41.9804688 202.568359,42.8417969 C202.568359,43.7304688 203.142578,44.3183594 204.140625,44.3183594 L205.001953,44.3183594 C207.394531,44.3183594 208.802734,45.3847656 208.789062,47.2988281 C208.789062,48.9394531 207.394531,50.1152344 205.371094,50.1152344 C203.320312,50.1152344 202.253906,49.2949219 201.556641,47.9140625 C201.146484,47.1621094 200.626953,46.8339844 199.806641,46.8339844 C198.671875,46.8339844 197.988281,47.5039062 197.988281,48.5703125 C197.988281,48.9804688 198.083984,49.4179688 198.302734,49.8691406 C199.232422,51.8105469 201.542969,53.4375 205.302734,53.4375 Z" id="Observer3" fill="#FFFFFF" fill-rule="nonzero"></path>
            </g>
            <path d="M394.53125,60.5 L394.53125,57.5351562 L396.488281,57.5351562 L396.488281,54.9804688 L394.53125,54.9804688 L394.53125,44.5039062 L390.03125,44.5039062 C387.863281,47.9140625 385.695312,51.4648438 383.820312,54.9804688 L383.820312,57.5351562 L391.554688,57.5351562 L391.554688,60.5 L394.53125,60.5 Z M391.554688,54.9804688 L386.691406,54.9804688 L386.691406,54.9453125 C388.121094,52.2265625 389.808594,49.4375 391.449219,46.8945312 L391.554688,46.8945312 L391.554688,54.9804688 Z M399.769531,64.015625 L401.703125,57.8984375 L398.84375,57.8984375 L397.613281,64.015625 L399.769531,64.015625 Z M423.78125,60.8046875 C427.53125,60.8046875 430.003906,58.8710938 430.003906,56.09375 C430.003906,53.5742188 428.105469,52.4023438 426.652344,52.109375 L426.652344,52.015625 C427.976562,51.6054688 429.371094,50.515625 429.371094,48.4296875 C429.371094,45.9921875 427.15625,44.1992188 423.816406,44.1992188 C420.476562,44.1992188 418.261719,45.9921875 418.261719,48.4296875 C418.261719,50.4921875 419.609375,51.59375 420.96875,52.015625 L420.96875,52.109375 C419.527344,52.4023438 417.617188,53.5625 417.617188,56.1054688 C417.617188,58.8828125 420.042969,60.8046875 423.78125,60.8046875 Z M423.816406,51.0898438 C422.363281,51.0898438 421.285156,50.140625 421.285156,48.78125 C421.285156,47.421875 422.363281,46.5078125 423.816406,46.5078125 C425.269531,46.5078125 426.347656,47.421875 426.347656,48.78125 C426.347656,50.140625 425.269531,51.0898438 423.816406,51.0898438 Z M423.816406,58.5195312 C422.082031,58.5195312 420.769531,57.4648438 420.769531,55.8945312 C420.769531,54.3242188 422.082031,53.2460938 423.816406,53.2460938 C425.539062,53.2460938 426.863281,54.3242188 426.863281,55.8945312 C426.863281,57.4648438 425.539062,58.5195312 423.816406,58.5195312 Z M433.261719,64.015625 L435.195312,57.8984375 L432.335938,57.8984375 L431.105469,64.015625 L433.261719,64.015625 Z M458.128906,60.5 L458.128906,44.5039062 L455.070312,44.5039062 C453.828125,45.2421875 452.433594,46.109375 451.203125,46.9765625 L451.203125,49.8710938 C452.339844,49.0859375 453.898438,48.1132812 454.882812,47.5039062 L454.988281,47.5039062 L454.988281,60.5 L458.128906,60.5 Z M467.082031,60.8046875 C470.632812,60.8046875 473.234375,58.578125 473.234375,55.0976562 C473.234375,51.8398438 470.773438,49.8007812 467.972656,49.8007812 C466.109375,49.8007812 464.902344,50.6445312 464.539062,51.171875 L464.433594,51.171875 L464.832031,47.046875 L472.0625,47.046875 L472.0625,44.4921875 L462.300781,44.4921875 L461.539062,53.9023438 L464.316406,53.9023438 C464.679688,53.1171875 465.582031,52.203125 467.175781,52.203125 C468.839844,52.203125 470.140625,53.3984375 470.140625,55.2382812 C470.140625,57.1835938 468.628906,58.3085938 467.164062,58.3085938 C465.59375,58.3085938 464.457031,57.5 464.257812,56.1992188 L461.339844,56.1992188 C461.433594,58.6953125 463.449219,60.8046875 467.082031,60.8046875 Z M476.457031,64.015625 L478.390625,57.8984375 L475.53125,57.8984375 L474.300781,64.015625 L476.457031,64.015625 Z M505.683594,60.5 L505.683594,57.921875 L498.980469,57.921875 L498.980469,57.828125 L502.589844,53.7734375 C504.429688,51.8046875 505.402344,50.5390625 505.402344,48.6757812 C505.402344,46.0625 503.257812,44.1992188 500.035156,44.1992188 C496.625,44.1992188 494.46875,46.4257812 494.46875,49.1210938 L494.46875,49.2734375 L497.46875,49.2734375 L497.46875,49.0976562 C497.46875,47.8203125 498.40625,46.7304688 499.894531,46.7304688 C501.253906,46.7304688 502.261719,47.609375 502.261719,48.96875 C502.261719,50.1757812 501.523438,51.125 500.480469,52.2265625 L494.667969,58.53125 L494.667969,60.5 L505.683594,60.5 Z M513.324219,60.8164062 C516.722656,60.8164062 519.511719,58.9179688 519.476562,56.0234375 C519.441406,53.4570312 517.542969,52.2734375 516.066406,52.1679688 L516.066406,52.0507812 C517.285156,51.875 518.996094,50.6210938 518.960938,48.359375 C518.914062,45.9335938 516.628906,44.1992188 513.453125,44.1992188 C509.902344,44.1992188 507.96875,46.296875 507.898438,48.8515625 L510.851562,48.8515625 C510.921875,47.8085938 511.707031,46.6484375 513.347656,46.6484375 C514.847656,46.6484375 515.84375,47.5507812 515.84375,48.78125 C515.855469,50.1054688 514.824219,51.0429688 513.300781,51.0429688 L511.660156,51.0429688 L511.660156,53.4804688 L513.382812,53.4804688 C515.246094,53.4804688 516.300781,54.4882812 516.3125,55.8710938 C516.324219,57.2773438 515.246094,58.3320312 513.40625,58.3320312 C511.660156,58.3320312 510.640625,57.3359375 510.511719,56.046875 L507.59375,56.046875 C507.652344,58.6132812 509.480469,60.8164062 513.324219,60.8164062 Z M522.699219,64.015625 L524.632812,57.8984375 L521.773438,57.8984375 L520.542969,64.015625 L522.699219,64.015625 Z M551.140625,60.5 L551.140625,57.5351562 L553.097656,57.5351562 L553.097656,54.9804688 L551.140625,54.9804688 L551.140625,44.5039062 L546.640625,44.5039062 C544.472656,47.9140625 542.304688,51.4648438 540.429688,54.9804688 L540.429688,57.5351562 L548.164062,57.5351562 L548.164062,60.5 L551.140625,60.5 Z M548.164062,54.9804688 L543.300781,54.9804688 L543.300781,54.9453125 C544.730469,52.2265625 546.417969,49.4375 548.058594,46.8945312 L548.164062,46.8945312 L548.164062,54.9804688 Z M566.035156,60.5 L566.035156,57.921875 L559.332031,57.921875 L559.332031,57.828125 L562.941406,53.7734375 C564.78125,51.8046875 565.753906,50.5390625 565.753906,48.6757812 C565.753906,46.0625 563.609375,44.1992188 560.386719,44.1992188 C556.976562,44.1992188 554.820312,46.4257812 554.820312,49.1210938 L554.820312,49.2734375 L557.820312,49.2734375 L557.820312,49.0976562 C557.820312,47.8203125 558.757812,46.7304688 560.246094,46.7304688 C561.605469,46.7304688 562.613281,47.609375 562.613281,48.96875 C562.613281,50.1757812 561.875,51.125 560.832031,52.2265625 L555.019531,58.53125 L555.019531,60.5 L566.035156,60.5 Z M586.917969,64.15625 L586.917969,43.6601562 L584.128906,43.6601562 L584.128906,64.15625 L586.917969,64.15625 Z" id="4,8,15,23,42|" fill="#FFFFFF" fill-rule="nonzero"></path>
            <path d="M394.53125,325.5 L394.53125,322.535156 L396.488281,322.535156 L396.488281,319.980469 L394.53125,319.980469 L394.53125,309.503906 L390.03125,309.503906 C387.863281,312.914062 385.695312,316.464844 383.820312,319.980469 L383.820312,322.535156 L391.554688,322.535156 L391.554688,325.5 L394.53125,325.5 Z M391.554688,319.980469 L386.691406,319.980469 L386.691406,319.945312 C388.121094,317.226562 389.808594,314.4375 391.449219,311.894531 L391.554688,311.894531 L391.554688,319.980469 Z M399.769531,329.015625 L401.703125,322.898438 L398.84375,322.898438 L397.613281,329.015625 L399.769531,329.015625 Z M423.78125,325.804688 C427.53125,325.804688 430.003906,323.871094 430.003906,321.09375 C430.003906,318.574219 428.105469,317.402344 426.652344,317.109375 L426.652344,317.015625 C427.976562,316.605469 429.371094,315.515625 429.371094,313.429688 C429.371094,310.992188 427.15625,309.199219 423.816406,309.199219 C420.476562,309.199219 418.261719,310.992188 418.261719,313.429688 C418.261719,315.492188 419.609375,316.59375 420.96875,317.015625 L420.96875,317.109375 C419.527344,317.402344 417.617188,318.5625 417.617188,321.105469 C417.617188,323.882812 420.042969,325.804688 423.78125,325.804688 Z M423.816406,316.089844 C422.363281,316.089844 421.285156,315.140625 421.285156,313.78125 C421.285156,312.421875 422.363281,311.507812 423.816406,311.507812 C425.269531,311.507812 426.347656,312.421875 426.347656,313.78125 C426.347656,315.140625 425.269531,316.089844 423.816406,316.089844 Z M423.816406,323.519531 C422.082031,323.519531 420.769531,322.464844 420.769531,320.894531 C420.769531,319.324219 422.082031,318.246094 423.816406,318.246094 C425.539062,318.246094 426.863281,319.324219 426.863281,320.894531 C426.863281,322.464844 425.539062,323.519531 423.816406,323.519531 Z M433.261719,329.015625 L435.195312,322.898438 L432.335938,322.898438 L431.105469,329.015625 L433.261719,329.015625 Z M458.128906,325.5 L458.128906,309.503906 L455.070312,309.503906 C453.828125,310.242188 452.433594,311.109375 451.203125,311.976562 L451.203125,314.871094 C452.339844,314.085938 453.898438,313.113281 454.882812,312.503906 L454.988281,312.503906 L454.988281,325.5 L458.128906,325.5 Z M467.082031,325.804688 C470.632812,325.804688 473.234375,323.578125 473.234375,320.097656 C473.234375,316.839844 470.773438,314.800781 467.972656,314.800781 C466.109375,314.800781 464.902344,315.644531 464.539062,316.171875 L464.433594,316.171875 L464.832031,312.046875 L472.0625,312.046875 L472.0625,309.492188 L462.300781,309.492188 L461.539062,318.902344 L464.316406,318.902344 C464.679688,318.117188 465.582031,317.203125 467.175781,317.203125 C468.839844,317.203125 470.140625,318.398438 470.140625,320.238281 C470.140625,322.183594 468.628906,323.308594 467.164062,323.308594 C465.59375,323.308594 464.457031,322.5 464.257812,321.199219 L461.339844,321.199219 C461.433594,323.695312 463.449219,325.804688 467.082031,325.804688 Z M476.457031,329.015625 L478.390625,322.898438 L475.53125,322.898438 L474.300781,329.015625 L476.457031,329.015625 Z M505.683594,325.5 L505.683594,322.921875 L498.980469,322.921875 L498.980469,322.828125 L502.589844,318.773438 C504.429688,316.804688 505.402344,315.539062 505.402344,313.675781 C505.402344,311.0625 503.257812,309.199219 500.035156,309.199219 C496.625,309.199219 494.46875,311.425781 494.46875,314.121094 L494.46875,314.273438 L497.46875,314.273438 L497.46875,314.097656 C497.46875,312.820312 498.40625,311.730469 499.894531,311.730469 C501.253906,311.730469 502.261719,312.609375 502.261719,313.96875 C502.261719,315.175781 501.523438,316.125 500.480469,317.226562 L494.667969,323.53125 L494.667969,325.5 L505.683594,325.5 Z M513.324219,325.816406 C516.722656,325.816406 519.511719,323.917969 519.476562,321.023438 C519.441406,318.457031 517.542969,317.273438 516.066406,317.167969 L516.066406,317.050781 C517.285156,316.875 518.996094,315.621094 518.960938,313.359375 C518.914062,310.933594 516.628906,309.199219 513.453125,309.199219 C509.902344,309.199219 507.96875,311.296875 507.898438,313.851562 L510.851562,313.851562 C510.921875,312.808594 511.707031,311.648438 513.347656,311.648438 C514.847656,311.648438 515.84375,312.550781 515.84375,313.78125 C515.855469,315.105469 514.824219,316.042969 513.300781,316.042969 L511.660156,316.042969 L511.660156,318.480469 L513.382812,318.480469 C515.246094,318.480469 516.300781,319.488281 516.3125,320.871094 C516.324219,322.277344 515.246094,323.332031 513.40625,323.332031 C511.660156,323.332031 510.640625,322.335938 510.511719,321.046875 L507.59375,321.046875 C507.652344,323.613281 509.480469,325.816406 513.324219,325.816406 Z M522.699219,329.015625 L524.632812,322.898438 L521.773438,322.898438 L520.542969,329.015625 L522.699219,329.015625 Z M551.140625,325.5 L551.140625,322.535156 L553.097656,322.535156 L553.097656,319.980469 L551.140625,319.980469 L551.140625,309.503906 L546.640625,309.503906 C544.472656,312.914062 542.304688,316.464844 540.429688,319.980469 L540.429688,322.535156 L548.164062,322.535156 L548.164062,325.5 L551.140625,325.5 Z M548.164062,319.980469 L543.300781,319.980469 L543.300781,319.945312 C544.730469,317.226562 546.417969,314.4375 548.058594,311.894531 L548.164062,311.894531 L548.164062,319.980469 Z M566.035156,325.5 L566.035156,322.921875 L559.332031,322.921875 L559.332031,322.828125 L562.941406,318.773438 C564.78125,316.804688 565.753906,315.539062 565.753906,313.675781 C565.753906,311.0625 563.609375,309.199219 560.386719,309.199219 C556.976562,309.199219 554.820312,311.425781 554.820312,314.121094 L554.820312,314.273438 L557.820312,314.273438 L557.820312,314.097656 C557.820312,312.820312 558.757812,311.730469 560.246094,311.730469 C561.605469,311.730469 562.613281,312.609375 562.613281,313.96875 C562.613281,315.175781 561.875,316.125 560.832031,317.226562 L555.019531,323.53125 L555.019531,325.5 L566.035156,325.5 Z M586.917969,329.15625 L586.917969,308.660156 L584.128906,308.660156 L584.128906,329.15625 L586.917969,329.15625 Z" id="4,8,15,23,42|" fill="#FFFFFF" fill-rule="nonzero"></path>
            <path d="M441.53125,219.5 L441.53125,216.535156 L443.488281,216.535156 L443.488281,213.980469 L441.53125,213.980469 L441.53125,203.503906 L437.03125,203.503906 C434.863281,206.914062 432.695312,210.464844 430.820312,213.980469 L430.820312,216.535156 L438.554688,216.535156 L438.554688,219.5 L441.53125,219.5 Z M438.554688,213.980469 L433.691406,213.980469 L433.691406,213.945312 C435.121094,211.226562 436.808594,208.4375 438.449219,205.894531 L438.554688,205.894531 L438.554688,213.980469 Z M446.769531,223.015625 L448.703125,216.898438 L445.84375,216.898438 L444.613281,223.015625 L446.769531,223.015625 Z M470.78125,219.804688 C474.53125,219.804688 477.003906,217.871094 477.003906,215.09375 C477.003906,212.574219 475.105469,211.402344 473.652344,211.109375 L473.652344,211.015625 C474.976562,210.605469 476.371094,209.515625 476.371094,207.429688 C476.371094,204.992188 474.15625,203.199219 470.816406,203.199219 C467.476562,203.199219 465.261719,204.992188 465.261719,207.429688 C465.261719,209.492188 466.609375,210.59375 467.96875,211.015625 L467.96875,211.109375 C466.527344,211.402344 464.617188,212.5625 464.617188,215.105469 C464.617188,217.882812 467.042969,219.804688 470.78125,219.804688 Z M470.816406,210.089844 C469.363281,210.089844 468.285156,209.140625 468.285156,207.78125 C468.285156,206.421875 469.363281,205.507812 470.816406,205.507812 C472.269531,205.507812 473.347656,206.421875 473.347656,207.78125 C473.347656,209.140625 472.269531,210.089844 470.816406,210.089844 Z M470.816406,217.519531 C469.082031,217.519531 467.769531,216.464844 467.769531,214.894531 C467.769531,213.324219 469.082031,212.246094 470.816406,212.246094 C472.539062,212.246094 473.863281,213.324219 473.863281,214.894531 C473.863281,216.464844 472.539062,217.519531 470.816406,217.519531 Z M480.261719,223.015625 L482.195312,216.898438 L479.335938,216.898438 L478.105469,223.015625 L480.261719,223.015625 Z M505.128906,219.5 L505.128906,203.503906 L502.070312,203.503906 C500.828125,204.242188 499.433594,205.109375 498.203125,205.976562 L498.203125,208.871094 C499.339844,208.085938 500.898438,207.113281 501.882812,206.503906 L501.988281,206.503906 L501.988281,219.5 L505.128906,219.5 Z M514.082031,219.804688 C517.632812,219.804688 520.234375,217.578125 520.234375,214.097656 C520.234375,210.839844 517.773438,208.800781 514.972656,208.800781 C513.109375,208.800781 511.902344,209.644531 511.539062,210.171875 L511.433594,210.171875 L511.832031,206.046875 L519.0625,206.046875 L519.0625,203.492188 L509.300781,203.492188 L508.539062,212.902344 L511.316406,212.902344 C511.679688,212.117188 512.582031,211.203125 514.175781,211.203125 C515.839844,211.203125 517.140625,212.398438 517.140625,214.238281 C517.140625,216.183594 515.628906,217.308594 514.164062,217.308594 C512.59375,217.308594 511.457031,216.5 511.257812,215.199219 L508.339844,215.199219 C508.433594,217.695312 510.449219,219.804688 514.082031,219.804688 Z M523.457031,223.015625 L525.390625,216.898438 L522.53125,216.898438 L521.300781,223.015625 L523.457031,223.015625 Z M552.683594,219.5 L552.683594,216.921875 L545.980469,216.921875 L545.980469,216.828125 L549.589844,212.773438 C551.429688,210.804688 552.402344,209.539062 552.402344,207.675781 C552.402344,205.0625 550.257812,203.199219 547.035156,203.199219 C543.625,203.199219 541.46875,205.425781 541.46875,208.121094 L541.46875,208.273438 L544.46875,208.273438 L544.46875,208.097656 C544.46875,206.820312 545.40625,205.730469 546.894531,205.730469 C548.253906,205.730469 549.261719,206.609375 549.261719,207.96875 C549.261719,209.175781 548.523438,210.125 547.480469,211.226562 L541.667969,217.53125 L541.667969,219.5 L552.683594,219.5 Z M560.324219,219.816406 C563.722656,219.816406 566.511719,217.917969 566.476562,215.023438 C566.441406,212.457031 564.542969,211.273438 563.066406,211.167969 L563.066406,211.050781 C564.285156,210.875 565.996094,209.621094 565.960938,207.359375 C565.914062,204.933594 563.628906,203.199219 560.453125,203.199219 C556.902344,203.199219 554.96875,205.296875 554.898438,207.851562 L557.851562,207.851562 C557.921875,206.808594 558.707031,205.648438 560.347656,205.648438 C561.847656,205.648438 562.84375,206.550781 562.84375,207.78125 C562.855469,209.105469 561.824219,210.042969 560.300781,210.042969 L558.660156,210.042969 L558.660156,212.480469 L560.382812,212.480469 C562.246094,212.480469 563.300781,213.488281 563.3125,214.871094 C563.324219,216.277344 562.246094,217.332031 560.40625,217.332031 C558.660156,217.332031 557.640625,216.335938 557.511719,215.046875 L554.59375,215.046875 C554.652344,217.613281 556.480469,219.816406 560.324219,219.816406 Z M569.699219,223.015625 L571.632812,216.898438 L568.773438,216.898438 L567.542969,223.015625 L569.699219,223.015625 Z M598.140625,219.5 L598.140625,216.535156 L600.097656,216.535156 L600.097656,213.980469 L598.140625,213.980469 L598.140625,203.503906 L593.640625,203.503906 C591.472656,206.914062 589.304688,210.464844 587.429688,213.980469 L587.429688,216.535156 L595.164062,216.535156 L595.164062,219.5 L598.140625,219.5 Z M595.164062,213.980469 L590.300781,213.980469 L590.300781,213.945312 C591.730469,211.226562 593.417969,208.4375 595.058594,205.894531 L595.164062,205.894531 L595.164062,213.980469 Z M613.035156,219.5 L613.035156,216.921875 L606.332031,216.921875 L606.332031,216.828125 L609.941406,212.773438 C611.78125,210.804688 612.753906,209.539062 612.753906,207.675781 C612.753906,205.0625 610.609375,203.199219 607.386719,203.199219 C603.976562,203.199219 601.820312,205.425781 601.820312,208.121094 L601.820312,208.273438 L604.820312,208.273438 L604.820312,208.097656 C604.820312,206.820312 605.757812,205.730469 607.246094,205.730469 C608.605469,205.730469 609.613281,206.609375 609.613281,207.96875 C609.613281,209.175781 608.875,210.125 607.832031,211.226562 L602.019531,217.53125 L602.019531,219.5 L613.035156,219.5 Z M633.917969,223.15625 L633.917969,202.660156 L631.128906,202.660156 L631.128906,223.15625 L633.917969,223.15625 Z" id="4,8,15,23,42|" fill="#FFFFFF" fill-rule="nonzero"></path>
            <path id="Line" d="M613.570165,67.8606847 L637.5,80 L613.430647,91.8602792 L613.487927,81.8815649 C560.052618,82.1787737 521.7386,86.4519545 498.633663,94.6504805 C472.594313,103.89025 447.319498,124.724776 422.843337,157.209537 L422.10188,158.19749 L420.90439,159.799369 L417.700631,157.40439 L418.89812,155.80251 C444.041293,122.168538 470.162206,100.508898 497.296024,90.8807695 C520.929394,82.494735 559.638708,78.1784936 613.511844,77.8813678 L613.570165,67.8606847 Z" fill="#FFFFFF" fill-rule="nonzero"></path>
            <path id="Line-Copy-2" d="M420.458632,236.171875 L421.893379,237.565254 C446.582176,261.542208 472.104821,276.906923 498.463779,283.69732 C521.631361,289.665579 559.998956,292.772138 613.490671,292.987917 L613.449586,283.003279 L637.5,294.901916 L613.550842,307.003065 L613.50783,296.988021 C559.691749,296.772268 521.036424,293.642912 497.465909,287.570852 C470.682992,280.671238 444.836041,265.211549 419.927444,241.228484 L419.106621,240.434746 L417.671875,239.041368 L420.458632,236.171875 Z" fill="#FFFFFF" fill-rule="nonzero"></path>
            <path id="Line-Copy" d="M672.978873,176.542347 L697,188.5 L673.021201,200.542309 L673.003,190.542 L413.503527,190.999997 L411.50353,191.003524 L411.496476,187.00353 L413.496473,187.000003 L672.996,186.542 L672.978873,176.542347 Z" fill="#FFFFFF" fill-rule="nonzero"></path>
        </g>
    </g>
</svg>