<?xml version="1.0" encoding="UTF-8"?>
<svg width="1125px" height="375px" viewBox="0 0 1125 375" version="1.1" xmlns="http://www.w3.org/2000/svg" xmlns:xlink="http://www.w3.org/1999/xlink">
    <title>array-time-spaced</title>
    <g id="Page-1" stroke="none" stroke-width="1" fill="none" fill-rule="evenodd">
        <g id="array-time-spaced">
            <g id="Rectangle" fill="#000000">
                <rect x="0" y="0" width="1125" height="375"></rect>
            </g>
            <g id="Group" transform="translate(163.000000, 187.000000)" fill="#FFFFFF" fill-rule="nonzero">
                <g id="Line">
                    <path d="M766.008484,-16.3152427 L799.999898,0.701918197 L765.991321,17.684753 L765.998,3.684 L-0.00151438648,3.29808142 L-3.001514,3.29656703 L-2.99848523,-2.7034322 L0.00151438648,-2.70191782 L766.001,-2.315 L766.008484,-16.3152427 Z"></path>
                </g>
            </g>
            <g id="1" transform="translate(225.000000, 139.000000)">
                <circle id="Oval" stroke="#FFFFFF" stroke-width="6" fill="#F7B500" cx="48" cy="48" r="48"></circle>
                <path d="M49.5234375,65.78125 C51.515625,65.78125 52.6640625,64.5390625 52.6640625,62.3828125 L52.6640625,37.234375 C52.6640625,34.8671875 51.140625,33.296875 48.8671875,33.296875 C47.5546875,33.296875 46.21875,33.765625 44.53125,34.9140625 L40.3359375,37.84375 C39.140625,38.640625 38.53125,39.5078125 38.53125,40.4921875 C38.53125,41.78125 39.4921875,42.7421875 40.78125,42.7421875 C41.4609375,42.7421875 42.046875,42.53125 43.0546875,41.875 L46.265625,39.6015625 L46.40625,39.6015625 L46.40625,62.3828125 C46.40625,64.515625 47.5546875,65.78125 49.5234375,65.78125 Z" fill="#FFFFFF" fill-rule="nonzero"></path>
            </g>
            <g id="2" transform="translate(372.000000, 139.000000)">
                <circle id="Oval-Copy" stroke="#FFFFFF" stroke-width="6" fill="#32C5FF" cx="48" cy="48" r="48"></circle>
                <path d="M56.5546875,65.5 C58.40625,65.5 59.5078125,64.5390625 59.5078125,62.9453125 C59.5078125,61.328125 58.3828125,60.34375 56.5546875,60.34375 L45.5625,60.34375 L45.5625,60.0390625 L53.015625,52.0703125 C57.0234375,47.8515625 58.4765625,45.203125 58.4765625,41.9921875 C58.4765625,36.71875 54.0234375,32.8984375 47.8359375,32.8984375 C41.5078125,32.8984375 37.0078125,37 37.0078125,41.21875 C37.0078125,42.7890625 38.0859375,43.9140625 39.65625,43.9140625 C40.875,43.9140625 41.671875,43.28125 42.421875,41.828125 C43.3359375,39.3671875 45.09375,38.0546875 47.484375,38.0546875 C50.3671875,38.0546875 52.3125,39.859375 52.3125,42.53125 C52.3125,44.5 51.28125,46.28125 48.703125,49.0234375 L39.9609375,58.4453125 C37.9921875,60.4609375 37.359375,61.46875 37.359375,62.6640625 C37.359375,64.375 38.6953125,65.5 40.7578125,65.5 L56.5546875,65.5 Z" fill="#FFFFFF" fill-rule="nonzero"></path>
            </g>
            <g id="3" transform="translate(684.000000, 140.000000)">
                <circle id="Oval-Copy-2" stroke="#FFFFFF" stroke-width="6" fill="#6DD400" cx="48" cy="48" r="48"></circle>
                <path d="M47.1796875,66.1796875 C54.234375,66.1796875 59.203125,62.265625 59.203125,56.6640625 C59.203125,52.609375 56.2734375,49.28125 52.3828125,48.90625 L52.3828125,48.5078125 C55.6171875,48.0390625 58.21875,44.8515625 58.21875,41.3828125 C58.21875,36.390625 53.671875,32.8984375 47.203125,32.8984375 C41.0859375,32.8984375 36.515625,36.34375 36.515625,40.09375 C36.515625,41.6171875 37.59375,42.671875 39.09375,42.671875 C40.1953125,42.671875 41.015625,42.1796875 41.71875,41.0078125 C42.9609375,38.8984375 44.765625,37.8203125 47.0859375,37.8203125 C50.0625,37.8203125 52.125,39.578125 52.125,42.15625 C52.125,44.734375 50.015625,46.609375 47.1328125,46.609375 L44.953125,46.609375 C43.5234375,46.609375 42.515625,47.6640625 42.515625,49.0703125 C42.515625,50.5234375 43.546875,51.578125 44.953125,51.578125 L47.25,51.578125 C50.6953125,51.578125 53.015625,53.546875 53.015625,56.453125 C53.015625,59.359375 50.7421875,61.2578125 47.2265625,61.2578125 C44.6015625,61.2578125 42.515625,60.109375 41.15625,57.953125 C40.2890625,56.6875 39.515625,56.1953125 38.484375,56.1953125 C37.0546875,56.1953125 36,57.2734375 36,58.75 C36,62.6171875 40.8515625,66.1796875 47.1796875,66.1796875 Z" fill="#FFFFFF" fill-rule="nonzero"></path>
            </g>
        </g>
    </g>
</svg>