<?xml version="1.0" encoding="UTF-8"?>
<svg width="1125px" height="375px" viewBox="0 0 1125 375" version="1.1" xmlns="http://www.w3.org/2000/svg" xmlns:xlink="http://www.w3.org/1999/xlink">
    <title>observable-int</title>
    <defs>
        <filter id="filter-1">
            <feColorMatrix in="SourceGraphic" type="matrix" values="0 0 0 0 0.878431 0 0 0 0 0.125490 0 0 0 0 0.125490 0 0 0 1.000000 0"></feColorMatrix>
        </filter>
    </defs>
    <g id="Page-1" stroke="none" stroke-width="1" fill="none" fill-rule="evenodd">
        <g id="observable-int">
            <g id="Rectangle" fill="#000000">
                <rect x="0" y="0" width="1125" height="375"></rect>
            </g>
            <g id="Group" transform="translate(163.000000, 187.000000)" fill="#FFFFFF" fill-rule="nonzero">
                <g id="Line">
                    <path d="M766.008484,-16.3152427 L799.999898,0.701918197 L765.991321,17.684753 L765.998,3.684 L-0.00151438648,3.29808142 L-3.001514,3.29656703 L-2.99848523,-2.7034322 L0.00151438648,-2.70191782 L766.001,-2.315 L766.008484,-16.3152427 Z"></path>
                </g>
            </g>
            <g id="1" transform="translate(225.000000, 139.000000)">
                <circle id="Oval" stroke="#FFFFFF" stroke-width="6" fill="#F7B500" cx="48" cy="48" r="48"></circle>
                <path d="M49.5234375,65.78125 C51.515625,65.78125 52.6640625,64.5390625 52.6640625,62.3828125 L52.6640625,37.234375 C52.6640625,34.8671875 51.140625,33.296875 48.8671875,33.296875 C47.5546875,33.296875 46.21875,33.765625 44.53125,34.9140625 L40.3359375,37.84375 C39.140625,38.640625 38.53125,39.5078125 38.53125,40.4921875 C38.53125,41.78125 39.4921875,42.7421875 40.78125,42.7421875 C41.4609375,42.7421875 42.046875,42.53125 43.0546875,41.875 L46.265625,39.6015625 L46.40625,39.6015625 L46.40625,62.3828125 C46.40625,64.515625 47.5546875,65.78125 49.5234375,65.78125 Z" fill="#FFFFFF" fill-rule="nonzero"></path>
            </g>
            <g id="Group" transform="translate(537.000000, 139.000000)" stroke-linecap="square">
                <g filter="url(#filter-1)">
                    <g transform="translate(48.000000, 48.000000) rotate(-315.000000) translate(-48.000000, -48.000000) ">
                        <path d="M48.375,-5.82645043e-13 L48.375,96 M96,47.625 L6.82121026e-13,47.625" id="Combined-Shape" stroke="#FFFFFF" stroke-width="6"></path>
                    </g>
                </g>
            </g>
            <g id="Group" transform="translate(875.000000, 152.000000)" stroke="#FFFFFF" stroke-linecap="square" stroke-width="6">
                <g id="Line-3">
                    <line x1="0.375" y1="8.32667268e-17" x2="0.375" y2="72"></line>
                </g>
            </g>
            <g id="2" transform="translate(372.000000, 139.000000)">
                <circle id="Oval-Copy" stroke="#FFFFFF" stroke-width="6" fill="#32C5FF" cx="48" cy="48" r="48"></circle>
                <path d="M56.5546875,65.5 C58.40625,65.5 59.5078125,64.5390625 59.5078125,62.9453125 C59.5078125,61.328125 58.3828125,60.34375 56.5546875,60.34375 L45.5625,60.34375 L45.5625,60.0390625 L53.015625,52.0703125 C57.0234375,47.8515625 58.4765625,45.203125 58.4765625,41.9921875 C58.4765625,36.71875 54.0234375,32.8984375 47.8359375,32.8984375 C41.5078125,32.8984375 37.0078125,37 37.0078125,41.21875 C37.0078125,42.7890625 38.0859375,43.9140625 39.65625,43.9140625 C40.875,43.9140625 41.671875,43.28125 42.421875,41.828125 C43.3359375,39.3671875 45.09375,38.0546875 47.484375,38.0546875 C50.3671875,38.0546875 52.3125,39.859375 52.3125,42.53125 C52.3125,44.5 51.28125,46.28125 48.703125,49.0234375 L39.9609375,58.4453125 C37.9921875,60.4609375 37.359375,61.46875 37.359375,62.6640625 C37.359375,64.375 38.6953125,65.5 40.7578125,65.5 L56.5546875,65.5 Z" fill="#FFFFFF" fill-rule="nonzero"></path>
            </g>
            <g id="3" transform="translate(684.000000, 140.000000)">
                <circle id="Oval-Copy-2" stroke="#FFFFFF" stroke-width="6" fill="#6DD400" cx="48" cy="48" r="48"></circle>
                <path d="M47.1796875,66.1796875 C54.234375,66.1796875 59.203125,62.265625 59.203125,56.6640625 C59.203125,52.609375 56.2734375,49.28125 52.3828125,48.90625 L52.3828125,48.5078125 C55.6171875,48.0390625 58.21875,44.8515625 58.21875,41.3828125 C58.21875,36.390625 53.671875,32.8984375 47.203125,32.8984375 C41.0859375,32.8984375 36.515625,36.34375 36.515625,40.09375 C36.515625,41.6171875 37.59375,42.671875 39.09375,42.671875 C40.1953125,42.671875 41.015625,42.1796875 41.71875,41.0078125 C42.9609375,38.8984375 44.765625,37.8203125 47.0859375,37.8203125 C50.0625,37.8203125 52.125,39.578125 52.125,42.15625 C52.125,44.734375 50.015625,46.609375 47.1328125,46.609375 L44.953125,46.609375 C43.5234375,46.609375 42.515625,47.6640625 42.515625,49.0703125 C42.515625,50.5234375 43.546875,51.578125 44.953125,51.578125 L47.25,51.578125 C50.6953125,51.578125 53.015625,53.546875 53.015625,56.453125 C53.015625,59.359375 50.7421875,61.2578125 47.2265625,61.2578125 C44.6015625,61.2578125 42.515625,60.109375 41.15625,57.953125 C40.2890625,56.6875 39.515625,56.1953125 38.484375,56.1953125 C37.0546875,56.1953125 36,57.2734375 36,58.75 C36,62.6171875 40.8515625,66.1796875 47.1796875,66.1796875 Z" fill="#FFFFFF" fill-rule="nonzero"></path>
            </g>
            <path d="M90.5351562,346 L90.5351562,331.914062 L95.3515625,331.914062 L95.3515625,330.003906 L83.5507812,330.003906 L83.5507812,331.914062 L88.3789062,331.914062 L88.3789062,346 L90.5351562,346 Z M98.984375,331.328125 C99.875,331.328125 100.519531,330.71875 100.519531,329.875 C100.519531,329.019531 99.875,328.410156 98.984375,328.410156 C98.140625,328.410156 97.4960938,329.019531 97.4960938,329.875 C97.4960938,330.71875 98.140625,331.328125 98.984375,331.328125 Z M100.0625,346 L100.0625,333.671875 L97.9414062,333.671875 L97.9414062,346 L100.0625,346 Z M106.648438,346 L106.648438,338.160156 C106.648438,336.472656 107.761719,335.3125 109.308594,335.3125 C110.925781,335.3125 111.921875,336.402344 111.921875,338.007812 L111.921875,346 L114.019531,346 L114.019531,338.183594 C114.019531,336.496094 115.203125,335.3125 116.738281,335.3125 C118.402344,335.3125 119.292969,336.34375 119.292969,337.925781 L119.292969,346 L121.414062,346 L121.414062,337.328125 C121.414062,334.855469 119.878906,333.472656 117.359375,333.472656 C115.273438,333.472656 114.101562,334.585938 113.597656,335.792969 L113.503906,335.792969 C113.117188,334.46875 111.945312,333.472656 110.082031,333.472656 C107.808594,333.472656 107.023438,334.761719 106.742188,335.640625 L106.625,335.640625 L106.625,333.671875 L104.527344,333.671875 L104.527344,346 L106.648438,346 Z M130.203125,346.199219 C133.320312,346.199219 134.808594,344.265625 134.996094,342.953125 L132.816406,342.953125 C132.605469,343.714844 131.632812,344.40625 130.191406,344.40625 C128.140625,344.40625 127.039062,342.917969 127.039062,341.007812 L127.039062,340.386719 L135.160156,340.386719 L135.160156,338.898438 C135.160156,335.582031 133.027344,333.472656 130.039062,333.472656 C127.085938,333.472656 124.929688,335.546875 124.929688,338.898438 L124.929688,340.773438 C124.929688,344.101562 126.886719,346.199219 130.203125,346.199219 Z M133.050781,338.851562 L127.039062,338.851562 L127.039062,338.652344 C127.039062,336.601562 128.246094,335.253906 130.050781,335.253906 C131.855469,335.253906 133.050781,336.601562 133.050781,338.652344 L133.050781,338.851562 Z M219.851562,346.328125 C223.484375,346.328125 225.570312,343.152344 225.570312,338.3125 L225.570312,337.714844 C225.570312,332.863281 223.496094,329.675781 219.875,329.675781 C216.230469,329.675781 214.132812,332.875 214.132812,337.714844 L214.132812,338.3125 C214.132812,343.164062 216.230469,346.328125 219.851562,346.328125 Z M219.851562,344.464844 C217.660156,344.464844 216.277344,342.132812 216.277344,338.289062 L216.277344,337.726562 C216.277344,333.882812 217.660156,331.539062 219.851562,331.539062 C222.054688,331.539062 223.425781,333.882812 223.425781,337.726562 L223.425781,338.289062 C223.425781,342.132812 222.054688,344.464844 219.851562,344.464844 Z M230.691406,335.804688 C231.664062,335.804688 232.414062,335.101562 232.414062,334.152344 C232.414062,333.15625 231.664062,332.453125 230.691406,332.453125 C229.765625,332.453125 229.015625,333.15625 229.015625,334.152344 C229.015625,335.101562 229.777344,335.804688 230.691406,335.804688 Z M230.691406,343.773438 C231.664062,343.773438 232.414062,343.070312 232.414062,342.121094 C232.414062,341.136719 231.664062,340.421875 230.691406,340.421875 C229.765625,340.421875 229.015625,341.125 229.015625,342.121094 C229.015625,343.070312 229.777344,343.773438 230.691406,343.773438 Z M241.578125,346.328125 C245.210938,346.328125 247.296875,343.152344 247.296875,338.3125 L247.296875,337.714844 C247.296875,332.863281 245.222656,329.675781 241.601562,329.675781 C237.957031,329.675781 235.859375,332.875 235.859375,337.714844 L235.859375,338.3125 C235.859375,343.164062 237.957031,346.328125 241.578125,346.328125 Z M241.578125,344.464844 C239.386719,344.464844 238.003906,342.132812 238.003906,338.289062 L238.003906,337.726562 C238.003906,333.882812 239.386719,331.539062 241.578125,331.539062 C243.78125,331.539062 245.152344,333.882812 245.152344,337.726562 L245.152344,338.289062 C245.152344,342.132812 243.78125,344.464844 241.578125,344.464844 Z M256.695312,346 L256.695312,330.003906 L254.5625,330.003906 L250.753906,332.828125 L250.753906,334.996094 L254.457031,332.3125 L254.5625,332.3125 L254.5625,346 L256.695312,346 Z M321.40625,346.328125 C325.039062,346.328125 327.125,343.152344 327.125,338.3125 L327.125,337.714844 C327.125,332.863281 325.050781,329.675781 321.429688,329.675781 C317.785156,329.675781 315.6875,332.875 315.6875,337.714844 L315.6875,338.3125 C315.6875,343.164062 317.785156,346.328125 321.40625,346.328125 Z M321.40625,344.464844 C319.214844,344.464844 317.832031,342.132812 317.832031,338.289062 L317.832031,337.726562 C317.832031,333.882812 319.214844,331.539062 321.40625,331.539062 C323.609375,331.539062 324.980469,333.882812 324.980469,337.726562 L324.980469,338.289062 C324.980469,342.132812 323.609375,344.464844 321.40625,344.464844 Z M332.246094,335.804688 C333.21875,335.804688 333.96875,335.101562 333.96875,334.152344 C333.96875,333.15625 333.21875,332.453125 332.246094,332.453125 C331.320312,332.453125 330.570312,333.15625 330.570312,334.152344 C330.570312,335.101562 331.332031,335.804688 332.246094,335.804688 Z M332.246094,343.773438 C333.21875,343.773438 333.96875,343.070312 333.96875,342.121094 C333.96875,341.136719 333.21875,340.421875 332.246094,340.421875 C331.320312,340.421875 330.570312,341.125 330.570312,342.121094 C330.570312,343.070312 331.332031,343.773438 332.246094,343.773438 Z M343.132812,346.328125 C346.765625,346.328125 348.851562,343.152344 348.851562,338.3125 L348.851562,337.714844 C348.851562,332.863281 346.777344,329.675781 343.15625,329.675781 C339.511719,329.675781 337.414062,332.875 337.414062,337.714844 L337.414062,338.3125 C337.414062,343.164062 339.511719,346.328125 343.132812,346.328125 Z M343.132812,344.464844 C340.941406,344.464844 339.558594,342.132812 339.558594,338.289062 L339.558594,337.726562 C339.558594,333.882812 340.941406,331.539062 343.132812,331.539062 C345.335938,331.539062 346.707031,333.882812 346.707031,337.726562 L346.707031,338.289062 C346.707031,342.132812 345.335938,344.464844 343.132812,344.464844 Z M357.441406,346.328125 C360.816406,346.328125 363.113281,344.078125 363.113281,340.773438 C363.113281,337.539062 360.792969,335.617188 358.003906,335.617188 C356.234375,335.617188 355.121094,336.472656 354.792969,336.988281 L354.675781,336.988281 L355.109375,331.867188 L362.316406,331.867188 L362.316406,330.003906 L353.28125,330.003906 L352.566406,339.191406 L354.394531,339.191406 C354.828125,338.40625 355.882812,337.433594 357.535156,337.433594 C359.339844,337.433594 360.945312,338.722656 360.945312,340.832031 C360.945312,343.222656 359.210938,344.5 357.570312,344.5 C356.105469,344.5 354.605469,343.867188 354.289062,342.273438 L352.226562,342.273438 C352.378906,344.617188 354.488281,346.328125 357.441406,346.328125 Z M469.460938,346.328125 C473.09375,346.328125 475.179688,343.152344 475.179688,338.3125 L475.179688,337.714844 C475.179688,332.863281 473.105469,329.675781 469.484375,329.675781 C465.839844,329.675781 463.742188,332.875 463.742188,337.714844 L463.742188,338.3125 C463.742188,343.164062 465.839844,346.328125 469.460938,346.328125 Z M469.460938,344.464844 C467.269531,344.464844 465.886719,342.132812 465.886719,338.289062 L465.886719,337.726562 C465.886719,333.882812 467.269531,331.539062 469.460938,331.539062 C471.664062,331.539062 473.035156,333.882812 473.035156,337.726562 L473.035156,338.289062 C473.035156,342.132812 471.664062,344.464844 469.460938,344.464844 Z M480.300781,335.804688 C481.273438,335.804688 482.023438,335.101562 482.023438,334.152344 C482.023438,333.15625 481.273438,332.453125 480.300781,332.453125 C479.375,332.453125 478.625,333.15625 478.625,334.152344 C478.625,335.101562 479.386719,335.804688 480.300781,335.804688 Z M480.300781,343.773438 C481.273438,343.773438 482.023438,343.070312 482.023438,342.121094 C482.023438,341.136719 481.273438,340.421875 480.300781,340.421875 C479.375,340.421875 478.625,341.125 478.625,342.121094 C478.625,343.070312 479.386719,343.773438 480.300781,343.773438 Z M491.316406,346 L491.316406,330.003906 L489.183594,330.003906 L485.375,332.828125 L485.375,334.996094 L489.078125,332.3125 L489.183594,332.3125 L489.183594,346 L491.316406,346 Z M501.769531,346.328125 C505.402344,346.328125 507.488281,343.152344 507.488281,338.3125 L507.488281,337.714844 C507.488281,332.863281 505.414062,329.675781 501.792969,329.675781 C498.148438,329.675781 496.050781,332.875 496.050781,337.714844 L496.050781,338.3125 C496.050781,343.164062 498.148438,346.328125 501.769531,346.328125 Z M501.769531,344.464844 C499.578125,344.464844 498.195312,342.132812 498.195312,338.289062 L498.195312,337.726562 C498.195312,333.882812 499.578125,331.539062 501.769531,331.539062 C503.972656,331.539062 505.34375,333.882812 505.34375,337.726562 L505.34375,338.289062 C505.34375,342.132812 503.972656,344.464844 501.769531,344.464844 Z M624.910156,346.328125 C628.542969,346.328125 630.628906,343.152344 630.628906,338.3125 L630.628906,337.714844 C630.628906,332.863281 628.554688,329.675781 624.933594,329.675781 C621.289062,329.675781 619.191406,332.875 619.191406,337.714844 L619.191406,338.3125 C619.191406,343.164062 621.289062,346.328125 624.910156,346.328125 Z M624.910156,344.464844 C622.71875,344.464844 621.335938,342.132812 621.335938,338.289062 L621.335938,337.726562 C621.335938,333.882812 622.71875,331.539062 624.910156,331.539062 C627.113281,331.539062 628.484375,333.882812 628.484375,337.726562 L628.484375,338.289062 C628.484375,342.132812 627.113281,344.464844 624.910156,344.464844 Z M635.75,335.804688 C636.722656,335.804688 637.472656,335.101562 637.472656,334.152344 C637.472656,333.15625 636.722656,332.453125 635.75,332.453125 C634.824219,332.453125 634.074219,333.15625 634.074219,334.152344 C634.074219,335.101562 634.835938,335.804688 635.75,335.804688 Z M635.75,343.773438 C636.722656,343.773438 637.472656,343.070312 637.472656,342.121094 C637.472656,341.136719 636.722656,340.421875 635.75,340.421875 C634.824219,340.421875 634.074219,341.125 634.074219,342.121094 C634.074219,343.070312 634.835938,343.773438 635.75,343.773438 Z M646.765625,346 L646.765625,330.003906 L644.632812,330.003906 L640.824219,332.828125 L640.824219,334.996094 L644.527344,332.3125 L644.632812,332.3125 L644.632812,346 L646.765625,346 Z M656.902344,346.328125 C660.277344,346.328125 662.574219,344.078125 662.574219,340.773438 C662.574219,337.539062 660.253906,335.617188 657.464844,335.617188 C655.695312,335.617188 654.582031,336.472656 654.253906,336.988281 L654.136719,336.988281 L654.570312,331.867188 L661.777344,331.867188 L661.777344,330.003906 L652.742188,330.003906 L652.027344,339.191406 L653.855469,339.191406 C654.289062,338.40625 655.34375,337.433594 656.996094,337.433594 C658.800781,337.433594 660.40625,338.722656 660.40625,340.832031 C660.40625,343.222656 658.671875,344.5 657.03125,344.5 C655.566406,344.5 654.066406,343.867188 653.75,342.273438 L651.6875,342.273438 C651.839844,344.617188 653.949219,346.328125 656.902344,346.328125 Z M779.773438,346.328125 C783.40625,346.328125 785.492188,343.152344 785.492188,338.3125 L785.492188,337.714844 C785.492188,332.863281 783.417969,329.675781 779.796875,329.675781 C776.152344,329.675781 774.054688,332.875 774.054688,337.714844 L774.054688,338.3125 C774.054688,343.164062 776.152344,346.328125 779.773438,346.328125 Z M779.773438,344.464844 C777.582031,344.464844 776.199219,342.132812 776.199219,338.289062 L776.199219,337.726562 C776.199219,333.882812 777.582031,331.539062 779.773438,331.539062 C781.976562,331.539062 783.347656,333.882812 783.347656,337.726562 L783.347656,338.289062 C783.347656,342.132812 781.976562,344.464844 779.773438,344.464844 Z M790.613281,335.804688 C791.585938,335.804688 792.335938,335.101562 792.335938,334.152344 C792.335938,333.15625 791.585938,332.453125 790.613281,332.453125 C789.6875,332.453125 788.9375,333.15625 788.9375,334.152344 C788.9375,335.101562 789.699219,335.804688 790.613281,335.804688 Z M790.613281,343.773438 C791.585938,343.773438 792.335938,343.070312 792.335938,342.121094 C792.335938,341.136719 791.585938,340.421875 790.613281,340.421875 C789.6875,340.421875 788.9375,341.125 788.9375,342.121094 C788.9375,343.070312 789.699219,343.773438 790.613281,343.773438 Z M806.339844,346 L806.339844,344.125 L799.0625,344.125 L799.0625,343.996094 L803.316406,339.121094 C804.816406,337.410156 806.035156,336.0625 806.035156,334.058594 C806.035156,331.550781 804.054688,329.675781 801.03125,329.675781 C797.703125,329.675781 795.945312,331.949219 795.945312,334.375 L795.945312,334.457031 L798.042969,334.457031 L798.042969,334.375 L798.042969,334.375 C798.042969,332.851562 799.121094,331.515625 800.984375,331.515625 C802.625,331.515625 803.855469,332.558594 803.855469,334.210938 C803.855469,335.675781 802.90625,336.789062 802.027344,337.785156 L796.003906,344.640625 L796.003906,346 L806.339844,346 Z M815.023438,346.328125 C818.65625,346.328125 820.742188,343.152344 820.742188,338.3125 L820.742188,337.714844 C820.742188,332.863281 818.667969,329.675781 815.046875,329.675781 C811.402344,329.675781 809.304688,332.875 809.304688,337.714844 L809.304688,338.3125 C809.304688,343.164062 811.402344,346.328125 815.023438,346.328125 Z M815.023438,344.464844 C812.832031,344.464844 811.449219,342.132812 811.449219,338.289062 L811.449219,337.726562 C811.449219,333.882812 812.832031,331.539062 815.023438,331.539062 C817.226562,331.539062 818.597656,333.882812 818.597656,337.726562 L818.597656,338.289062 C818.597656,342.132812 817.226562,344.464844 815.023438,344.464844 Z M938.164062,346.328125 C941.796875,346.328125 943.882812,343.152344 943.882812,338.3125 L943.882812,337.714844 C943.882812,332.863281 941.808594,329.675781 938.1875,329.675781 C934.542969,329.675781 932.445312,332.875 932.445312,337.714844 L932.445312,338.3125 C932.445312,343.164062 934.542969,346.328125 938.164062,346.328125 Z M938.164062,344.464844 C935.972656,344.464844 934.589844,342.132812 934.589844,338.289062 L934.589844,337.726562 C934.589844,333.882812 935.972656,331.539062 938.164062,331.539062 C940.367188,331.539062 941.738281,333.882812 941.738281,337.726562 L941.738281,338.289062 C941.738281,342.132812 940.367188,344.464844 938.164062,344.464844 Z M949.003906,335.804688 C949.976562,335.804688 950.726562,335.101562 950.726562,334.152344 C950.726562,333.15625 949.976562,332.453125 949.003906,332.453125 C948.078125,332.453125 947.328125,333.15625 947.328125,334.152344 C947.328125,335.101562 948.089844,335.804688 949.003906,335.804688 Z M949.003906,343.773438 C949.976562,343.773438 950.726562,343.070312 950.726562,342.121094 C950.726562,341.136719 949.976562,340.421875 949.003906,340.421875 C948.078125,340.421875 947.328125,341.125 947.328125,342.121094 C947.328125,343.070312 948.089844,343.773438 949.003906,343.773438 Z M964.730469,346 L964.730469,344.125 L957.453125,344.125 L957.453125,343.996094 L961.707031,339.121094 C963.207031,337.410156 964.425781,336.0625 964.425781,334.058594 C964.425781,331.550781 962.445312,329.675781 959.421875,329.675781 C956.09375,329.675781 954.335938,331.949219 954.335938,334.375 L954.335938,334.457031 L956.433594,334.457031 L956.433594,334.375 L956.433594,334.375 C956.433594,332.851562 957.511719,331.515625 959.375,331.515625 C961.015625,331.515625 962.246094,332.558594 962.246094,334.210938 C962.246094,335.675781 961.296875,336.789062 960.417969,337.785156 L954.394531,344.640625 L954.394531,346 L964.730469,346 Z M973.097656,346.328125 C976.472656,346.328125 978.769531,344.078125 978.769531,340.773438 C978.769531,337.539062 976.449219,335.617188 973.660156,335.617188 C971.890625,335.617188 970.777344,336.472656 970.449219,336.988281 L970.332031,336.988281 L970.765625,331.867188 L977.972656,331.867188 L977.972656,330.003906 L968.9375,330.003906 L968.222656,339.191406 L970.050781,339.191406 C970.484375,338.40625 971.539062,337.433594 973.191406,337.433594 C974.996094,337.433594 976.601562,338.722656 976.601562,340.832031 C976.601562,343.222656 974.867188,344.5 973.226562,344.5 C971.761719,344.5 970.261719,343.867188 969.945312,342.273438 L967.882812,342.273438 C968.035156,344.617188 970.144531,346.328125 973.097656,346.328125 Z" id="Time0:010:050:100:150:200:25" fill="#FFFFFF" fill-rule="nonzero"></path>
            <path d="M360.4375,46.6796875 C364.5,46.6796875 367.566406,45.1484375 369.636719,42.0859375 C371.707031,39.0234375 372.742188,34.5078125 372.742188,28.5390625 C372.742188,22.5546875 371.707031,18.03125 369.636719,14.96875 C367.566406,11.90625 364.5,10.375 360.4375,10.375 C356.390625,10.375 353.332031,11.90625 351.261719,14.96875 C349.191406,18.03125 348.15625,22.5546875 348.15625,28.5390625 C348.15625,34.5078125 349.191406,39.0234375 351.261719,42.0859375 C353.332031,45.1484375 356.390625,46.6796875 360.4375,46.6796875 Z M360.4375,40.46875 C358.671875,40.46875 357.382812,39.5273438 356.570312,37.6445312 C355.757812,35.7617188 355.351562,32.7265625 355.351562,28.5390625 C355.351562,24.3359375 355.757812,21.2929688 356.570312,19.4101562 C357.382812,17.5273438 358.671875,16.5859375 360.4375,16.5859375 C362.21875,16.5859375 363.515625,17.5273438 364.328125,19.4101562 C365.140625,21.2929688 365.546875,24.3359375 365.546875,28.5390625 C365.546875,32.7265625 365.140625,35.7617188 364.328125,37.6445312 C363.515625,39.5273438 362.21875,40.46875 360.4375,40.46875 Z M392.21875,46.6796875 C395.21875,46.6796875 397.546875,45.4765625 399.203125,43.0703125 C400.859375,40.6640625 401.6875,37.2734375 401.6875,32.8984375 C401.6875,28.4609375 400.847656,25.0546875 399.167969,22.6796875 C397.488281,20.3046875 395.09375,19.1171875 391.984375,19.1171875 C390.578125,19.1171875 389.316406,19.4804688 388.199219,20.2070312 C387.082031,20.9335938 386.101562,22.0234375 385.257812,23.4765625 L385.257812,23.4765625 L385.257812,9.53125 L378.414062,9.53125 L378.414062,46 L385.257812,46 L385.257812,42.109375 C385.976562,43.625 386.921875,44.765625 388.09375,45.53125 C389.265625,46.296875 390.640625,46.6796875 392.21875,46.6796875 Z M390.0625,41.0546875 C388.578125,41.0546875 387.40625,40.3359375 386.546875,38.8984375 C385.6875,37.4609375 385.257812,35.4765625 385.257812,32.9453125 C385.257812,30.4140625 385.6875,28.4296875 386.546875,26.9921875 C387.40625,25.5546875 388.578125,24.8359375 390.0625,24.8359375 C391.546875,24.8359375 392.710938,25.5546875 393.554688,26.9921875 C394.398438,28.4296875 394.820312,30.4140625 394.820312,32.9453125 C394.820312,35.4765625 394.398438,37.4609375 393.554688,38.8984375 C392.710938,40.3359375 391.546875,41.0546875 390.0625,41.0546875 Z M418.140625,46.6796875 C421.703125,46.6796875 424.371094,46.0039062 426.144531,44.6523438 C427.917969,43.3007812 428.804688,41.2734375 428.804688,38.5703125 C428.804688,36.3203125 428.222656,34.5351562 427.058594,33.2148438 C425.894531,31.8945312 424.0625,30.9375 421.5625,30.34375 L421.5625,30.34375 L419.59375,29.875 L419.335938,29.8046875 C415.992188,29.0234375 414.320312,28.0078125 414.320312,26.7578125 C414.320312,25.8828125 414.710938,25.2226562 415.492188,24.7773438 C416.273438,24.3320312 417.429688,24.109375 418.960938,24.109375 C420.335938,24.109375 421.707031,24.3164062 423.074219,24.7304688 C424.441406,25.1445312 425.757812,25.7578125 427.023438,26.5703125 L427.023438,26.5703125 L427.023438,20.5703125 C425.632812,20.0859375 424.199219,19.7226562 422.722656,19.4804688 C421.246094,19.2382812 419.765625,19.1171875 418.28125,19.1171875 C414.96875,19.1171875 412.398438,19.8203125 410.570312,21.2265625 C408.742188,22.6328125 407.828125,24.6015625 407.828125,27.1328125 C407.828125,29.2578125 408.429688,30.953125 409.632812,32.21875 C410.835938,33.484375 412.75,34.4140625 415.375,35.0078125 L415.375,35.0078125 L417.273438,35.4296875 C419.476562,35.9609375 420.871094,36.4609375 421.457031,36.9296875 C422.042969,37.3984375 422.335938,38.0703125 422.335938,38.9453125 C422.335938,39.8359375 421.921875,40.515625 421.09375,40.984375 C420.265625,41.453125 419.046875,41.6875 417.4375,41.6875 C415.96875,41.6875 414.449219,41.4609375 412.878906,41.0078125 C411.308594,40.5546875 409.765625,39.8984375 408.25,39.0390625 L408.25,39.0390625 L408.25,45.0390625 C409.953125,45.5859375 411.632812,45.9960938 413.289062,46.2695312 C414.945312,46.5429688 416.5625,46.6796875 418.140625,46.6796875 Z M448.398438,46.6796875 C450.242188,46.6796875 451.992188,46.515625 453.648438,46.1875 C455.304688,45.859375 456.929688,45.3671875 458.523438,44.7109375 L458.523438,44.7109375 L458.523438,38.40625 C456.851562,39.390625 455.25,40.109375 453.71875,40.5625 C452.1875,41.015625 450.632812,41.2421875 449.054688,41.2421875 C446.664062,41.2421875 444.867188,40.734375 443.664062,39.71875 C442.460938,38.703125 441.851562,37.1640625 441.835938,35.1015625 L441.835938,35.1015625 L459.625,35.1015625 L459.625,32.3125 C459.625,28.125 458.550781,24.8789062 456.402344,22.5742188 C454.253906,20.2695312 451.234375,19.1171875 447.34375,19.1171875 C443.484375,19.1171875 440.4375,20.359375 438.203125,22.84375 C435.96875,25.328125 434.851562,28.7109375 434.851562,32.9921875 C434.851562,37.4140625 436.011719,40.8007812 438.332031,43.1523438 C440.652344,45.5039062 444.007812,46.6796875 448.398438,46.6796875 Z M441.90625,29.96875 C442.078125,28.203125 442.632812,26.8398438 443.570312,25.8789062 C444.507812,24.9179688 445.765625,24.4375 447.34375,24.4375 C449.09375,24.4375 450.417969,24.9023438 451.316406,25.8320312 C452.214844,26.7617188 452.679688,28.1328125 452.710938,29.9453125 L452.710938,29.9453125 L441.90625,29.96875 Z M475.28125,46 L475.28125,33.90625 C475.28125,32.1875 475.355469,30.90625 475.503906,30.0625 C475.652344,29.21875 475.914062,28.5 476.289062,27.90625 C476.882812,26.9375 477.722656,26.1992188 478.808594,25.6914062 C479.894531,25.1835938 481.164062,24.9296875 482.617188,24.9296875 C483.820312,24.9296875 484.925781,25.1015625 485.933594,25.4453125 C486.941406,25.7890625 487.820312,26.3046875 488.570312,26.9921875 L488.570312,26.9921875 L488.570312,20.453125 C487.757812,20.015625 486.902344,19.6835938 486.003906,19.4570312 C485.105469,19.2304688 484.1875,19.1171875 483.25,19.1171875 C481.390625,19.1171875 479.765625,19.5273438 478.375,20.3476562 C476.984375,21.1679688 475.953125,22.328125 475.28125,23.828125 L475.28125,23.828125 L475.28125,19.75 L468.414062,19.75 L468.414062,46 L475.28125,46 Z M509.171875,46 L517.515625,19.75 L510.554688,19.75 L504.929688,40.234375 L499.328125,19.75 L492.367188,19.75 L500.710938,46 L509.171875,46 Z M531.0625,46.6796875 C532.625,46.6796875 534.054688,46.3671875 535.351562,45.7421875 C536.648438,45.1171875 537.710938,44.2265625 538.539062,43.0703125 L538.539062,43.0703125 L538.539062,46 L545.359375,46 L545.359375,31.0234375 C545.359375,26.5546875 544.496094,23.453125 542.769531,21.71875 C541.042969,19.984375 538.046875,19.1171875 533.78125,19.1171875 C532.03125,19.1171875 530.375,19.265625 528.8125,19.5625 C527.25,19.859375 525.710938,20.3203125 524.195312,20.9453125 L524.195312,20.9453125 L524.195312,26.8046875 C525.867188,25.8984375 527.472656,25.2382812 529.011719,24.8242188 C530.550781,24.4101562 532.140625,24.203125 533.78125,24.203125 C535.34375,24.203125 536.527344,24.4882812 537.332031,25.0585938 C538.136719,25.6289062 538.539062,26.46875 538.539062,27.578125 L538.539062,27.578125 L538.539062,28.7265625 L533.78125,28.7265625 C529.625,28.7265625 526.554688,29.4570312 524.570312,30.9179688 C522.585938,32.3789062 521.59375,34.640625 521.59375,37.703125 C521.59375,40.53125 522.425781,42.734375 524.089844,44.3125 C525.753906,45.890625 528.078125,46.6796875 531.0625,46.6796875 Z M532.820312,41.921875 C531.617188,41.921875 530.664062,41.5703125 529.960938,40.8671875 C529.257812,40.1640625 528.90625,39.21875 528.90625,38.03125 C528.90625,36.4375 529.414062,35.3125 530.429688,34.65625 C531.445312,34 533.234375,33.671875 535.796875,33.671875 L535.796875,33.671875 L538.539062,33.671875 L538.539062,34.140625 C538.539062,36.59375 538.039062,38.5039062 537.039062,39.8710938 C536.039062,41.2382812 534.632812,41.921875 532.820312,41.921875 Z M565.609375,46.6796875 C568.609375,46.6796875 570.9375,45.4765625 572.59375,43.0703125 C574.25,40.6640625 575.078125,37.2734375 575.078125,32.8984375 C575.078125,28.4609375 574.238281,25.0546875 572.558594,22.6796875 C570.878906,20.3046875 568.484375,19.1171875 565.375,19.1171875 C563.96875,19.1171875 562.707031,19.4804688 561.589844,20.2070312 C560.472656,20.9335938 559.492188,22.0234375 558.648438,23.4765625 L558.648438,23.4765625 L558.648438,9.53125 L551.804688,9.53125 L551.804688,46 L558.648438,46 L558.648438,42.109375 C559.367188,43.625 560.3125,44.765625 561.484375,45.53125 C562.65625,46.296875 564.03125,46.6796875 565.609375,46.6796875 Z M563.453125,41.0546875 C561.96875,41.0546875 560.796875,40.3359375 559.9375,38.8984375 C559.078125,37.4609375 558.648438,35.4765625 558.648438,32.9453125 C558.648438,30.4140625 559.078125,28.4296875 559.9375,26.9921875 C560.796875,25.5546875 561.96875,24.8359375 563.453125,24.8359375 C564.9375,24.8359375 566.101562,25.5546875 566.945312,26.9921875 C567.789062,28.4296875 568.210938,30.4140625 568.210938,32.9453125 C568.210938,35.4765625 567.789062,37.4609375 566.945312,38.8984375 C566.101562,40.3359375 564.9375,41.0546875 563.453125,41.0546875 Z M602.828125,46 L602.828125,40.7265625 L597.34375,40.7265625 C595.8125,40.7265625 594.726562,40.296875 594.085938,39.4375 C593.445312,38.578125 593.125,37.1171875 593.125,35.0546875 L593.125,35.0546875 L593.125,9.53125 L579.296875,9.53125 L579.296875,14.8046875 L586.257812,14.8046875 L586.257812,35.0546875 C586.257812,38.9765625 586.96875,41.78125 588.390625,43.46875 C589.8125,45.15625 592.15625,46 595.421875,46 L595.421875,46 L602.828125,46 Z M621.789062,46.6796875 C623.632812,46.6796875 625.382812,46.515625 627.039062,46.1875 C628.695312,45.859375 630.320312,45.3671875 631.914062,44.7109375 L631.914062,44.7109375 L631.914062,38.40625 C630.242188,39.390625 628.640625,40.109375 627.109375,40.5625 C625.578125,41.015625 624.023438,41.2421875 622.445312,41.2421875 C620.054688,41.2421875 618.257812,40.734375 617.054688,39.71875 C615.851562,38.703125 615.242188,37.1640625 615.226562,35.1015625 L615.226562,35.1015625 L633.015625,35.1015625 L633.015625,32.3125 C633.015625,28.125 631.941406,24.8789062 629.792969,22.5742188 C627.644531,20.2695312 624.625,19.1171875 620.734375,19.1171875 C616.875,19.1171875 613.828125,20.359375 611.59375,22.84375 C609.359375,25.328125 608.242188,28.7109375 608.242188,32.9921875 C608.242188,37.4140625 609.402344,40.8007812 611.722656,43.1523438 C614.042969,45.5039062 617.398438,46.6796875 621.789062,46.6796875 Z M615.296875,29.96875 C615.46875,28.203125 616.023438,26.8398438 616.960938,25.8789062 C617.898438,24.9179688 619.15625,24.4375 620.734375,24.4375 C622.484375,24.4375 623.808594,24.9023438 624.707031,25.8320312 C625.605469,26.7617188 626.070312,28.1328125 626.101562,29.9453125 L626.101562,29.9453125 L615.296875,29.96875 Z M661.820312,43.4453125 L661.820312,37.609375 L643.1875,30.9765625 L661.820312,24.296875 L661.820312,18.4375 L637.046875,28.1875 L637.046875,33.71875 L661.820312,43.4453125 Z M688.75,46 L688.75,39.90625 L681.789062,39.90625 L681.789062,17.1015625 L688.75,17.1015625 L688.75,11.0078125 L667.914062,11.0078125 L667.914062,17.1015625 L674.875,17.1015625 L674.875,39.90625 L667.914062,39.90625 L667.914062,46 L688.75,46 Z M703.632812,46 L703.632812,30.9765625 C703.632812,29.0078125 703.988281,27.46875 704.699219,26.359375 C705.410156,25.25 706.382812,24.6953125 707.617188,24.6953125 C708.835938,24.6953125 709.714844,25.1054688 710.253906,25.9257812 C710.792969,26.7460938 711.0625,28.109375 711.0625,30.015625 L711.0625,30.015625 L711.0625,46 L717.882812,46 L717.882812,28.9609375 C717.882812,25.6953125 717.25,23.2382812 715.984375,21.5898438 C714.71875,19.9414062 712.84375,19.1171875 710.359375,19.1171875 C708.703125,19.1171875 707.289062,19.515625 706.117188,20.3125 C704.945312,21.109375 704.117188,22.234375 703.632812,23.6875 L703.632812,23.6875 L703.632812,19.75 L696.8125,19.75 L696.8125,46 L703.632812,46 Z M746.828125,46 L746.828125,40.7265625 L741.554688,40.7265625 C740.226562,40.7265625 739.277344,40.4726562 738.707031,39.9648438 C738.136719,39.4570312 737.851562,38.6171875 737.851562,37.4453125 L737.851562,37.4453125 L737.851562,25.0234375 L746.828125,25.0234375 L746.828125,19.75 L737.851562,19.75 L737.851562,12.296875 L730.984375,12.296875 L730.984375,19.75 L724.28125,19.75 L724.28125,25.0234375 L730.984375,25.0234375 L730.984375,37.1171875 C730.984375,40.5234375 731.679688,42.8554688 733.070312,44.1132812 C734.460938,45.3710938 737.125,46 741.0625,46 L741.0625,46 L746.828125,46 Z M752.640625,43.4453125 L777.414062,33.71875 L777.414062,28.1875 L752.640625,18.4375 L752.640625,24.296875 L771.273438,30.9765625 L752.640625,37.609375 L752.640625,43.4453125 Z" id="Observable&lt;Int&gt;" fill="#FFFFFF" fill-rule="nonzero"></path>
        </g>
    </g>
</svg>