<?xml version="1.0" encoding="UTF-8"?>
<svg width="342px" height="343px" viewBox="0 0 342 343" version="1.1" xmlns="http://www.w3.org/2000/svg" xmlns:xlink="http://www.w3.org/1999/xlink">
    <title>Raven_Matrix</title>
    <defs>
        <filter id="filter-1">
            <feColorMatrix in="SourceGraphic" type="matrix" values="0 0 0 0 1.000000 0 0 0 0 1.000000 0 0 0 0 1.000000 0 0 0 1.000000 0"></feColorMatrix>
        </filter>
    </defs>
    <g id="Page-1" stroke="none" stroke-width="1" fill="none" fill-rule="evenodd">
        <g filter="url(#filter-1)" id="Raven_Matrix">
            <g transform="translate(1.000000, 1.000000)">
                <g id="Rectangle01" stroke="#000000">
                    <polygon id="Path" fill="#000000" fill-rule="nonzero" points="0 0 50 0 50 50 0 50"></polygon>
                    <path d="M50,0 L100,0 L100,50 L50,50 L50,0 Z M0,50 L50,50 L50,100 L0,100 L0,50 Z M50,50 L100,50 L100,100 L50,100 L50,50 Z" id="Shape"></path>
                </g>
                <g id="Rectangle01" transform="translate(170.000000, 50.000000) rotate(90.000000) translate(-170.000000, -50.000000) translate(120.000000, 0.000000)" stroke="#000000">
                    <polygon id="Path" fill="#000000" fill-rule="nonzero" points="0 0 50 0 50 50 0 50"></polygon>
                    <path d="M50,0 L100,0 L100,50 L50,50 L50,0 Z M0,50 L50,50 L50,100 L0,100 L0,50 Z M50,50 L100,50 L100,100 L50,100 L50,50 Z" id="Shape"></path>
                </g>
                <g id="Rectangle01" transform="translate(290.000000, 50.000000) rotate(-180.000000) translate(-290.000000, -50.000000) translate(240.000000, 0.000000)" stroke="#000000">
                    <polygon id="Path" fill="#000000" fill-rule="nonzero" points="0 0 50 0 50 50 0 50"></polygon>
                    <path d="M50,0 L100,0 L100,50 L50,50 L50,0 Z M0,50 L50,50 L50,100 L0,100 L0,50 Z M50,50 L100,50 L100,100 L50,100 L50,50 Z" id="Shape"></path>
                </g>
                <g id="Circle01" transform="translate(0.000000, 120.000000)" stroke="#000000">
                    <path d="M50,50 L0,50 C0,22.3857625 22.3857625,0 50,0 L50,50 Z" id="Path" fill="#000000" fill-rule="nonzero"></path>
                    <path d="M50,50 L50,0 C77.6142375,0 100,22.3857625 100,50 L50,50 Z" id="Path"></path>
                    <path d="M50,50 L100,50 C100,77.6142375 77.6142375,100 50,100 L50,50 Z" id="Path"></path>
                    <path d="M50,50 L50,100 C22.3857625,100 7.10542736e-15,77.6142375 7.10542736e-15,50 L50,50 Z" id="Path"></path>
                </g>
                <g id="Circle01" transform="translate(170.000000, 170.000000) rotate(90.000000) translate(-170.000000, -170.000000) translate(120.000000, 120.000000)" stroke="#000000">
                    <path d="M50,50 L0,50 C0,22.3857625 22.3857625,0 50,0 L50,50 Z" id="Path" fill="#000000" fill-rule="nonzero"></path>
                    <path d="M50,50 L50,0 C77.6142375,0 100,22.3857625 100,50 L50,50 Z" id="Path"></path>
                    <path d="M50,50 L100,50 C100,77.6142375 77.6142375,100 50,100 L50,50 Z" id="Path"></path>
                    <path d="M50,50 L50,100 C22.3857625,100 7.10542736e-15,77.6142375 7.10542736e-15,50 L50,50 Z" id="Path"></path>
                </g>
                <g id="Circle01" transform="translate(290.000000, 170.000000) rotate(-180.000000) translate(-290.000000, -170.000000) translate(240.000000, 120.000000)" stroke="#000000">
                    <path d="M50,50 L0,50 C0,22.3857625 22.3857625,0 50,0 L50,50 Z" id="Path" fill="#000000" fill-rule="nonzero"></path>
                    <path d="M50,50 L50,0 C77.6142375,0 100,22.3857625 100,50 L50,50 Z" id="Path"></path>
                    <path d="M50,50 L100,50 C100,77.6142375 77.6142375,100 50,100 L50,50 Z" id="Path"></path>
                    <path d="M50,50 L50,100 C22.3857625,100 7.10542736e-15,77.6142375 7.10542736e-15,50 L50,50 Z" id="Path"></path>
                </g>
                <g id="Lozenge01" transform="translate(0.000000, 240.000000)" stroke="#000000">
                    <polygon id="Path" fill="#000000" fill-rule="nonzero" points="50 50 25 75 0 50 25 25"></polygon>
                    <path d="M50,50 L25,25 L50,0 L75,25 L50,50 Z M50,50 L75,25 L100,50 L75,75 L50,50 Z M50,50 L75,75 L50,100 L25,75 L50,50 Z" id="Shape"></path>
                </g>
                <g id="Lozenge01" transform="translate(170.000000, 290.000000) rotate(90.000000) translate(-170.000000, -290.000000) translate(120.000000, 240.000000)" stroke="#000000">
                    <polygon id="Path" fill="#000000" fill-rule="nonzero" points="50 50 25 75 0 50 25 25"></polygon>
                    <path d="M50,50 L25,25 L50,0 L75,25 L50,50 Z M50,50 L75,25 L100,50 L75,75 L50,50 Z M50,50 L75,75 L50,100 L25,75 L50,50 Z" id="Shape"></path>
                </g>
                <rect id="Rectangle" stroke="#000000" x="240" y="240" width="100" height="100"></rect>
            </g>
        </g>
    </g>
</svg>